<svg width="53" height="50" viewBox="0 0 53 50" fill="none" xmlns="http://www.w3.org/2000/svg">
<path fill-rule="evenodd" clip-rule="evenodd" d="M9.83449 0H42.9542C47.9755 0 52.0354 4.05983 52.0354 9.0812V40.9188C52.0354 45.9402 47.9755 50 42.9542 50H9.83449C4.81313 50 0.753296 45.9402 0.753296 40.9188V9.0812C0.753296 4.05983 4.81313 0 9.83449 0ZM20.9027 29.9145H12.954L11.3301 34.9573C11.2874 35.1496 11.1164 35.2778 10.9241 35.2564H6.90702C6.67198 35.2564 6.60787 35.1282 6.67198 34.8718L13.5523 15.1282C13.571 15.0659 13.5897 15.0018 13.6089 14.9359C13.6556 14.7757 13.7054 14.6047 13.766 14.4231C13.8728 13.9743 13.9369 13.5256 13.9369 13.0555C13.9156 12.9487 14.001 12.8419 14.1079 12.8205H14.172H19.6421C19.7916 12.8205 19.8985 12.8846 19.9198 12.9914L27.6763 34.9145C27.7404 35.1496 27.6763 35.2564 27.4626 35.2564H22.9968C22.8472 35.2778 22.6976 35.1709 22.6549 35.0214L20.9027 29.9145ZM14.1933 25.6624H19.6207C19.4925 25.2137 19.3216 24.6795 19.1292 24.1239C18.9369 23.547 18.7446 22.9273 18.5523 22.2863C18.4455 21.9552 18.344 21.6294 18.2425 21.3036L18.2425 21.3034C18.141 20.9776 18.0395 20.6517 17.9327 20.3205C17.719 19.6581 17.5267 19.0384 17.3557 18.4188C17.2801 18.1541 17.2086 17.8977 17.1395 17.6497L17.1395 17.6495C17.0524 17.3371 16.969 17.038 16.8857 16.7521H16.8429C16.6506 17.6709 16.4156 18.5897 16.1164 19.5085C15.9944 19.8991 15.8723 20.2959 15.7491 20.6964L15.749 20.6968L15.749 20.6968C15.5486 21.3481 15.3452 22.0095 15.1335 22.6709C14.8557 23.7607 14.5139 24.7649 14.1933 25.6624ZM44.0867 31.5171V18.4188V18.3547C44.0867 18.2479 43.9585 18.1624 43.8517 18.1838H39.7705C39.5781 18.1838 39.4713 18.2693 39.4713 18.4188V30.5769C39.0653 30.8761 38.6166 31.1111 38.1252 31.2821C37.6551 31.453 37.1636 31.5385 36.6722 31.5385C35.7106 31.5385 34.8773 31.2607 34.4713 30.7265C34.0653 30.1923 33.8516 29.4445 33.8516 28.5043V18.4616V18.3975C33.8303 18.2479 33.7021 18.1624 33.5739 18.1838H29.4927H29.4286C29.279 18.2051 29.1935 18.3334 29.2149 18.4616V29.0598C29.1935 30.0855 29.3431 31.1111 29.6422 32.094C29.8773 32.8633 30.2833 33.5684 30.8388 34.1667C31.3303 34.7009 31.9713 35.1069 32.6551 35.3419C33.4029 35.5983 34.1935 35.7052 34.9841 35.7052C35.7747 35.7052 36.5867 35.5983 37.3559 35.3846C38.2534 35.1282 39.0867 34.6795 39.7705 34.0598C39.7705 34.2094 39.7705 34.359 39.8132 34.5086C39.8346 34.594 39.8559 34.6848 39.8773 34.7756C39.8987 34.8665 39.92 34.9573 39.9414 35.0428C40.0055 35.1923 40.1764 35.2992 40.3474 35.2778H44.0226C44.1935 35.2778 44.279 35.1923 44.2576 35C44.2363 34.765 44.2149 34.5727 44.1722 34.2308C44.1508 33.8889 44.1294 33.5043 44.1081 33.0556C44.0867 32.6069 44.0867 32.0942 44.0867 31.5174V31.5171Z" fill="#A6A6A6"/>
</svg>
