<svg width="39" height="36" viewBox="0 0 39 36" fill="none" xmlns="http://www.w3.org/2000/svg">
<path fill-rule="evenodd" clip-rule="evenodd" d="M0 2.7C0 1.20884 1.20883 0 2.7 0H35.32C36.8112 0 38.02 1.20883 38.02 2.7V33.26C38.02 34.7512 36.8112 35.96 35.32 35.96H2.7C1.20883 35.96 0 34.7512 0 33.26V2.7ZM15.2699 21.4536H9.543L8.37298 25.0869C8.34219 25.2254 8.21903 25.3178 8.08047 25.3024H5.18621C5.01687 25.3024 4.97068 25.21 5.01687 25.0253L9.97406 10.8003C9.98751 10.7555 10.001 10.7093 10.0148 10.6619L10.0148 10.6618L10.0148 10.6617C10.0485 10.5463 10.0844 10.4231 10.128 10.2923C10.205 9.96896 10.2512 9.64567 10.2512 9.30698C10.2358 9.23 10.2974 9.15303 10.3743 9.13763H10.4205H14.3616C14.4694 9.13763 14.5464 9.18382 14.5618 9.26079L20.1502 25.0561C20.1963 25.2254 20.1502 25.3024 19.9962 25.3024H16.7786C16.6709 25.3178 16.5631 25.2408 16.5323 25.133L15.2699 21.4536ZM10.4359 18.39H14.3462C14.2539 18.0667 14.1307 17.6819 13.9922 17.2816C13.8536 16.8659 13.715 16.4195 13.5765 15.9576C13.4995 15.719 13.4264 15.4842 13.3533 15.2495C13.2801 15.0147 13.207 14.7799 13.13 14.5413C12.9761 14.064 12.8375 13.6176 12.7144 13.1711C12.6599 12.9803 12.6084 12.7956 12.5586 12.6169C12.4958 12.3918 12.4357 12.1763 12.3757 11.9703H12.3449C12.2063 12.6323 12.037 13.2943 11.8215 13.9563C11.7335 14.2377 11.6456 14.5236 11.5567 14.8123C11.4124 15.2816 11.2658 15.7582 11.1133 16.2347C10.9132 17.0199 10.6668 17.7434 10.4359 18.39ZM31.9736 22.6084V13.1712V13.125C31.9736 13.0481 31.8812 12.9865 31.8043 13.0019H28.8638C28.7253 13.0019 28.6483 13.0635 28.6483 13.1712V21.931C28.3558 22.1465 28.0325 22.3159 27.6784 22.439C27.3397 22.5622 26.9856 22.6238 26.6315 22.6238C25.9388 22.6238 25.3384 22.4236 25.0459 22.0388C24.7534 21.6539 24.5994 21.1151 24.5994 20.4377V13.202V13.1558C24.584 13.0481 24.4916 12.9865 24.3993 13.0019H21.4588H21.4126C21.3049 13.0173 21.2433 13.1097 21.2587 13.202V20.8379C21.2433 21.5769 21.3511 22.3159 21.5666 23.024C21.7359 23.5783 22.0284 24.0863 22.4287 24.5173C22.7828 24.9022 23.2446 25.1947 23.7373 25.3641C24.2761 25.5488 24.8457 25.6258 25.4153 25.6258C25.985 25.6258 26.57 25.5488 27.1242 25.3949C27.7708 25.2101 28.3712 24.8868 28.8638 24.4404C28.8638 24.5481 28.8638 24.6559 28.8946 24.7637C28.91 24.8252 28.9254 24.8906 28.9408 24.9561C28.9562 25.0215 28.9716 25.0869 28.987 25.1485C29.0332 25.2563 29.1563 25.3333 29.2795 25.3179H31.9274C32.0506 25.3179 32.1122 25.2563 32.0968 25.1178C32.0814 24.9484 32.066 24.8099 32.0352 24.5635C32.0198 24.3172 32.0044 24.0401 31.989 23.7168C31.9736 23.3936 31.9736 23.0241 31.9736 22.6085V22.6084Z" fill="#A6A6A6"/>
</svg>
