<svg width="62" height="50" viewBox="0 0 62 50" fill="none" xmlns="http://www.w3.org/2000/svg">
<path d="M32.1919 28.1038C32.3074 26.0508 33.316 24.2421 34.8376 22.96C36.3298 21.7006 38.3383 20.9309 40.5298 20.9309C42.7191 20.9309 44.7276 21.7006 46.2209 22.96C47.7415 24.2421 48.7501 26.0509 48.8666 28.1016C48.9821 30.2111 48.1314 32.1707 46.6392 33.6233C45.1176 35.1008 42.9533 36.028 40.5298 36.028C38.1063 36.028 35.9377 35.1008 34.4172 33.6233C32.9239 32.1707 32.0754 30.2111 32.1919 28.1038Z" fill="#A6A6A6"/>
<path d="M18.9146 32.2615C18.9287 33.0649 19.1858 34.6261 19.5713 35.8452C20.3817 38.4258 21.7563 40.8132 23.6689 42.9172C25.6317 45.0798 28.0487 46.8168 30.8403 48.0501C33.7747 49.3453 36.954 50.0054 40.2565 50C43.5536 49.9956 46.733 49.3225 49.6673 48.0175C52.459 46.7723 54.8737 45.0277 56.8332 42.864C58.7448 40.7513 60.1172 38.3596 60.9297 35.779C61.3382 34.4751 61.5963 33.1517 61.6998 31.824C61.8011 30.5158 61.7586 29.2054 61.5724 27.8961C61.2086 25.3448 60.323 22.9509 58.9593 20.7688C57.7122 18.7636 56.1045 17.0081 54.193 15.5305L54.1973 15.5273L34.9063 0.763464C34.8889 0.750436 34.8748 0.736344 34.8562 0.724402C33.5906 -0.243999 31.4623 -0.240737 30.0702 0.729836C28.663 1.71126 28.5018 3.33429 29.7544 4.35806L29.7489 4.3635L37.7949 10.885L13.2714 10.9111H13.2387C11.2117 10.9132 9.26307 12.2388 8.87749 13.914C8.48102 15.6206 9.85777 17.0363 11.9654 17.0439L11.9621 17.0515L24.3922 17.0276L2.21152 33.9975C2.1832 34.0181 2.1527 34.0398 2.12656 34.0604C0.0341837 35.6574 -0.6422 38.3129 0.675744 39.9935C2.01329 41.7023 4.85722 41.7056 6.97138 40.0033L19.0769 30.1282C19.0769 30.1282 18.9004 31.4614 18.9146 32.2615ZM50.0213 36.7257C47.527 39.2585 44.035 40.6949 40.2565 40.7024C36.4726 40.709 32.9806 39.2857 30.4863 36.7572C29.2675 35.525 28.3722 34.1071 27.8199 32.597C27.2786 31.1129 27.0684 29.5376 27.2078 27.9482C27.3396 26.3946 27.8036 24.9127 28.5443 23.5719C29.2719 22.2539 30.2739 21.063 31.5113 20.0555C33.9359 18.0861 37.0227 17.02 40.2511 17.0157C43.4828 17.0113 46.5674 18.0677 48.9942 20.0305C50.2293 21.0337 51.2303 22.2203 51.9579 23.5361C52.7019 24.8758 53.1626 26.3523 53.2998 27.9102C53.4371 29.4974 53.2269 31.0706 52.6855 32.5557C52.1322 34.0702 51.2401 35.488 50.0213 36.7257Z" fill="#A6A6A6"/>
</svg>
