<svg width="39" height="36" viewBox="0 0 39 36" fill="none" xmlns="http://www.w3.org/2000/svg">
<path fill-rule="evenodd" clip-rule="evenodd" d="M0 2.7C0 1.20884 1.20883 0 2.7 0H35.32C36.8112 0 38.02 1.20883 38.02 2.7V33.26C38.02 34.7512 36.8112 35.96 35.32 35.96H2.7C1.20883 35.96 0 34.7512 0 33.26V2.7ZM19.0478 19.264C19.0982 18.3681 19.5383 17.5788 20.2023 17.0193C20.8535 16.4697 21.73 16.1338 22.6863 16.1338C23.6417 16.1338 24.5182 16.4697 25.1698 17.0193C25.8334 17.5788 26.2735 18.3681 26.3243 19.263C26.3747 20.1835 26.0035 21.0387 25.3523 21.6726C24.6883 22.3173 23.7439 22.7219 22.6863 22.7219C21.6287 22.7219 20.6824 22.3173 20.0189 21.6726C19.3672 21.0387 18.997 20.1835 19.0478 19.264ZM13.5406 22.6422C13.3723 22.1102 13.2601 21.4289 13.254 21.0783C13.2478 20.7291 13.3248 20.1474 13.3248 20.1474L8.04218 24.4567C7.1196 25.1995 5.87856 25.1981 5.29488 24.4524C4.71976 23.719 5.01492 22.5602 5.92799 21.8633C5.93716 21.8561 5.94756 21.8486 5.9577 21.8412C5.96018 21.8394 5.96264 21.8376 5.96506 21.8359L15.6443 14.4305L10.2201 14.441L10.2215 14.4376C9.30175 14.4343 8.70096 13.8165 8.87397 13.0718C9.04223 12.3408 9.89256 11.7623 10.7771 11.7614H10.7914L21.493 11.75L17.9819 8.90415L17.9842 8.90178C17.4376 8.45502 17.508 7.74676 18.1221 7.31849C18.7295 6.89495 19.6583 6.89352 20.2106 7.31612C20.2155 7.31926 20.2197 7.32275 20.2239 7.32628C20.2267 7.32859 20.2295 7.33091 20.2325 7.33316L28.6507 13.7758L28.6488 13.7772C29.483 14.422 30.1845 15.1881 30.7287 16.0631C31.3238 17.0154 31.7103 18.06 31.869 19.1733C31.9503 19.7447 31.9688 20.3165 31.9246 20.8874C31.8795 21.4668 31.7668 22.0443 31.5886 22.6133C31.234 23.7394 30.6351 24.7831 29.8009 25.705C28.9459 26.6492 27.8921 27.4106 26.6739 27.954C25.3934 28.5234 24.006 28.8171 22.5672 28.819C21.126 28.8214 19.7386 28.5334 18.4581 27.9682C17.2399 27.43 16.1852 26.672 15.3287 25.7282C14.494 24.8101 13.8942 23.7683 13.5406 22.6422ZM22.5672 24.7618C24.216 24.7585 25.7399 24.1317 26.8283 23.0264C27.3602 22.4863 27.7495 21.8676 27.991 21.2067C28.2272 20.5586 28.3189 19.8721 28.259 19.1795C28.1991 18.4996 27.9981 17.8553 27.6735 17.2707C27.356 16.6965 26.9191 16.1787 26.3801 15.7409C25.3211 14.8844 23.9751 14.4234 22.5648 14.4253C21.156 14.4272 19.809 14.8925 18.7509 15.7519C18.211 16.1915 17.7737 16.7112 17.4562 17.2863C17.133 17.8714 16.9305 18.5181 16.873 19.1961C16.8121 19.8896 16.9039 20.5771 17.1401 21.2247C17.3811 21.8837 17.7718 22.5024 18.3037 23.0401C19.3921 24.1435 20.916 24.7646 22.5672 24.7618Z" fill="#A6A6A6"/>
</svg>
