<svg width="39" height="36" viewBox="0 0 39 36" fill="none" xmlns="http://www.w3.org/2000/svg">
<path fill-rule="evenodd" clip-rule="evenodd" d="M0 2.7C0 1.20884 1.20883 0 2.7 0H35.32C36.8112 0 38.02 1.20883 38.02 2.7V33.26C38.02 34.7512 36.8112 35.96 35.32 35.96H2.7C1.20883 35.96 0 34.7512 0 33.26V2.7ZM26.9579 14.703V16.3283H28.5748V14.703H29.3832V16.3283H31V17.141H29.3832V18.7664H31V19.5791H29.3832V21.2045H28.5748V19.5791H26.9579V21.2045H26.1495V19.5791H24.5327V18.7664H26.1495V17.141H24.5327V16.3283H26.1495V14.703H26.9579ZM28.5748 17.141H26.9579V18.7664H28.5748V17.141ZM28.0172 12.2646C26.045 8.84226 22.363 6.53981 18.1458 6.53981C11.8497 6.53981 6.7459 11.6708 6.7459 17.9999C6.7459 20.0764 7.29538 22.0236 8.25572 23.7031C10.2229 27.1436 13.9153 29.4602 18.1458 29.4602L18.2728 29.4595C22.441 29.4138 26.0725 27.1184 28.023 23.725L23.0688 20.8397C23.0767 20.8259 23.0846 20.812 23.0924 20.7981L23.0687 20.8397L23.0688 20.8397C22.0891 22.5524 20.2519 23.7066 18.1458 23.7066C16.0358 23.7066 14.1963 22.5484 13.2178 20.8311C12.7425 19.9967 12.4692 19.0306 12.4692 17.9999C12.4692 14.8483 15.0108 12.2934 18.1458 12.2934L18.2106 12.2937C20.2664 12.3169 22.0585 13.4398 23.0361 15.1037L27.9979 12.2317L28.0172 12.2646Z" fill="#A6A6A6"/>
</svg>
