<svg width="32" height="30" viewBox="0 0 32 30" fill="none" xmlns="http://www.w3.org/2000/svg">
<path d="M26.4551 10.6846V12.812H28.5713V10.6846H29.6294V12.812H31.7457V13.8757H29.6294V16.0031H31.7457V17.0668H29.6294V19.1943H28.5713V17.0668H26.4551V19.1943H25.397V17.0668H23.2808V16.0031H25.397V13.8757H23.2808V12.812H25.397V10.6846H26.4551ZM28.5713 13.8757H26.4551V16.0031H28.5713V13.8757Z" fill="#A6A6A6"/>
<path d="M14.9211 0C20.441 0 25.2602 3.01362 27.8415 7.49306L27.8163 7.44995L21.3219 11.2091C20.0424 9.03121 17.6967 7.56145 15.0059 7.53118L14.9211 7.53071C10.8178 7.53071 7.49107 10.8748 7.49107 14.9999C7.49107 16.3489 7.84883 17.6134 8.47099 18.7056C9.7517 20.9533 12.1593 22.4693 14.9211 22.4693C17.7 22.4693 20.1213 20.934 21.3956 18.6623L21.3646 18.7168L27.8492 22.4934C25.2962 26.9349 20.543 29.9392 15.0873 29.9991L14.9211 30C9.38393 30 4.55097 26.9678 1.97618 22.4647C0.719203 20.2663 0 17.7177 0 14.9999C0 6.7158 6.68028 0 14.9211 0Z" fill="#A6A6A6"/>
</svg>
