<svg width="39" height="36" viewBox="0 0 39 36" fill="none" xmlns="http://www.w3.org/2000/svg">
<path fill-rule="evenodd" clip-rule="evenodd" d="M2.7 0C1.20883 0 0 1.20884 0 2.7V33.26C0 34.7512 1.20883 35.96 2.7 35.96H35.32C36.8112 35.96 38.02 34.7512 38.02 33.26V2.7C38.02 1.20883 36.8112 0 35.32 0H2.7ZM5.41737 18.5C5.41737 24.8411 10.5777 30 16.9207 30C21.0139 30 24.8312 27.798 26.8828 24.2532L21.9045 21.3733C20.8775 23.1478 18.9679 24.25 16.9207 24.25C13.7492 24.25 11.169 21.6705 11.169 18.5C11.169 15.3294 13.7492 12.75 16.9207 12.75C18.9676 12.75 20.8773 13.8522 21.9041 15.6264L26.8825 12.7464C24.8308 9.20191 21.0136 7 16.9207 7C10.5777 7 5.41737 12.1589 5.41737 18.5ZM28.4239 17.8611H27.1457V16.5833H25.8677V17.8611H24.5894V19.1388H25.8677V20.4167H27.1457V19.1388H28.4239V17.8611ZM31.939 17.8611H33.2172V19.1388H31.939V20.4167H30.661V19.1388H29.3828V17.8611H30.661V16.5833H31.939V17.8611Z" fill="#A6A6A6"/>
</svg>
