<svg width="32" height="26" viewBox="0 0 32 26" fill="none" xmlns="http://www.w3.org/2000/svg">
<path d="M32 11.304C31.9833 11.157 31.9512 11.0122 31.904 10.872V10.728C31.8271 10.5634 31.7245 10.4122 31.6 10.28L22 0.679951C21.8677 0.555497 21.7165 0.452881 21.552 0.375951H21.392C21.2364 0.292756 21.0692 0.233426 20.896 0.199951H4.8C3.52696 0.199951 2.30606 0.705664 1.40589 1.60584C0.505713 2.50601 0 3.72691 0 4.99995V21C0 22.273 0.505713 23.4939 1.40589 24.3941C2.30606 25.2942 3.52696 25.8 4.8 25.8H27.2C28.473 25.8 29.6939 25.2942 30.5941 24.3941C31.4943 23.4939 32 22.273 32 21V11.4C32 11.4 32 11.4 32 11.304ZM22.4 5.65595L26.544 9.79995H24C23.5757 9.79995 23.1687 9.63138 22.8686 9.33132C22.5686 9.03126 22.4 8.6243 22.4 8.19995V5.65595ZM28.8 21C28.8 21.4243 28.6314 21.8313 28.3314 22.1313C28.0313 22.4314 27.6243 22.6 27.2 22.6H4.8C4.37565 22.6 3.96869 22.4314 3.66863 22.1313C3.36857 21.8313 3.2 21.4243 3.2 21V4.99995C3.2 4.5756 3.36857 4.16864 3.66863 3.86858C3.96869 3.56852 4.37565 3.39995 4.8 3.39995H19.2V8.19995C19.2 9.47299 19.7057 10.6939 20.6059 11.5941C21.5061 12.4942 22.727 13 24 13H28.8V21ZM8 13H14.4C14.8243 13 15.2313 12.8314 15.5314 12.5313C15.8314 12.2313 16 11.8243 16 11.4C16 10.9756 15.8314 10.5686 15.5314 10.2686C15.2313 9.96852 14.8243 9.79995 14.4 9.79995H8C7.57565 9.79995 7.16869 9.96852 6.86863 10.2686C6.56857 10.5686 6.4 10.9756 6.4 11.4C6.4 11.8243 6.56857 12.2313 6.86863 12.5313C7.16869 12.8314 7.57565 13 8 13ZM8 16.2C7.57565 16.2 7.16869 16.3685 6.86863 16.6686C6.56857 16.9686 6.4 17.3756 6.4 17.8C6.4 18.2243 6.56857 18.6313 6.86863 18.9313C7.16869 19.2314 7.57565 19.4 8 19.4H24C24.4243 19.4 24.8313 19.2314 25.1314 18.9313C25.4314 18.6313 25.6 18.2243 25.6 17.8C25.6 17.3756 25.4314 16.9686 25.1314 16.6686C24.8313 16.3685 24.4243 16.2 24 16.2H8Z" fill="#A6A6A6"/>
</svg>
