<svg width="39" height="36" viewBox="0 0 39 36" fill="none" xmlns="http://www.w3.org/2000/svg">
<path fill-rule="evenodd" clip-rule="evenodd" d="M2.7 0C1.20883 0 0 1.20884 0 2.7V33.26C0 34.7512 1.20883 35.96 2.7 35.96H35.32C36.8112 35.96 38.02 34.7512 38.02 33.26V2.7C38.02 1.20883 36.8112 0 35.32 0H2.7ZM8.6 7.6H29.4C30.4833 7.6 31.4173 8.2714 31.8066 9.21863C31.6739 9.2447 31.5444 9.29824 31.4265 9.38077L19 18.0793L6.57346 9.38077C6.45557 9.29824 6.32606 9.24469 6.19339 9.21862C6.58267 8.2714 7.51674 7.6 8.6 7.6ZM19.5735 20.1192L32 11.4207V25.8C32 27.23 30.83 28.4 29.4 28.4H8.6C7.17 28.4 6 27.23 6 25.8V11.4207L18.4265 20.1192C18.7709 20.3603 19.2291 20.3603 19.5735 20.1192Z" fill="#A6A6A6"/>
</svg>
