<svg width="34" height="50" viewBox="0 0 34 50" fill="none" xmlns="http://www.w3.org/2000/svg">
<g clip-path="url(#clip0)">
<path d="M16.6666 25C16.6666 20.3973 20.3973 16.6666 25 16.6666C29.6026 16.6666 33.3333 20.3973 33.3333 25C33.3333 29.6026 29.6026 33.3333 25 33.3333C20.3973 33.3333 16.6666 29.6026 16.6666 25Z" fill="#A6A6A6"/>
<path d="M0 41.6667C0 37.0641 3.7307 33.3334 8.33333 33.3334H16.6667V41.6667C16.6667 46.2693 12.936 50 8.33333 50C3.7307 50 0 46.2693 0 41.6667Z" fill="#A6A6A6"/>
<path d="M16.6666 0V16.6667H25C29.6026 16.6667 33.3333 12.936 33.3333 8.33333C33.3333 3.7307 29.6026 0 25 0H16.6666Z" fill="#A6A6A6"/>
<path d="M0 8.33333C0 12.936 3.7307 16.6667 8.33333 16.6667H16.6667V0H8.33333C3.7307 0 0 3.7307 0 8.33333Z" fill="#A6A6A6"/>
<path d="M0 25C0 29.6026 3.7307 33.3333 8.33333 33.3333H16.6667V16.6666H8.33333C3.7307 16.6666 0 20.3973 0 25Z" fill="#A6A6A6"/>
</g>
<defs>
<clipPath id="clip0">
<rect width="33.3333" height="50" fill="white"/>
</clipPath>
</defs>
</svg>
