<svg width="39" height="36" viewBox="0 0 39 36" fill="none" xmlns="http://www.w3.org/2000/svg">
<path fill-rule="evenodd" clip-rule="evenodd" d="M2.7 0C1.20883 0 0 1.20884 0 2.7V33.26C0 34.7512 1.20883 35.96 2.7 35.96H35.32C36.8112 35.96 38.02 34.7512 38.02 33.26V2.7C38.02 1.20883 36.8112 0 35.32 0H2.7ZM19.5 18.0198V21.6666V21.6667V25.3333C19.5 27.3585 17.8212 29 15.75 29C13.6788 29 12 27.3585 12 25.3333C12 23.3132 13.6705 21.6748 15.7345 21.6667C13.6705 21.6585 12 20.0201 12 18C12 15.9749 13.6788 14.3334 15.75 14.3334H19.5V17.9803C19.5109 15.9642 21.1855 14.3334 23.2499 14.3334C25.3211 14.3334 26.9999 15.9749 26.9999 18C26.9999 20.0252 25.3211 21.6667 23.2499 21.6667C21.1855 21.6667 19.5109 20.0359 19.5 18.0198ZM19.5 7H23.2499C25.3211 7 26.9999 8.64151 26.9999 10.6667C26.9999 12.6918 25.3211 14.3333 23.2499 14.3333H19.5H19.4999H15.75C13.6788 14.3333 12 12.6918 12 10.6667C12 8.64151 13.6788 7 15.75 7H19.4999H19.5Z" fill="#A6A6A6"/>
</svg>
