<svg width="39" height="36" viewBox="0 0 39 36" fill="none" xmlns="http://www.w3.org/2000/svg">
<path fill-rule="evenodd" clip-rule="evenodd" d="M2.7 0C1.20883 0 0 1.20883 0 2.7V33.2583C0 34.7495 1.20883 35.9583 2.7 35.9583H35.3228C36.814 35.9583 38.0228 34.7495 38.0228 33.2583V2.7C38.0228 1.20883 36.814 0 35.3228 0H2.7ZM10.576 8.17738C12.927 6.12644 15.9131 5.00013 18.9999 5C22.0844 5.00165 25.068 6.12715 27.418 8.1756C29.768 10.2241 31.3315 13.0621 31.8294 16.1832C32.3273 19.3042 31.7272 22.5051 30.1362 25.2145C28.5452 27.9239 26.0669 29.9654 23.1437 30.9745C22.4937 31.1078 22.2499 30.6913 22.2499 30.3414C22.2499 30.191 22.2517 29.9307 22.2541 29.5841C22.259 28.8942 22.2662 27.8626 22.2662 26.676C22.301 26.2245 22.2407 25.7706 22.0893 25.3451C21.9379 24.9197 21.6989 24.5326 21.3887 24.2102C24.2811 23.8769 27.3199 22.744 27.3199 17.6291C27.3412 16.3038 26.864 15.0211 25.9874 14.047C26.3849 12.8957 26.3384 11.6321 25.8574 10.5148C25.8574 10.5148 24.7686 10.1483 22.2824 11.881C20.1553 11.2812 17.9096 11.2812 15.7825 11.881C13.2962 10.1649 12.2075 10.5148 12.2075 10.5148C11.7266 11.6322 11.6801 12.8956 12.0775 14.047C11.2035 15.0227 10.7267 16.3044 10.745 17.6291C10.745 22.7273 13.7675 23.8769 16.66 24.2102C16.182 24.6817 15.8875 25.3152 15.8312 25.9928C15.5123 26.1761 15.1613 26.293 14.7982 26.3369C14.4352 26.3808 14.0672 26.3508 13.7155 26.2486C13.3638 26.1465 13.0352 25.9742 12.7485 25.7416C12.4619 25.509 12.2228 25.2207 12.045 24.8932C11.8434 24.5176 11.5566 24.1973 11.2086 23.9594C10.8607 23.7216 10.462 23.5733 10.0462 23.5271C8.95751 23.5437 9.60751 24.1601 10.0625 24.4101C10.6492 24.9174 11.1065 25.5636 11.395 26.2928C11.655 27.0425 12.5 28.4753 15.7662 27.8589C15.7662 28.5873 15.7732 29.2873 15.778 29.7738C15.7805 30.0329 15.7825 30.2314 15.7825 30.3414C15.7825 30.6913 15.5387 31.0911 14.8887 30.9745C11.9603 29.9735 9.47489 27.9368 7.87709 25.2288C6.2793 22.5208 5.67343 19.3183 6.16791 16.1942C6.66238 13.0701 8.22493 10.2283 10.576 8.17738Z" fill="#A6A6A6"/>
</svg>
