<svg width="37" height="36" viewBox="0 0 37 36" fill="none" xmlns="http://www.w3.org/2000/svg">
<path d="M18.519 0C14.1368 0.00018172 9.89759 1.55968 6.55996 4.39945C3.22233 7.23923 1.00407 11.174 0.30209 15.4996C-0.399889 19.8253 0.460223 24.2596 2.72853 28.0091C4.99683 31.7586 8.5253 34.5787 12.6826 35.9647C13.6054 36.1262 13.9514 35.5725 13.9514 35.088C13.9514 34.6497 13.9283 33.1964 13.9283 31.6508C9.2914 32.5043 8.09181 30.5204 7.7227 29.4823C7.31314 28.4727 6.66388 27.578 5.83104 26.8755C5.18511 26.5294 4.26234 25.6759 5.80795 25.6528C6.39813 25.7169 6.96417 25.9223 7.45811 26.2515C7.95206 26.5808 8.35935 27.0243 8.64547 27.5445C8.89788 27.9979 9.23729 28.3971 9.64425 28.7191C10.0512 29.0412 10.5177 29.2798 11.017 29.4212C11.5163 29.5626 12.0387 29.6042 12.5541 29.5434C13.0695 29.4826 13.5678 29.3207 14.0205 29.067C14.1004 28.1288 14.5186 27.2516 15.1971 26.5987C11.0908 26.1373 6.79994 24.5455 6.79994 17.4864C6.77401 15.6522 7.45083 13.8776 8.69161 12.5266C8.12739 10.9324 8.19341 9.18299 8.87616 7.63592C8.87616 7.63592 10.4217 7.15145 13.9514 9.52758C16.9712 8.69705 20.1592 8.69705 23.179 9.52758C26.7085 7.1284 28.2542 7.63592 28.2542 7.63592C28.937 9.18297 29.003 10.9324 28.4387 12.5266C29.6832 13.8753 30.3607 15.6515 30.3304 17.4864C30.3304 24.5686 26.0164 26.1373 21.9102 26.5987C22.3506 27.0451 22.6898 27.5811 22.9048 28.1702C23.1197 28.7593 23.2054 29.3878 23.1559 30.0129C23.1559 32.4813 23.1328 34.4652 23.1328 35.0881C23.1328 35.5726 23.4789 36.1493 24.4016 35.9647C28.5516 34.5674 32.0699 31.7408 34.3286 27.9893C36.5872 24.2379 37.4391 19.8059 36.7323 15.4844C36.0255 11.1629 33.8058 7.2333 30.4697 4.39699C27.1335 1.56067 22.8979 0.00227905 18.519 0Z" fill="#A6A6A6"/>
</svg>
