<svg width="51" height="50" viewBox="0 0 51 50" fill="none" xmlns="http://www.w3.org/2000/svg">
<path fill-rule="evenodd" clip-rule="evenodd" d="M0.333374 0H50.3334V50H0.333374V0ZM13.4802 41.7836L13.4803 41.7836C14.5879 44.1327 16.7698 46.0793 20.5284 46.0793C24.6904 46.0793 27.5431 43.8641 27.5431 38.9975V22.9548H22.8443V38.931C22.8443 41.2802 21.8709 41.8842 20.327 41.8842C18.7162 41.8842 18.0447 40.7768 17.3066 39.468L13.4803 41.7836L13.4801 41.7833L13.4802 41.7836ZM33.9211 39.065L30.0953 41.2801C31.4712 43.9988 34.2906 46.0796 38.6537 46.0796C43.1175 46.0796 46.4402 43.764 46.4402 39.5348C46.4402 35.6081 44.1914 33.863 40.1974 32.1512L39.0228 31.6477C37.0092 30.775 36.1365 30.2043 36.1365 28.7946C36.1365 27.6537 37.0092 26.7811 38.3853 26.7811C39.7278 26.7811 40.6002 27.3516 41.4057 28.7946L45.0641 26.4454C43.5204 23.7267 41.3724 22.6862 38.3852 22.6862C34.1897 22.6862 31.5047 25.3713 31.5047 28.8954C31.5047 32.7217 33.7535 34.5341 37.1436 35.977L38.3179 36.4808C40.466 37.4203 41.7414 37.9909 41.7414 39.6019C41.7414 40.9445 40.4999 41.9179 38.5529 41.9179C36.2372 41.9179 34.9283 40.7097 33.9211 39.065Z" fill="#A6A6A6"/>
</svg>
