<svg width="39" height="36" viewBox="0 0 39 36" fill="none" xmlns="http://www.w3.org/2000/svg">
<path d="M35.2539 0.000251692H2.87358C2.50959 -0.00450856 2.14818 0.0582964 1.80997 0.18508C1.47177 0.311863 1.16339 0.500142 0.902468 0.739163C0.641542 0.978184 0.433172 1.26327 0.289259 1.57813C0.145345 1.89299 0.0687066 2.23146 0.0637207 2.57422V33.4258C0.0687066 33.7685 0.145345 34.107 0.289259 34.4219C0.433172 34.7367 0.641542 35.0218 0.902468 35.2608C1.16339 35.4999 1.47177 35.6881 1.80997 35.8149C2.14818 35.9417 2.50959 36.0045 2.87358 35.9997H35.2539C35.6178 36.0045 35.9793 35.9417 36.3175 35.8149C36.6557 35.6881 36.964 35.4999 37.225 35.2608C37.4859 35.0218 37.6943 34.7367 37.8382 34.4219C37.9821 34.107 38.0587 33.7685 38.0637 33.4258V2.57422C38.0587 2.23146 37.9821 1.89299 37.8382 1.57813C37.6943 1.26327 37.4859 0.978184 37.225 0.739163C36.964 0.500142 36.6557 0.311863 36.3175 0.18508C35.9793 0.0582964 35.6178 -0.00450856 35.2539 0.000251692ZM11.5899 30.1318H5.85547V13.9321H11.5899V30.1318ZM8.72267 11.6641C7.93183 11.6641 7.17337 11.3683 6.61416 10.8417C6.05495 10.3151 5.74078 9.60085 5.74078 8.85613C5.74078 8.11141 6.05495 7.39719 6.61416 6.8706C7.17337 6.34401 7.93183 6.04817 8.72267 6.04817C9.14262 6.00332 9.56788 6.0425 9.97062 6.16316C10.3734 6.28381 10.7445 6.4832 11.0597 6.74829C11.375 7.01337 11.6272 7.33817 11.7999 7.70141C11.9726 8.06465 12.0619 8.45815 12.0619 8.85613C12.0619 9.25411 11.9726 9.6476 11.7999 10.0108C11.6272 10.3741 11.375 10.6989 11.0597 10.964C10.7445 11.2291 10.3734 11.4284 9.97062 11.5491C9.56788 11.6698 9.14262 11.7089 8.72267 11.6641ZM32.272 30.1318H26.5376V21.438C26.5376 19.26 25.7156 17.838 23.6321 17.838C22.9873 17.8424 22.3595 18.0329 21.8331 18.3837C21.3068 18.7345 20.9073 19.2288 20.6885 19.8C20.5389 20.223 20.4741 20.6686 20.4973 21.114V30.1138H14.7629C14.7629 30.1138 14.7629 15.39 14.7629 13.9141H20.4973V16.2C21.0183 15.3488 21.7759 14.6476 22.6887 14.1718C23.6015 13.6961 24.6348 13.4638 25.6774 13.5001C29.5003 13.5001 32.272 15.822 32.272 20.808V30.1318Z" fill="#A6A6A6"/>
</svg>
