<svg width="39" height="36" viewBox="0 0 39 36" fill="none" xmlns="http://www.w3.org/2000/svg">
<path fill-rule="evenodd" clip-rule="evenodd" d="M2.7 0C1.20883 0 0 1.20884 0 2.7V33.26C0 34.7512 1.20883 35.96 2.7 35.96H35.32C36.8112 35.96 38.02 34.7512 38.02 33.26V2.7C38.02 1.20883 36.8112 0 35.32 0H2.7ZM11 14L17.6667 8.66667V27.3333L11 22H5.66667V14H11ZM29.6667 19.4142L26.3738 22.7071C25.9832 23.0976 25.3501 23.0976 24.9596 22.7071C24.569 22.3166 24.569 21.6834 24.9596 21.2929L28.2525 18L24.9596 14.7071C24.569 14.3166 24.569 13.6834 24.9596 13.2929C25.3501 12.9024 25.9832 12.9024 26.3738 13.2929L29.6667 16.5858L32.9596 13.2929C33.3501 12.9024 33.9832 12.9024 34.3738 13.2929C34.7643 13.6834 34.7643 14.3166 34.3738 14.7071L31.0809 18L34.3738 21.2929C34.7643 21.6834 34.7643 22.3166 34.3738 22.7071C33.9832 23.0976 33.3501 23.0976 32.9596 22.7071L29.6667 19.4142Z" fill="#A6A6A6"/>
</svg>
