<svg width="39" height="36" viewBox="0 0 39 36" fill="none" xmlns="http://www.w3.org/2000/svg">
<path fill-rule="evenodd" clip-rule="evenodd" d="M2.7 0C1.20883 0 0 1.20884 0 2.7V33.26C0 34.7512 1.20883 35.96 2.7 35.96H35.32C36.8112 35.96 38.02 34.7512 38.02 33.26V2.7C38.02 1.20883 36.8112 0 35.32 0H2.7ZM18.6321 11.0804L18.6424 3.69695C18.3165 3.64998 16.4192 4.80864 15.51 5.36385C15.3327 5.4721 15.193 5.55741 15.1099 5.60637L15.11 5.60642L12.1846 7.27183L12.1847 7.27186C10.3536 8.31035 8.53013 9.3622 6.7143 10.4274C6.45696 10.5779 6.32829 10.805 6.32829 11.1089C6.32065 15.4784 6.31913 19.8478 6.32371 24.2172C6.32371 24.544 6.46841 24.7907 6.75782 24.9572C8.49731 25.9598 10.241 26.9547 11.9889 27.9421L11.9887 27.9422L15.2818 29.8321C15.2806 29.7688 15.3399 29.7376 15.4596 29.7383C15.3401 29.7376 15.2809 29.7689 15.2822 29.8321C16.3802 30.4964 17.4987 31.1073 18.638 31.6647V31.6648C18.6381 31.6648 18.6381 31.6648 18.6382 31.6648C18.6383 31.6648 18.6383 31.6648 18.6383 31.6648V31.6648C18.7496 31.6442 18.8366 31.6167 18.8991 31.5824C20.8471 30.508 22.7852 29.4126 24.7133 28.2961C24.6707 28.2846 24.6288 28.2769 24.5875 28.2729C24.6289 28.2769 24.671 28.2846 24.7136 28.2962L30.6698 24.8897C30.8905 24.7637 31.0008 24.58 31.0008 24.3387L31.002 10.9372C31.002 10.7265 30.9054 10.5661 30.7122 10.4562L24.7033 7.01874C24.6366 7.051 24.5785 7.06222 24.5289 7.05242C24.5784 7.06212 24.6364 7.05087 24.703 7.01867C24.1351 6.69308 23.5095 6.32624 22.882 5.95825L22.8818 5.95815L22.8817 5.9581L22.8816 5.95804C20.9218 4.80884 18.9427 3.64835 18.6425 3.69694L18.6322 11.0804L24.9878 11.0758L24.9896 11.0758C25.8934 11.1537 26.363 11.7207 26.3642 12.5924C26.3649 15.1726 26.3645 17.7529 26.363 20.3332C26.3619 21.4087 25.4593 21.8944 24.4444 21.7203C24.1313 21.789 23.816 21.8173 23.4983 21.805C23.4135 21.802 23.4101 21.8176 23.488 21.852L23.5166 21.8646C23.5312 21.8709 23.5439 21.8809 23.5534 21.8938C23.5629 21.9067 23.5688 21.9219 23.5705 21.9379C23.643 22.5862 23.6014 23.2265 23.4456 23.8588L23.4101 24.396L23.4387 24.5793C23.4409 24.5937 23.4459 24.6077 23.4536 24.6203C23.4613 24.6328 23.4714 24.6438 23.4834 24.6526C23.6347 24.7675 23.6059 27.0128 23.593 28.0168C23.5905 28.2142 23.5886 28.3635 23.5888 28.4394C23.5888 28.5302 23.6107 28.5775 23.6545 28.5812C23.6105 28.5777 23.5885 28.5304 23.5885 28.4393C23.5883 28.3635 23.5902 28.2141 23.5927 28.0168C23.6056 27.0128 23.6344 24.7674 23.4831 24.6525C23.4711 24.6438 23.461 24.6328 23.4533 24.6202C23.4456 24.6076 23.4406 24.5937 23.4384 24.5792L23.4098 24.396C23.2093 24.8507 22.8989 24.9973 22.3892 24.9973H18.6326V24.9973L15.3681 25.0019C15.4391 25.053 15.5216 25.082 15.6155 25.0889C15.6207 25.0893 15.6256 25.091 15.6299 25.0939C15.6323 25.0955 15.6344 25.0974 15.6362 25.0995C15.6377 25.1013 15.639 25.1032 15.64 25.1053C15.6423 25.1099 15.6434 25.1151 15.6431 25.1202C15.6428 25.1254 15.6412 25.1304 15.6384 25.1347C15.6247 25.1576 15.63 25.1825 15.6544 25.2092C15.6743 25.2305 15.6853 25.2583 15.6854 25.2871L15.6796 29.6305C15.6796 29.6466 15.6761 29.6625 15.6695 29.6771C15.6629 29.6918 15.6533 29.7049 15.6413 29.7156C15.6294 29.7263 15.6152 29.7343 15.5999 29.7392C15.5879 29.743 15.5754 29.7449 15.5628 29.7446C15.5753 29.7448 15.5877 29.743 15.5996 29.7392C15.6149 29.7343 15.629 29.7263 15.641 29.7156C15.653 29.7049 15.6626 29.6918 15.6692 29.6771C15.6758 29.6625 15.6792 29.6466 15.6793 29.6305L15.685 25.2871C15.685 25.2583 15.674 25.2305 15.6541 25.2092C15.6297 25.1825 15.6243 25.1576 15.6381 25.1347C15.6409 25.1304 15.6425 25.1254 15.6428 25.1202C15.6429 25.1178 15.6427 25.1153 15.6423 25.1129C15.6421 25.1119 15.6418 25.111 15.6415 25.11C15.641 25.1084 15.6404 25.1068 15.6397 25.1053C15.6374 25.1007 15.6339 25.0967 15.6296 25.0939C15.6253 25.091 15.6203 25.0893 15.6152 25.0889C15.5212 25.082 15.4388 25.053 15.3677 25.0019C15.2998 25.0012 15.2301 25.0024 15.1597 25.0037H15.1597H15.1596C14.8825 25.0088 14.5952 25.0141 14.3632 24.8999C13.6164 24.5334 13.7619 23.4384 14.5934 23.2276C14.7187 23.1963 15.1119 23.1848 15.7732 23.1932L15.9084 23.1531C15.9248 23.1482 15.929 23.1455 15.9212 23.1448C15.9294 23.1454 15.9252 23.1482 15.9087 23.1532L15.7735 23.1933L17.628 23.1875C17.658 23.1875 17.6869 23.1755 17.7081 23.154C17.7294 23.1325 17.7413 23.1034 17.7413 23.073L17.7769 17.4421C17.7771 17.4139 17.7669 17.3867 17.7483 17.3656C17.7297 17.3444 17.704 17.3309 17.6761 17.3275C17.3454 17.2893 17.0247 17.284 16.7139 17.3115C16.4367 17.3367 16.0415 17.2863 16.3279 16.8808C16.3832 16.8022 16.4792 16.6599 16.6016 16.4783L16.6017 16.4783C17.1788 15.6225 18.3451 13.8929 18.6324 13.8294C18.889 13.8704 20.1669 15.7125 20.7679 16.5789C20.8903 16.7553 20.9846 16.8912 21.0365 16.9633C21.1304 17.095 21.0995 17.2725 20.9231 17.2725C20.3236 17.2702 19.9014 17.276 19.6562 17.2897C19.6272 17.2912 19.5998 17.3039 19.5797 17.3252C19.5597 17.3465 19.5485 17.3748 19.5486 17.4042V23.0707C19.5486 23.1007 19.5603 23.1294 19.5813 23.1509C19.6023 23.1723 19.6308 23.1846 19.6608 23.1852C20.5825 23.2074 21.5072 23.2203 22.435 23.2242C22.9608 23.2264 23.2265 23.4097 23.4453 23.8587C23.6011 23.2264 23.6427 22.5862 23.5702 21.9378C23.5684 21.9219 23.5626 21.9066 23.5531 21.8938C23.5436 21.8809 23.5309 21.8708 23.5163 21.8645L23.4877 21.8519C23.4098 21.8176 23.4132 21.8019 23.498 21.805C23.8157 21.8172 24.131 21.7889 24.4441 21.7202C23.0192 21.7431 22.151 21.7477 21.8394 21.734C20.6837 21.6836 20.6207 19.9322 22.0628 19.9299C22.8615 19.9284 23.6557 19.9276 24.4453 19.9276C24.4756 19.9276 24.5048 19.9156 24.5263 19.8941C24.5477 19.8726 24.5598 19.8435 24.5598 19.8131V12.9714C24.5598 12.9411 24.5477 12.9119 24.5263 12.8905C24.5048 12.869 24.4756 12.8569 24.4453 12.8569L18.6611 12.8603L18.6325 12.8512L15.6601 12.8581L15.683 19.5107C15.683 19.5374 15.6928 19.5634 15.7105 19.584C15.7227 19.5985 15.743 19.618 15.7664 19.6404L15.7665 19.6405L15.7665 19.6405C15.8821 19.7513 16.0735 19.9348 15.7403 19.9528C17.0392 19.8795 17.3049 21.5312 16.0266 21.7661C15.6387 22.0883 15.5555 22.4785 15.7769 22.9367C15.7884 22.9603 15.7914 22.987 15.7856 23.0125C15.7797 23.0379 15.7654 23.0605 15.7449 23.0764C15.701 23.111 15.7071 23.1328 15.7629 23.142C15.7068 23.1329 15.7007 23.111 15.7446 23.0764C15.7651 23.0605 15.7795 23.0379 15.7853 23.0124C15.7911 22.987 15.7881 22.9603 15.7767 22.9367C15.5552 22.4785 15.6385 22.0883 16.0264 21.766L13.7642 21.7569L12.7621 21.766L12.7621 21.766C11.737 21.8588 11.0131 21.3021 11.0131 20.2804C11.0146 17.736 11.0158 15.1947 11.0165 12.6564C11.0177 11.8374 11.3052 11.2831 12.1322 11.1135L12.2751 11.0758H16.0264L18.6321 11.0804ZM12.2751 11.0758L12.2753 11.0757L12.6545 11.0528C12.663 11.0523 12.6713 11.0509 12.6794 11.0486C12.6712 11.0509 12.6628 11.0524 12.6542 11.0529L12.2751 11.0758ZM12.3175 27.9332C12.3096 27.9344 12.3015 27.9347 12.2935 27.9341C12.2762 27.9329 12.2594 27.9278 12.2444 27.9192C12.1958 27.8912 12.1486 27.8805 12.1029 27.8872C12.1486 27.8806 12.1956 27.8913 12.2442 27.9193C12.2592 27.9279 12.2759 27.9329 12.2932 27.9341C12.3013 27.9347 12.3095 27.9344 12.3175 27.9332ZM15.5724 5.57129C15.5528 5.57048 15.5332 5.57468 15.5155 5.58348C15.429 5.62746 15.3431 5.64667 15.2578 5.64108C15.343 5.64663 15.4289 5.62743 15.5154 5.58347C15.533 5.57467 15.5526 5.57047 15.5723 5.57128L15.5724 5.57129ZM23.6742 6.81598C23.6904 6.81226 23.7072 6.81214 23.7234 6.81562C23.7073 6.81221 23.6906 6.81235 23.6745 6.81604C23.6579 6.81986 23.6423 6.8274 23.629 6.83808C23.6156 6.84876 23.6049 6.86232 23.5975 6.87773C23.5902 6.89315 23.5864 6.91002 23.5865 6.9271V10.9166C23.5865 10.9464 23.5981 10.975 23.6188 10.9964C23.6347 11.0128 23.6549 11.0239 23.6768 11.0286C23.6548 11.0239 23.6344 11.0128 23.6185 10.9964C23.5978 10.975 23.5862 10.9464 23.5862 10.9166V6.92704C23.5861 6.90996 23.5899 6.89308 23.5972 6.87767C23.6046 6.86226 23.6153 6.8487 23.6287 6.83802C23.642 6.82734 23.6576 6.8198 23.6742 6.81598ZM12.9978 12.8535L15.6598 12.858L15.6827 19.5107C15.6827 19.5373 15.6925 19.5633 15.7102 19.584C15.7224 19.5985 15.7427 19.618 15.7662 19.6405C15.8818 19.7512 16.0732 19.9347 15.74 19.9528L13.8466 19.9711L12.9589 19.9425C12.9291 19.9416 12.9009 19.9291 12.8801 19.9078C12.8594 19.8864 12.8478 19.8578 12.8478 19.828V12.9691C12.8478 12.9394 12.8592 12.9107 12.8798 12.8893C12.9003 12.868 12.9283 12.8555 12.9578 12.8546L12.9978 12.8535Z" fill="#A6A6A6"/>
</svg>
