<svg width="53" height="50" viewBox="0 0 53 50" fill="none" xmlns="http://www.w3.org/2000/svg">
<path fill-rule="evenodd" clip-rule="evenodd" d="M9.83455 0H42.9542C47.9756 0 52.0354 4.05983 52.0354 9.0812V40.9188C52.0354 45.9402 47.9756 50 42.9542 50H9.83455C4.81319 50 0.753357 45.9402 0.753357 40.9188V9.0812C0.753357 4.05983 4.81319 0 9.83455 0ZM12.2918 35.0641V13.0769C12.2918 12.9274 12.3559 12.8419 12.5055 12.8419H12.5055C12.8688 12.8419 13.2106 12.8419 13.7021 12.8205C13.9662 12.8095 14.2359 12.8042 14.5143 12.7987C14.7764 12.7935 15.0462 12.7881 15.326 12.7778C15.6244 12.7667 15.9342 12.7614 16.2555 12.7559C16.5553 12.7507 16.8652 12.7454 17.185 12.735C17.8474 12.7137 18.4884 12.7137 19.1294 12.7137C20.8816 12.7137 22.3346 12.9274 23.5311 13.3761C24.5995 13.7393 25.5824 14.3376 26.3944 15.1282C27.0781 15.812 27.6123 16.6453 27.9542 17.5641C28.2747 18.4615 28.4457 19.3803 28.4457 20.3419C28.4457 22.1795 28.0183 23.6966 27.1636 24.8932C26.3089 26.0897 25.1123 26.9872 23.7234 27.5C22.2704 28.0342 20.6679 28.2265 18.9157 28.2265C18.4029 28.2265 18.061 28.2265 17.8474 28.2051C17.6337 28.1838 17.3346 28.1838 16.9286 28.1838V35.0427C16.9499 35.1923 16.8431 35.3205 16.6935 35.3419H16.6081H12.5482C12.3773 35.3419 12.2918 35.2564 12.2918 35.0641ZM16.9499 16.9658V24.1453L17.014 24.1499C17.2888 24.1696 17.5452 24.188 17.7833 24.188H18.9157C19.7491 24.188 20.5824 24.0598 21.373 23.8034C22.0568 23.6111 22.6551 23.2051 23.1251 22.6709C23.5739 22.1368 23.7875 21.4103 23.7875 20.4701C23.8089 19.8077 23.638 19.1453 23.2961 18.5684C22.9328 18.0128 22.42 17.5855 21.8004 17.3504C21.0098 17.0299 20.1551 16.9017 19.279 16.9231C18.7234 16.9231 18.232 16.9231 17.826 16.9444C17.3987 16.9231 17.0995 16.9444 16.9499 16.9658ZM39.7276 22.1155C40.4541 22.2651 41.1379 22.5002 41.7789 22.842C41.8644 22.8848 41.9712 22.8848 42.1635 22.842C42.2276 22.7993 42.2704 22.7138 42.2704 22.6284V19.1455C42.2704 19.06 42.249 18.9745 42.2276 18.889C42.1849 18.8036 42.0994 18.7181 42.014 18.6967C41.4371 18.4617 40.8174 18.2908 40.1764 18.2053C39.3003 18.0771 38.4029 18.013 37.5268 18.013C36.0097 18.013 34.749 18.248 33.7447 18.7608C32.8259 19.1882 32.0353 19.872 31.5012 20.7267C31.0311 21.5173 30.7747 22.3933 30.7747 23.3121C30.7533 24.06 30.9242 24.8078 31.2661 25.4916C31.6721 26.2181 32.2276 26.8378 32.89 27.3078C33.8302 27.9489 34.8345 28.4617 35.9242 28.8463C36.9712 29.2523 37.6764 29.5728 38.0182 29.8506C38.3601 30.1284 38.5311 30.4061 38.5311 30.7053C38.5311 31.0899 38.296 31.4531 37.9541 31.6027C37.5695 31.795 36.9926 31.9019 36.1806 31.9019C35.3259 31.9019 34.4712 31.795 33.6593 31.5814C32.7191 31.3677 31.843 31.0258 31.0097 30.5343C30.9456 30.4916 30.8815 30.4702 30.8174 30.513C30.7533 30.5557 30.7319 30.6412 30.7319 30.7053V34.4232C30.7106 34.5942 30.8174 34.7437 30.967 34.8292C31.6507 35.1497 32.3986 35.3848 33.1465 35.513C34.108 35.7053 35.0695 35.7908 36.0524 35.7908C37.5909 35.7908 38.8729 35.5557 39.92 35.107C40.8815 34.7224 41.7148 34.06 42.3131 33.2053C42.8687 32.372 43.1678 31.3677 43.1465 30.3634C43.1678 29.5942 42.9969 28.8463 42.655 28.1626C42.249 27.4361 41.6721 26.8378 40.967 26.389C39.9413 25.748 38.8302 25.2138 37.6764 24.8292C37.1635 24.6155 36.6507 24.3805 36.1593 24.1241C35.8815 23.9745 35.6251 23.7822 35.4328 23.5472C35.3046 23.3762 35.2191 23.1839 35.2191 22.9916C35.2191 22.7993 35.2832 22.5856 35.39 22.4147C35.5396 22.201 35.7747 22.0514 36.0524 21.9873C36.4584 21.8805 36.9071 21.8164 37.3345 21.8378C38.1465 21.8378 38.937 21.9446 39.7276 22.1155Z" fill="#A6A6A6"/>
</svg>
