<svg width="39" height="36" viewBox="0 0 39 36" fill="none" xmlns="http://www.w3.org/2000/svg">
<path fill-rule="evenodd" clip-rule="evenodd" d="M0 2.7C0 1.20884 1.20883 0 2.7 0H35.32C36.8112 0 38.02 1.20883 38.02 2.7V33.26C38.02 34.7512 36.8112 35.96 35.32 35.96H2.7C1.20883 35.96 0 34.7512 0 33.26V2.7ZM6 26.7668V8.30501C6 8.17941 6.05556 8.10765 6.18518 8.10765C6.5 8.10765 6.7963 8.10765 7.22222 8.08971C7.45109 8.08047 7.68486 8.07599 7.92607 8.07136H7.92613C8.15333 8.06701 8.38712 8.06253 8.62963 8.05382C8.88824 8.04455 9.15676 8.04006 9.43519 8.03542L9.43538 8.03542C9.6952 8.03108 9.96366 8.0266 10.2407 8.01794C10.8148 8 11.3703 8 11.9259 8H11.9259C13.4444 8 14.7037 8.17941 15.7407 8.55618C16.6667 8.86119 17.5185 9.36355 18.2222 10.0274C18.8148 10.6015 19.2778 11.3012 19.5741 12.0727C19.8519 12.8263 20 13.5977 20 14.4051C20 15.9481 19.6296 17.2219 18.8889 18.2266C18.1481 19.2314 17.1111 19.9849 15.9074 20.4155C14.6481 20.864 13.2593 21.0255 11.7407 21.0255C11.2963 21.0255 11 21.0255 10.8148 21.0076C10.6296 20.9896 10.3704 20.9896 10.0185 20.9896V26.7488C10.037 26.8744 9.94444 26.9821 9.81481 27H9.74074H6.22222C6.07407 27 6 26.9282 6 26.7668ZM10.037 11.5703V17.5987L10.0925 17.6025L10.0926 17.6025C10.3308 17.6191 10.553 17.6346 10.7593 17.6346H11.7407C12.463 17.6346 13.1852 17.5269 13.8704 17.3116C14.463 17.1501 14.9815 16.8093 15.3889 16.3607C15.7778 15.9122 15.963 15.3022 15.963 14.5127C15.9815 13.9566 15.8333 13.4004 15.537 12.916C15.2222 12.4495 14.7778 12.0907 14.2407 11.8933C13.5556 11.6242 12.8148 11.5165 12.0556 11.5345C11.5741 11.5345 11.1481 11.5345 10.7963 11.5524C10.4259 11.5345 10.1667 11.5524 10.037 11.5703ZM29.9703 16.4615C30.6137 16.5877 31.2194 16.7861 31.7872 17.0745C31.8629 17.1106 31.9575 17.1106 32.1278 17.0745C32.1846 17.0385 32.2225 16.9663 32.2225 16.8942V13.9555C32.2225 13.8834 32.2035 13.8113 32.1846 13.7392C32.1468 13.6671 32.071 13.595 31.9953 13.5769C31.4843 13.3786 30.9355 13.2344 30.3677 13.1623C29.5917 13.0541 28.7968 13 28.0209 13C26.6771 13 25.5605 13.1983 24.671 13.631C23.8572 13.9916 23.1569 14.5685 22.6837 15.2897C22.2674 15.9567 22.0403 16.6959 22.0403 17.4712C22.0213 18.1022 22.1727 18.7332 22.4756 19.3101C22.8352 19.9231 23.3272 20.4459 23.9139 20.8425C24.7467 21.3834 25.6362 21.8161 26.6014 22.1406C27.5288 22.4832 28.1534 22.7536 28.4562 22.988C28.759 23.2224 28.9104 23.4567 28.9104 23.7091C28.9104 24.0337 28.7022 24.3401 28.3994 24.4663C28.0587 24.6286 27.5477 24.7188 26.8285 24.7188C26.0715 24.7188 25.3145 24.6286 24.5953 24.4483C23.7625 24.268 22.9866 23.9796 22.2484 23.5649C22.1917 23.5288 22.1349 23.5108 22.0781 23.5469C22.0213 23.5829 22.0024 23.655 22.0024 23.7091V26.8462C21.9835 26.9904 22.0781 27.1166 22.2106 27.1887C22.8162 27.4591 23.4786 27.6575 24.1411 27.7656C24.9927 27.9279 25.8444 28 26.715 28C28.0777 28 29.2132 27.8017 30.1406 27.4231C30.9923 27.0986 31.7304 26.5397 32.2603 25.8185C32.7524 25.1154 33.0173 24.268 32.9984 23.4207C33.0173 22.7716 32.8659 22.1406 32.5631 21.5637C32.2035 20.9507 31.6925 20.4459 31.068 20.0673C30.1595 19.5264 29.1754 19.0757 28.1534 18.7512C27.6991 18.5709 27.2449 18.3726 26.8096 18.1562C26.5636 18.03 26.3365 17.8678 26.1661 17.6695C26.0526 17.5252 25.9769 17.363 25.9769 17.2007C25.9769 17.0385 26.0337 16.8582 26.1283 16.7139C26.2608 16.5337 26.4689 16.4075 26.715 16.3534C27.0746 16.2632 27.472 16.2091 27.8505 16.2272C28.5697 16.2272 29.27 16.3173 29.9703 16.4615Z" fill="#A6A6A6"/>
</svg>
