<svg width="21" height="21" viewBox="0 0 21 21" fill="none" xmlns="http://www.w3.org/2000/svg">
<path d="M11.6593 12.1149L19.1214 12.1235C19.4486 12.1235 19.7624 11.9936 19.9937 11.7623C20.225 11.5309 20.355 11.2172 20.355 10.89C20.355 10.5628 20.225 10.2491 19.9937 10.0177C19.7624 9.78641 19.4486 9.65645 19.1214 9.65645L11.6593 9.66513L11.668 2.20302C11.668 1.87586 11.5381 1.5621 11.3067 1.33077C11.0754 1.09943 10.7616 0.969467 10.4345 0.969468C10.1073 0.969467 9.79355 1.09943 9.56221 1.33077C9.33088 1.5621 9.20091 1.87586 9.20091 2.20302L9.2096 9.66513L1.74749 9.65645C1.58531 9.65578 1.4246 9.68723 1.27464 9.74899C1.12468 9.81075 0.98843 9.90158 0.873752 10.0163C0.759073 10.1309 0.668236 10.2672 0.60648 10.4172C0.544723 10.5671 0.513271 10.7278 0.513936 10.89C0.513271 11.0522 0.544723 11.2129 0.606479 11.3628C0.668236 11.5128 0.759073 11.6491 0.873752 11.7637C0.98843 11.8784 1.12468 11.9692 1.27464 12.031C1.4246 12.0928 1.58531 12.1242 1.74749 12.1235L9.2096 12.1149L9.20092 19.577C9.20025 19.7392 9.2317 19.8999 9.29346 20.0498C9.35521 20.1998 9.44605 20.336 9.56073 20.4507C9.67541 20.5654 9.81166 20.6562 9.96162 20.718C10.1116 20.7797 10.2723 20.8112 10.4345 20.8105C10.5966 20.8112 10.7574 20.7797 10.9073 20.718C11.0573 20.6562 11.1935 20.5654 11.3082 20.4507C11.4229 20.336 11.5137 20.1998 11.5755 20.0498C11.6372 19.8999 11.6687 19.7392 11.668 19.577L11.6593 12.1149Z" fill="#171218"/>
</svg>
