<svg width="39" height="36" viewBox="0 0 39 36" fill="none" xmlns="http://www.w3.org/2000/svg">
<path fill-rule="evenodd" clip-rule="evenodd" d="M2 0.0415039C0.895431 0.0415039 0 0.936937 0 2.04151V33.9998C0 35.1044 0.895429 35.9998 2 35.9998H36.0228C37.1274 35.9998 38.0228 35.1044 38.0228 33.9998V2.0415C38.0228 0.936935 37.1274 0.0415039 36.0228 0.0415039H2ZM3 18C3 9.71586 10.1629 3 19 3C27.8384 3 35.0013 9.71586 35 18C35 26.2841 27.8371 33 19 33C10.1629 33 3 26.2841 3 18ZM10.712 23.1932L17.6099 26.9261V19.1555L10.712 15.6626V23.1932ZM10.6774 13.3276L18.8387 17.3833L27.0013 13.3276L18.8387 8.90953L10.6774 13.3276ZM20.1341 26.9273L27.0064 23.2076V15.7046L20.1341 19.1855V26.9273Z" fill="#A6A6A6"/>
</svg>
