<svg width="32" height="32" viewBox="0 0 32 32" fill="none" xmlns="http://www.w3.org/2000/svg">
<path d="M31.9463 12.2804C31.8454 11.9881 31.6619 11.7314 31.418 11.5414C31.1741 11.3514 30.8803 11.2362 30.5722 11.2099L21.4806 9.88366L17.4061 1.62291C17.2753 1.35276 17.071 1.12493 16.8167 0.965519C16.5623 0.806106 16.2682 0.721558 15.9681 0.721558C15.6679 0.721558 15.3738 0.806106 15.1195 0.965519C14.8652 1.12493 14.6609 1.35276 14.53 1.62291L10.4556 9.86768L1.36395 11.2099C1.06823 11.2519 0.790211 11.376 0.561444 11.568C0.332677 11.7601 0.162323 12.0124 0.0697128 12.2964C-0.0150599 12.5739 -0.0226672 12.8692 0.0477071 13.1507C0.118081 13.4322 0.263781 13.6892 0.469169 13.8942L7.06819 20.2855L5.47036 29.3612C5.41332 29.6607 5.44319 29.9703 5.55644 30.2535C5.66969 30.5366 5.8616 30.7814 6.10949 30.959C6.35111 31.1317 6.63609 31.2337 6.93245 31.2534C7.2288 31.2732 7.5248 31.21 7.78721 31.0708L15.9681 26.8046L24.117 31.0868C24.3412 31.2133 24.5945 31.2794 24.852 31.2785C25.1904 31.2797 25.5205 31.1734 25.7947 30.975C26.0426 30.7974 26.2345 30.5526 26.3477 30.2694C26.461 29.9863 26.4909 29.6767 26.4338 29.3771L24.836 20.3015L31.435 13.9102C31.6657 13.7147 31.8362 13.4578 31.9267 13.1693C32.0172 12.8809 32.024 12.5726 31.9463 12.2804ZM22.1197 18.6717C21.9323 18.8529 21.7921 19.0773 21.7114 19.3252C21.6306 19.573 21.6117 19.8369 21.6563 20.0938L22.8068 26.7887L16.7989 23.593C16.5678 23.4699 16.3099 23.4055 16.048 23.4055C15.7861 23.4055 15.5282 23.4699 15.297 23.593L9.28916 26.7887L10.4396 20.0938C10.4842 19.8369 10.4653 19.573 10.3846 19.3252C10.3038 19.0773 10.1636 18.8529 9.97623 18.6717L5.18275 13.8782L11.9096 12.9036C12.1684 12.8675 12.4145 12.7686 12.6262 12.6154C12.8379 12.4622 13.0088 12.2594 13.1239 12.0247L15.9681 5.93703L18.972 12.0407C19.0871 12.2753 19.258 12.4782 19.4697 12.6314C19.6814 12.7846 19.9275 12.8835 20.1863 12.9195L26.9132 13.8942L22.1197 18.6717Z" fill="#A6A6A6"/>
</svg>
