<svg width="39" height="36" viewBox="0 0 39 36" fill="none" xmlns="http://www.w3.org/2000/svg">
<path fill-rule="evenodd" clip-rule="evenodd" d="M2.7 0C1.20883 0 0 1.20884 0 2.7V33.26C0 34.7512 1.20883 35.96 2.7 35.96H35.32C36.8112 35.96 38.02 34.7512 38.02 33.26V2.7C38.02 1.20883 36.8112 0 35.32 0H2.7ZM18.986 31C13.1327 31 8.18326 27.1244 6.56149 21.8014L11.4778 23.83C11.7213 24.9372 12.4843 25.9079 13.6052 26.3747C14.4871 26.7411 15.4784 26.7425 16.3613 26.3786C17.2442 26.0147 17.9466 25.3153 18.3142 24.4339C18.5104 23.9644 18.605 23.4588 18.5918 22.9501L23.1345 19.7014L23.2461 19.7034C25.9673 19.7034 28.1791 17.485 28.1791 14.7602C28.1791 12.0353 25.9713 9.82511 23.2461 9.81943C20.5261 9.81943 18.313 12.0353 18.313 14.7602H18.3171L18.3183 14.8243L15.1405 19.4408C14.6259 19.4173 14.1097 19.5078 13.6194 19.7095C13.406 19.7962 13.2022 19.905 13.0115 20.0341L6.03296 17.1579L6.03284 17.16L6.02695 17.1501C6.47176 10.3802 12.1037 5.0259 18.986 5.0259C26.1585 5.0259 31.973 10.8404 31.973 18.013C31.973 25.1855 26.1585 31 18.986 31ZM17.5541 24.1149C16.964 25.5354 15.3357 26.2038 13.9206 25.6141C13.2926 25.3502 12.7835 24.8646 12.4904 24.2497L14.0963 24.9152C14.3444 25.0185 14.6104 25.0719 14.8791 25.0723C15.1478 25.0727 15.414 25.0202 15.6624 24.9177C15.9108 24.8153 16.1366 24.6648 16.3269 24.4751C16.5171 24.2853 16.6681 24.0599 16.7712 23.8118C16.98 23.3103 16.9813 22.7466 16.7747 22.2442C16.5681 21.7419 16.1705 21.3422 15.6694 21.1328L14.0054 20.4449C14.6458 20.2014 15.3739 20.1932 16.0549 20.4761C16.7448 20.7614 17.2724 21.2988 17.5549 21.9859C17.8374 22.673 17.8358 23.4307 17.5508 24.1149H17.5541ZM23.2505 18.0536C22.3786 18.0513 21.5431 17.7034 20.9271 17.0863C20.3111 16.4691 19.9648 15.633 19.964 14.761C19.965 13.8892 20.3114 13.0532 20.9274 12.4363C21.5433 11.8193 22.3787 11.4715 23.2505 11.4692C24.1225 11.4713 24.9581 11.819 25.5742 12.436C26.1904 13.053 26.5369 13.889 26.5379 14.761C26.5371 15.6331 26.1907 16.4694 25.5745 17.0865C24.9584 17.7037 24.1227 18.0515 23.2505 18.0536ZM20.7879 14.7557C20.7873 14.1006 21.0469 13.472 21.5096 13.0082C21.9723 12.5443 22.6003 12.2832 23.2554 12.2821C24.617 12.2821 25.7246 13.3901 25.7246 14.7557C25.7249 15.411 25.465 16.0396 25.0019 16.5033C24.5389 16.967 23.9107 17.2279 23.2554 17.2285C22.6003 17.2276 21.9724 16.9666 21.5097 16.5029C21.0469 16.0392 20.7875 15.4108 20.7879 14.7557Z" fill="#A6A6A6"/>
</svg>
