<svg width="32" height="32" viewBox="0 0 32 32" fill="none" xmlns="http://www.w3.org/2000/svg">
<path d="M28.0337 17.6462C27.6804 17.6462 27.3111 17.5338 26.9578 17.4535C26.2425 17.2959 25.5394 17.0866 24.8543 16.8273C24.1094 16.5563 23.2905 16.5703 22.5553 16.8668C21.8202 17.1632 21.2206 17.7211 20.872 18.433L20.5187 19.1556C18.9547 18.2856 17.5175 17.205 16.2474 15.9441C14.9865 14.674 13.9059 13.2368 13.0359 11.6728L13.7103 11.2231C14.4222 10.8746 14.9801 10.275 15.2765 9.5398C15.573 8.80462 15.5871 7.98578 15.3161 7.24084C15.0611 6.55425 14.8519 5.85153 14.6898 5.13729C14.6095 4.78402 14.5453 4.4147 14.4971 4.04537C14.3021 2.9143 13.7097 1.89002 12.8265 1.15699C11.9433 0.42395 10.8275 0.0303326 9.67982 0.0470183H4.86252C4.17049 0.0405205 3.48518 0.183209 2.85325 0.465369C2.22131 0.747529 1.65759 1.16254 1.20047 1.68214C0.743337 2.20174 0.403532 2.81374 0.204181 3.47647C0.00483125 4.1392 -0.0493828 4.83711 0.0452299 5.52268C0.900682 12.2498 3.97298 18.5003 8.77682 23.2867C13.5807 28.0731 19.8422 31.1226 26.5725 31.9536H27.1827C28.3668 31.9553 29.51 31.5209 30.3942 30.7332C30.9022 30.2788 31.308 29.7218 31.5848 29.099C31.8616 28.4762 32.0031 27.8018 31.9999 27.1202V22.3029C31.9803 21.1875 31.5741 20.1135 30.8508 19.2643C30.1274 18.415 29.1318 17.8431 28.0337 17.6462ZM28.8366 27.2808C28.8363 27.5088 28.7875 27.7341 28.6933 27.9418C28.5992 28.1494 28.4619 28.3346 28.2906 28.4851C28.1117 28.6409 27.902 28.7572 27.6751 28.8263C27.4482 28.8955 27.2093 28.916 26.9739 28.8866C20.9602 28.1155 15.3742 25.3643 11.0973 21.0669C6.82027 16.7696 4.09563 11.1707 3.35311 5.15335C3.32755 4.91813 3.34995 4.68018 3.41894 4.45386C3.48794 4.22755 3.60211 4.01757 3.75455 3.83662C3.90502 3.66534 4.09025 3.52806 4.2979 3.43392C4.50556 3.33979 4.73088 3.29095 4.95887 3.29066H9.77616C10.1496 3.28235 10.5142 3.40448 10.8073 3.63602C11.1004 3.86755 11.3036 4.19402 11.3819 4.55922C11.4462 4.99813 11.5264 5.43168 11.6228 5.85989C11.8083 6.70636 12.0552 7.5382 12.3614 8.34882L10.1134 9.39257C9.92116 9.48076 9.74826 9.60605 9.6046 9.76125C9.46094 9.91644 9.34935 10.0985 9.27624 10.2969C9.20313 10.4954 9.16994 10.7063 9.17858 10.9176C9.18721 11.1289 9.2375 11.3364 9.32655 11.5282C11.6376 16.4784 15.6167 20.4576 20.5669 22.7686C20.9578 22.9292 21.3963 22.9292 21.7873 22.7686C21.9875 22.697 22.1716 22.5863 22.3287 22.4429C22.4858 22.2996 22.6129 22.1265 22.7026 21.9336L23.6981 19.6855C24.5283 19.9824 25.3755 20.2291 26.2353 20.4242C26.6635 20.5205 27.097 20.6008 27.5359 20.665C27.9011 20.7434 28.2276 20.9466 28.4591 21.2397C28.6907 21.5328 28.8128 21.8974 28.8045 22.2708L28.8366 27.2808Z" fill="#A6A6A6"/>
</svg>
