<svg width="39" height="36" viewBox="0 0 39 36" fill="none" xmlns="http://www.w3.org/2000/svg">
<path fill-rule="evenodd" clip-rule="evenodd" d="M2.7 0C1.20883 0 0 1.20884 0 2.7V33.26C0 34.7512 1.20883 35.96 2.7 35.96H35.32C36.8112 35.96 38.02 34.7512 38.02 33.26V2.7C38.02 1.20883 36.8112 0 35.32 0H2.7ZM30.9993 27.5816V23.9686C31.0139 23.378 30.8106 22.8026 30.4279 22.3518C30.0452 21.901 29.5099 21.6064 28.9237 21.5238C27.7652 21.3713 26.6277 21.0885 25.5328 20.6808C25.1009 20.5188 24.6315 20.4837 24.1803 20.5798C23.729 20.6758 23.3148 20.899 22.9867 21.2228L21.4542 22.7522C18.4331 21.0378 15.9317 18.5414 14.2139 15.5263L15.7464 13.9968C16.0708 13.6694 16.2944 13.256 16.3907 12.8056C16.4869 12.3552 16.4518 11.8868 16.2894 11.4557C15.8809 10.363 15.5975 9.22778 15.4447 8.07155C15.3628 7.49281 15.0727 6.96356 14.6287 6.58245C14.1847 6.20133 13.6169 5.99436 13.0313 6.00012H9.41115C9.0761 6.00043 8.74478 6.07037 8.43829 6.20548C8.1318 6.34059 7.85686 6.53791 7.63097 6.78488C7.40508 7.03185 7.23319 7.32305 7.12624 7.63995C7.0193 7.95685 6.97964 8.29251 7.00979 8.62554C7.40589 12.3481 8.67503 15.9252 10.7144 19.067C12.5671 21.9769 15.0391 24.4439 17.9547 26.293C21.0885 28.3212 24.6554 29.5875 28.3686 29.9902C28.7033 30.0204 29.0407 29.9805 29.359 29.8731C29.6774 29.7656 29.9698 29.593 30.2174 29.3662C30.465 29.1395 30.6625 28.8636 30.7971 28.5563C30.9318 28.249 31.0006 27.917 30.9993 27.5816Z" fill="#A6A6A6"/>
</svg>
