<svg width="39" height="36" viewBox="0 0 39 36" fill="none" xmlns="http://www.w3.org/2000/svg">
<path fill-rule="evenodd" clip-rule="evenodd" d="M2.7 0C1.20883 0 0 1.20884 0 2.7V33.26C0 34.7512 1.20883 35.96 2.7 35.96H35.32C36.8112 35.96 38.02 34.7512 38.02 33.26V2.7C38.02 1.20883 36.8112 0 35.32 0H2.7ZM13.7017 24.5491C14.5714 21.9365 17.4845 20.499 20.2314 21.3283C22.9774 22.1559 24.4887 24.9291 23.6181 27.5425C22.7484 30.156 19.8344 31.5952 17.0884 30.765C14.3405 29.9375 12.8302 27.1643 13.7017 24.5491ZM17.0875 8.2443C19.0505 13.3185 19.6665 13.5888 24.9989 11.7213C27.702 10.7735 30.6817 12.0829 31.6764 14.6569C32.6712 17.2299 31.2968 20.0672 28.5918 21.0124C25.8887 21.9602 22.909 20.6508 21.9143 18.0777C19.9522 13.0026 19.3343 12.7305 14.002 14.5981C11.2988 15.5459 8.31915 14.2365 7.3235 11.6634C6.32876 9.09029 7.70405 6.2548 10.4072 5.307C13.1122 4.36184 16.0918 5.6712 17.0875 8.2443Z" fill="#A6A6A6"/>
</svg>
