<svg width="39" height="36" viewBox="0 0 39 36" fill="none" xmlns="http://www.w3.org/2000/svg">
<path fill-rule="evenodd" clip-rule="evenodd" d="M2.7 0C1.20883 0 0 1.20884 0 2.7V33.26C0 34.7512 1.20883 35.96 2.7 35.96H35.32C36.8112 35.96 38.02 34.7512 38.02 33.26V2.7C38.02 1.20883 36.8112 0 35.32 0H2.7ZM17.5338 7.76769L28.1551 5L31 15.327L29.3833 18.0012L31 20.6754L28.1551 31L17.5371 28.2323L15.9618 25.5362L12.7739 25.5605L5 18.0012L12.7731 10.4411L15.9626 10.4647L17.5338 7.76769ZM24.3429 8.86826L16.2187 10.8987L10.3517 16.7243H19.6797L24.3429 8.86826ZM10.3517 19.2774L16.2187 25.1021L24.3429 27.1326L19.6797 19.2774H10.3517ZM21.9508 18.0012L26.6164 25.8556L28.8688 18.0012L26.6164 10.1436L21.9508 18.0012Z" fill="#A6A6A6"/>
</svg>
