<svg width="39" height="36" viewBox="0 0 39 36" fill="none" xmlns="http://www.w3.org/2000/svg">
<path fill-rule="evenodd" clip-rule="evenodd" d="M0 2.7C0 1.20884 1.20883 0 2.7 0H35.32C36.8112 0 38.02 1.20883 38.02 2.7V33.26C38.02 34.7512 36.8112 35.96 35.32 35.96H2.7C1.20883 35.96 0 34.7512 0 33.26V2.7ZM20.6667 8.66667L14 14H8.66667V22H14L20.6667 27.3333V8.66667ZM27.4272 12.573C27.0367 12.1824 26.4036 12.1823 26.013 12.5728C25.6224 12.9633 25.6223 13.5964 26.0128 13.987C27.0751 15.0497 27.6719 16.4907 27.6719 17.9933C27.6719 19.4959 27.0751 20.937 26.0128 21.9997C25.6223 22.3902 25.6224 23.0234 26.013 23.4139C26.4036 23.8043 27.0367 23.8042 27.4272 23.4137C28.8645 21.976 29.6719 20.0263 29.6719 17.9933C29.6719 15.9604 28.8645 14.0107 27.4272 12.573Z" fill="#A6A6A6"/>
</svg>
