<svg width="39" height="36" viewBox="0 0 39 36" fill="none" xmlns="http://www.w3.org/2000/svg">
<path fill-rule="evenodd" clip-rule="evenodd" d="M2.69951 -0.00012207C1.20834 -0.00012207 -0.000488281 1.20871 -0.000488281 2.69988V33.2599C-0.000488281 34.751 1.20834 35.9599 2.69951 35.9599H35.3195C36.8107 35.9599 38.0195 34.751 38.0195 33.2599V2.69988C38.0195 1.20871 36.8107 -0.00012207 35.3195 -0.00012207H2.69951ZM8.36959 20.7538C8.36959 20.7538 7.80681 17.9583 10.7833 14.5727C13.76 11.1872 15.9933 9.95607 18.4053 9.31479L18.4011 9.31727L18.4103 9.31479C18.4103 9.31479 16.5155 10.4178 16.5155 12.0847C16.5155 12.5686 16.5927 12.901 16.6996 13.1231C16.8415 13.4182 17.0662 13.5185 17.268 13.5195C17.3931 13.5202 17.48 13.4825 17.6029 13.4294C17.6471 13.4103 17.6958 13.3892 17.7526 13.3671V22.395C17.7526 22.395 17.7759 22.5406 17.9066 22.713C18.0949 22.961 18.3908 23.2637 18.9466 23.2668C19.8948 23.2607 21.0875 22.1901 21.0875 22.1901V14.8804C21.0875 14.1368 20.555 13.2391 19.9908 12.9311C19.9908 12.9311 20.0677 12.9263 20.1921 12.9263C20.5646 12.9262 21.3638 12.9688 21.8091 13.3088C21.9328 13.1655 23.9293 10.9075 27.4819 10.2127L27.4802 10.2147L27.4899 10.2127C27.4899 10.2127 25.5249 12.5253 24.9091 13.6722C24.7996 13.6787 24.7836 15.848 24.8019 18.0156C24.8196 20.108 24.8693 22.1993 24.8981 22.3439C24.8981 22.3439 25.1078 22.6554 25.6417 22.6581C26.2439 22.6612 27.2587 22.2713 28.8497 20.5997C28.8497 20.5997 28.8078 20.6949 28.7233 20.8636C28.2674 21.7742 26.5732 24.8269 23.5637 26.6013L23.5636 26.6011L23.5633 26.6013L21.6114 24.9512L21.5615 24.9096L19.4326 27.1658L19.4294 27.1655L19.4291 27.1658C19.4291 27.1658 14.5757 26.7554 12.5486 23.8318L12.5582 23.8352L12.5557 23.8318C12.5557 23.8318 12.8626 23.9512 13.2091 23.9577C13.615 23.9651 14.0413 23.8169 14.0413 23.1389V16.2655C14.0413 15.9144 13.7995 15.5207 13.2688 15.5222C12.7915 15.5234 12.1062 15.8444 11.1705 16.804C9.19469 18.8301 8.37416 20.7538 8.37416 20.7538L8.37276 20.7465L8.36959 20.7538ZM19.1511 32.4071C22.937 32.4071 26.4963 30.9335 29.1734 28.2578C31.8504 25.582 33.3247 22.0244 33.3247 18.2403C33.3247 14.4562 31.8504 10.8986 29.1734 8.22283C26.4963 5.5471 22.937 4.07349 19.1511 4.07349C15.3652 4.07349 11.8059 5.5471 9.12886 8.22283C6.45185 10.8986 4.97753 14.4562 4.97753 18.2403C4.97753 22.0244 6.45185 25.582 9.12886 28.2578C11.8059 30.9335 15.3652 32.4071 19.1511 32.4071ZM33.9771 18.2403C33.9771 10.056 27.3392 3.4213 19.151 3.4213C10.9628 3.4213 4.32495 10.056 4.32495 18.2403C4.32495 26.4246 10.9628 33.0593 19.151 33.0593C27.3392 33.0593 33.9771 26.4246 33.9771 18.2403ZM29.9327 29.0168C27.0528 31.8953 23.2238 33.4806 19.151 33.4806C15.0782 33.4806 11.2492 31.8953 8.36935 29.0168C5.48945 26.1383 3.90347 22.3111 3.90347 18.2403C3.90347 14.1695 5.48945 10.3423 8.36935 7.46377C11.2492 4.58525 15.0782 3.00002 19.151 3.00002C23.2238 3.00002 27.0528 4.58525 29.9327 7.46377C32.8126 10.3423 34.3986 14.1695 34.3986 18.2403C34.3986 22.3111 32.8126 26.1383 29.9327 29.0168Z" fill="#A6A6A6"/>
</svg>
