<svg width="51" height="50" viewBox="0 0 51 50" fill="none" xmlns="http://www.w3.org/2000/svg">
<mask id="mask0" style="mask-type:alpha" maskUnits="userSpaceOnUse" x="0" y="0" width="51" height="50">
<path fill-rule="evenodd" clip-rule="evenodd" d="M35.7893 49.5296C36.5768 49.8364 37.4748 49.8168 38.2696 49.4343L48.5638 44.4809C49.6455 43.9604 50.3334 42.8657 50.3334 41.6647V8.07771C50.3334 6.87671 49.6455 5.78196 48.5638 5.26146L38.2696 0.307941C37.2265 -0.194002 36.0057 -0.0710571 35.0901 0.594538C34.9594 0.689618 34.8348 0.795778 34.7179 0.912768L15.0109 18.8918L6.42697 12.3759C5.62787 11.7693 4.51019 11.819 3.76804 12.4941L1.01489 14.9985C0.107098 15.8243 0.106058 17.2524 1.01264 18.0796L8.45692 24.8711L1.01264 31.6627C0.106058 32.4898 0.107098 33.918 1.01489 34.7437L3.76804 37.2481C4.51019 37.9232 5.62787 37.9729 6.42697 37.3663L15.0109 30.8504L34.7179 48.8294C35.0296 49.1414 35.3957 49.3763 35.7893 49.5296ZM37.841 13.5205L22.8879 24.8711L37.841 36.2217V13.5205Z" fill="white"/>
</mask>
<g mask="url(#mask0)">
<path d="M48.5044 5.26628L38.2084 0.308967C37.0166 -0.264841 35.5924 -0.0227965 34.6571 0.912495L0.951851 31.6437C0.0452653 32.4703 0.0463076 33.8976 0.954099 34.7229L3.70725 37.2258C4.4494 37.9004 5.56711 37.9501 6.36617 37.3439L46.955 6.55235C48.3168 5.51933 50.2726 6.49054 50.2726 8.19975V8.08022C50.2726 6.88045 49.5853 5.78677 48.5044 5.26628Z" fill="#A6A6A6"/>
<g filter="url(#filter0_d)">
<path d="M48.5044 44.4458L38.2084 49.4031C37.0166 49.977 35.5924 49.7349 34.6571 48.7996L0.951851 18.0684C0.0452653 17.2418 0.0463076 15.8144 0.954099 14.9892L3.70725 12.4863C4.4494 11.8116 5.56711 11.7619 6.36617 12.3681L46.955 43.1597C48.3168 44.1927 50.2726 43.2215 50.2726 41.5124V41.6319C50.2726 42.8316 49.5853 43.9253 48.5044 44.4458Z" fill="#A6A6A6"/>
</g>
<g filter="url(#filter1_d)">
<path d="M38.2088 49.404C37.0167 49.9775 35.5925 49.7349 34.6571 48.7995C35.8096 49.952 37.7802 49.1358 37.7802 47.5059V2.2056C37.7802 0.575725 35.8096 -0.240527 34.6571 0.911971C35.5925 -0.0234046 37.0167 -0.265791 38.2088 0.30751L48.503 5.25803C49.5847 5.77822 50.2726 6.8723 50.2726 8.07257V41.6391C50.2726 42.8394 49.5847 43.9335 48.503 44.4537L38.2088 49.404Z" fill="#A6A6A6"/>
</g>
<g style="mix-blend-mode:overlay" opacity="0.25">
<path style="mix-blend-mode:overlay" opacity="0.25" fill-rule="evenodd" clip-rule="evenodd" d="M35.707 49.4994C36.494 49.806 37.3915 49.7864 38.1858 49.4041L48.4737 44.4538C49.5547 43.9336 50.2422 42.8395 50.2422 41.6392V8.07271C50.2422 6.87239 49.5548 5.77831 48.4737 5.25813L38.1858 0.307632C37.1433 -0.194006 35.9232 -0.0711357 35.0082 0.594051C34.8775 0.689078 34.753 0.795173 34.6362 0.912092L14.9412 18.8802L6.36247 12.3683C5.56391 11.762 4.44686 11.8117 3.70516 12.4864L0.953685 14.9893C0.0464445 15.8146 0.0454046 17.2418 0.951436 18.0684L8.39119 24.8559L0.951436 31.6433C0.0454046 32.4699 0.0464445 33.8972 0.953685 34.7225L3.70516 37.2253C4.44686 37.9 5.56391 37.9497 6.36247 37.3435L14.9412 30.8315L34.6362 48.7997C34.9478 49.1114 35.3136 49.3462 35.707 49.4994ZM37.7574 13.5122L22.8134 24.8559L37.7574 36.1996V13.5122Z" fill="url(#paint0_linear)"/>
</g>
</g>
<defs>
<filter id="filter0_d" x="-8.06076" y="3.61148" width="66.6667" height="54.4332" filterUnits="userSpaceOnUse" color-interpolation-filters="sRGB">
<feFlood flood-opacity="0" result="BackgroundImageFix"/>
<feColorMatrix in="SourceAlpha" type="matrix" values="0 0 0 0 0 0 0 0 0 0 0 0 0 0 0 0 0 0 127 0" result="hardAlpha"/>
<feOffset/>
<feGaussianBlur stdDeviation="4.16667"/>
<feColorMatrix type="matrix" values="0 0 0 0 0 0 0 0 0 0 0 0 0 0 0 0 0 0 0.25 0"/>
<feBlend mode="overlay" in2="BackgroundImageFix" result="effect1_dropShadow"/>
<feBlend mode="normal" in="SourceGraphic" in2="effect1_dropShadow" result="shape"/>
</filter>
<filter id="filter1_d" x="26.3238" y="-8.33358" width="32.2822" height="66.3788" filterUnits="userSpaceOnUse" color-interpolation-filters="sRGB">
<feFlood flood-opacity="0" result="BackgroundImageFix"/>
<feColorMatrix in="SourceAlpha" type="matrix" values="0 0 0 0 0 0 0 0 0 0 0 0 0 0 0 0 0 0 127 0" result="hardAlpha"/>
<feOffset/>
<feGaussianBlur stdDeviation="4.16667"/>
<feColorMatrix type="matrix" values="0 0 0 0 0 0 0 0 0 0 0 0 0 0 0 0 0 0 0.25 0"/>
<feBlend mode="overlay" in2="BackgroundImageFix" result="effect1_dropShadow"/>
<feBlend mode="normal" in="SourceGraphic" in2="effect1_dropShadow" result="shape"/>
</filter>
<linearGradient id="paint0_linear" x1="25.2574" y1="-0.000122354" x2="25.2574" y2="49.7119" gradientUnits="userSpaceOnUse">
<stop stop-color="white"/>
<stop offset="1" stop-color="white" stop-opacity="0"/>
</linearGradient>
</defs>
</svg>
