<svg width="39" height="36" viewBox="0 0 39 36" fill="none" xmlns="http://www.w3.org/2000/svg">
<path fill-rule="evenodd" clip-rule="evenodd" d="M2.7 0C1.20883 0 0 1.20884 0 2.7V33.26C0 34.7512 1.20883 35.96 2.7 35.96H35.32C36.8112 35.96 38.02 34.7512 38.02 33.26V2.7C38.02 1.20883 36.8112 0 35.32 0H2.7ZM7.90628 23.9999C7.97285 24.0415 8.04334 24.0746 8.11616 24.099C8.42672 24.2141 8.78427 24.1693 9.06145 23.9588L13.1422 20.8612L22.514 29.4113C22.6626 29.56 22.8371 29.672 23.0247 29.745C23.0413 29.7515 23.058 29.7577 23.0749 29.7636C23.4478 29.9055 23.8715 29.8946 24.2469 29.7139L29.1561 27.3517C29.6719 27.1035 30 26.5814 30 26.0087V9.99138C30 9.41864 29.672 8.89656 29.1561 8.64834L24.2469 6.28605C24.0399 6.18643 23.8181 6.13842 23.5984 6.13921C23.5818 6.13895 23.5653 6.13896 23.5488 6.13925C23.2441 6.14235 22.9435 6.2393 22.6914 6.42253C22.6291 6.46784 22.5697 6.51844 22.514 6.5742L13.1335 15.1322L9.06145 12.0411C8.91381 11.9291 8.74337 11.864 8.56937 11.845C8.4992 11.8353 8.42827 11.8331 8.35786 11.8383C8.14285 11.8542 7.93258 11.9399 7.7633 12.0939L6.45115 13.2875C6.01849 13.681 6.018 14.3617 6.45008 14.7559L9.99802 17.9928L6.45008 21.2296C6.2331 21.4276 6.12521 21.6978 6.12635 21.9676C6.12729 22.2353 6.23564 22.5026 6.45135 22.6987L7.34702 23.513L7.7633 23.8916C7.80829 23.9326 7.85618 23.9687 7.90628 23.9999ZM24.0025 12.6174L16.9115 18L24.0025 23.3826V12.6174Z" fill="#A6A6A6"/>
</svg>
