<svg width="39" height="36" viewBox="0 0 39 36" fill="none" xmlns="http://www.w3.org/2000/svg">
<path fill-rule="evenodd" clip-rule="evenodd" d="M2.7 0C1.20883 0 0 1.20883 0 2.7V33.2583C0 34.7495 1.20883 35.9583 2.7 35.9583H35.3228C36.814 35.9583 38.0228 34.7495 38.0228 33.2583V2.7C38.0228 1.20883 36.814 0 35.3228 0H2.7ZM14.08 28.15C10.32 26.32 7.72 22.47 7.72 18C7.72003 16.4181 8.05398 14.854 8.7 13.41L14.08 28.15ZM22.75 28.64C21.57 29.05 20.31 29.28 19 29.28C17.89 29.28 16.82 29.12 15.82 28.82L19.2 18.99L22.67 28.49L22.75 28.64ZM24.63 24.84L20.55 12.71C21.24 12.67 21.85 12.6 21.85 12.6C22.46 12.53 22.38 11.64 21.77 11.67C21.77 11.67 19.95 11.82 18.77 11.82C17.66 11.82 15.8 11.67 15.8 11.67C15.19 11.64 15.12 12.57 15.73 12.61C16.1223 12.6549 16.5158 12.6882 16.91 12.71L18.67 17.53L16.2 24.93L12.08 12.71C12.77 12.68 13.38 12.6 13.38 12.6C13.99 12.53 13.92 11.64 13.3 11.67C13.3 11.67 11.48 11.82 10.3 11.82L9.58 11.8C10.6061 10.2388 12.0042 8.95722 13.6485 8.07047C15.2928 7.18373 17.1318 6.71965 19 6.72C21.8215 6.7153 24.5415 7.77191 26.62 9.68H26.48C25.36 9.68 24.58 10.64 24.58 11.68C24.58 12.5395 25.0426 13.2855 25.5763 14.1463C25.6139 14.207 25.6518 14.2682 25.69 14.33C26.11 15.07 26.61 16.03 26.61 17.43C26.61 18.3281 26.2928 19.3547 25.8649 20.74C25.8306 20.851 25.7956 20.9643 25.76 21.08L24.63 24.84ZM28.7771 23.6242C27.7926 25.3351 26.3764 26.7578 24.67 27.75L28.12 17.79C28.8105 16.1491 29.0787 14.3613 28.9 12.59C29.78 14.2 30.28 16.04 30.28 18C30.2798 19.9739 29.7615 21.9133 28.7771 23.6242ZM9.80761 27.1924C12.2456 29.6304 15.5522 31 19 31C22.4478 31 25.7544 29.6304 28.1924 27.1924C30.6304 24.7544 32 21.4478 32 18C32 14.5522 30.6304 11.2456 28.1924 8.80761C25.7544 6.36964 22.4478 5 19 5C15.5522 5 12.2456 6.36964 9.80761 8.80761C7.36964 11.2456 6 14.5522 6 18C6 21.4478 7.36964 24.7544 9.80761 27.1924Z" fill="#A6A6A6"/>
</svg>
