<svg width="37" height="36" viewBox="0 0 37 36" fill="none" xmlns="http://www.w3.org/2000/svg">
<path d="M36.0554 12.6875C36.1363 9.3564 35.6244 6.0502 34.5673 3.07591C33.85 1.85549 32.8546 1.0319 31.7545 0.748643C27.2042 0.161067 22.6351 -0.0797615 18.0668 0.0271901C13.5151 -0.0846157 8.96242 0.148441 4.42812 0.725371C3.53166 0.957438 2.70206 1.55584 2.04054 2.44755C0.568737 4.37918 0.405204 7.6839 0.241671 10.4766C0.00440399 15.4979 0.00440399 20.5361 0.241671 25.5573C0.288981 27.1292 0.453436 28.6894 0.73227 30.2119C0.92945 31.3873 1.32839 32.4748 1.89336 33.3769C2.55937 34.3159 3.4083 34.9483 4.33 35.1922C7.85564 35.8115 11.4081 36.0682 14.9597 35.9602C20.6833 36.0766 25.7038 35.9602 31.64 35.3086C32.5844 35.0797 33.4572 34.4464 34.1421 33.4933C34.5999 32.8415 34.9419 32.0436 35.1396 31.166C35.7245 28.6121 36.0117 25.9393 35.99 23.2533C36.0554 21.9501 36.0554 14.0839 36.0554 12.6875ZM13.3709 24.6497V10.2439L25.0521 17.4817C22.3374 19.6228 16.7561 22.0431 13.3709 24.6497Z" fill="#A6A6A6"/>
</svg>
