<svg xmlns="http://www.w3.org/2000/svg"><symbol id="icon-checkbox_checked" viewBox="0 0 24 24"><path d="M17 19H7a2 2 0 01-2-2V7a2 2 0 012-2h10a2 2 0 012 2v10a2 2 0 01-2 2zM7 7v10h10V7H7zm4 8.362l-2.7-2.647 1.4-1.43 1.3 1.271 3.3-3.267 1.4 1.422-4.7 4.65v.001z"/></symbol><symbol id="icon-checkbox_square" viewBox="0 0 24 24"><path d="M17 19H7a2 2 0 01-2-2V7a2 2 0 012-2h10a2 2 0 012 2v10a2 2 0 01-2 2zM7 7v10h10V7H7zm8 8H9V9h6v6z"/></symbol><symbol id="icon-circle_chevron_down" viewBox="0 0 24 24"><path d="M12 22C6.477 22 2 17.523 2 12S6.477 2 12 2s10 4.477 10 10c-.006 5.52-4.48 9.994-10 10zm0-18a8 8 0 108 8 8.009 8.009 0 00-8-8zm-.05 11.5L7 10.55l1.414-1.414 3.536 3.535 3.536-3.535L16.9 10.55l-4.95 4.95z"/></symbol><symbol id="icon-close" viewBox="0 0 32 32"><path d="M15.917 30.833c8.238 0 14.916-6.678 14.916-14.916C30.833 7.678 24.155 1 15.917 1 7.678 1 1 7.678 1 15.917c0 8.238 6.678 14.916 14.917 14.916zm4.474-19.391l-8.95 8.95m0-8.95l8.95 8.95" stroke-width="2" stroke-linecap="round" stroke-linejoin="round"/></symbol><symbol id="icon-facebook" viewBox="0 0 55 55"><path fill-rule="evenodd" clip-rule="evenodd" d="M27.5 55C42.688 55 55 42.688 55 27.5S42.688 0 27.5 0 0 12.312 0 27.5 12.312 55 27.5 55zm3.41-40H35v5.2h-4.09a1.4 1.4 0 00-.965.38 1.27 1.27 0 00-.4.92v3.9H35l-1.364 5.2h-4.09V41H24.09V30.6H20v-5.2h4.09v-3.9c0-1.724.72-3.377 1.998-4.596C27.367 15.684 29.1 15 30.909 15z"/></symbol><symbol id="icon-instagram" viewBox="0 0 55 55"><path fill-rule="evenodd" clip-rule="evenodd" d="M27.5 55C42.688 55 55 42.688 55 27.5S42.688 0 27.5 0 0 12.312 0 27.5 12.312 55 27.5 55zm10.218-34.94A14.99 14.99 0 0042 18.014a10.277 10.277 0 01-2.836 4.908c.071.366.108.738.109 1.11 0 15.382-15 22.07-27.273 15.382a16.1 16.1 0 009.546-2.675c-12.273-5.35-6.819-17.388-6.819-17.388a14.46 14.46 0 005.36 4.541A14.771 14.771 0 0027 25.41v-1.338a5.91 5.91 0 011.054-3.445 6.09 6.09 0 012.876-2.233 6.222 6.222 0 013.661-.215 6.13 6.13 0 013.127 1.88z"/></symbol><symbol id="icon-atomic" viewBox="0 0 146 32"><path fill-rule="evenodd" clip-rule="evenodd" d="M63.684 14.337a2.137 2.137 0 012.622.25c.39.375.61.883.61 1.413 0 .395-.121.782-.35 1.111a2.062 2.062 0 01-.932.737c-.38.151-.798.19-1.2.114a2.104 2.104 0 01-1.065-.548 1.98 1.98 0 01-.569-1.024c-.08-.387-.039-.79.119-1.155a2.02 2.02 0 01.765-.898zm7.511-8.954c4.92-.555 6.844 1.398 7.55 2.617.988 1.706.981 4.187-1.114 7.28a12.911 12.911 0 01.05 1.514c2.045 3.06 2.044 5.514 1.064 7.206-1.823 3.156-6.265 2.761-7.433 2.63-.051.025-.103.048-.154.072C69.76 29.859 67.646 32 64.838 32c-2.833 0-4.96-2.18-6.357-5.383h-.004c-.958.111-5.657.652-7.546-2.617-1.025-1.769-.98-4.372 1.356-7.627.002-.24.01-.478.025-.712-2.36-3.271-2.41-5.886-1.381-7.661.706-1.219 2.63-3.164 7.55-2.617C59.878 2.18 62.005 0 64.838 0s4.96 2.18 6.357 5.383zm-7.896-.17C63.851 4.429 64.4 4 64.84 4c.434 0 .974.42 1.52 1.187a18.23 18.23 0 00-1.373-.05c-.578 0-1.14.025-1.687.076zm1.248 22.73a.842.842 0 00.291.057.833.833 0 00.278-.052h-.13c-.147 0-.294 0-.439-.004zm-2.595-7.786a5.34 5.34 0 002.886.843 5.299 5.299 0 003.673-1.464A4.907 4.907 0 0070.033 16c0-.989-.305-1.956-.876-2.778a5.156 5.156 0 00-2.331-1.841 5.383 5.383 0 00-3.001-.285 5.26 5.26 0 00-2.66 1.368 4.943 4.943 0 00-1.422 2.56c-.2.97-.098 1.976.296 2.89a5.046 5.046 0 001.913 2.243zM15.199 5.435h-4.773L0 27.636h4.744l1.72-3.735h12.968l1.775 3.735h4.73L15.2 5.435zm-2.344 4.673l4.801 10.085H8.182l4.673-10.085zm15.029-.724h8.196v18.252h4.502V9.384h8.196v-3.95H27.884v3.95zm59.318-3.95h-4.503v22.202h4.503V11.671l8.068 7.77 8.068-7.77v15.965h4.503V5.435h-4.503L95.27 13.53l-8.068-8.096zm30.923 0h-4.531v22.202h4.531V5.435zm5.298 6.549c-.596 1.364-.895 2.836-.895 4.418 0 1.619.289 3.134.867 4.545a10.174 10.174 0 002.614 3.665c1.155 1.032 2.594 1.846 4.318 2.443 1.723.587 3.726.88 6.008.88 1.79 0 3.48-.217 5.071-.653 1.591-.445 2.993-1.056 4.204-1.832l-2.073-3.41c-.483.275-1.004.531-1.563.768-.558.227-1.141.426-1.747.596-.596.161-1.217.29-1.86.384-.644.095-1.293.142-1.947.142-1.439 0-2.732-.185-3.877-.554-1.137-.379-2.103-.9-2.898-1.563a6.819 6.819 0 01-1.804-2.386c-.417-.918-.625-1.927-.625-3.025 0-1.061.199-2.032.596-2.912a6.391 6.391 0 011.762-2.287c.776-.644 1.728-1.141 2.855-1.492 1.127-.36 2.41-.54 3.849-.54.597 0 1.198.038 1.804.114a14.78 14.78 0 011.776.327c.578.132 1.117.298 1.619.497.512.199.962.426 1.35.682l2.074-3.41a15.631 15.631 0 00-4.219-1.661c-1.506-.37-3.163-.554-4.972-.554-2.064 0-3.915.289-5.554.866-1.628.578-3.011 1.373-4.147 2.387a10.132 10.132 0 00-2.586 3.565z"/></symbol><symbol id="icon-checkmate" viewBox="0 0 151 20"><path fill-rule="evenodd" clip-rule="evenodd" d="M35.222 3.78a.949.949 0 00.247-.657c0-.256-.128-.512-.384-.767-.237-.274-.584-.512-1.04-.713-.439-.219-.978-.392-1.617-.52a10.206 10.206 0 00-2.054-.192 8.84 8.84 0 00-3.095.548 7.114 7.114 0 00-2.548 1.644c-.73.73-1.314 1.643-1.753 2.739-.42 1.077-.63 2.337-.63 3.78 0 1.442.21 2.702.63 3.78.42 1.077.986 1.98 1.699 2.711a7.246 7.246 0 002.574 1.616c.986.366 2.055.548 3.205.548 1.132 0 2.064-.119 2.794-.356.73-.22 1.306-.475 1.726-.767.438-.31.657-.657.657-1.04a.948.948 0 00-.247-.658 1.326 1.326 0 00-.52-.411c-.475.365-1.068.685-1.78.959-.694.255-1.516.383-2.466.383-.894 0-1.707-.137-2.437-.41a5.2 5.2 0 01-1.89-1.288c-.512-.566-.913-1.27-1.206-2.11-.292-.84-.438-1.825-.438-2.957 0-1.114.146-2.1.438-2.959.31-.858.73-1.57 1.26-2.136A5.253 5.253 0 0128.21 3.26a6.075 6.075 0 012.328-.439c1.023 0 1.854.146 2.493.439.639.292 1.196.602 1.67.93a1.38 1.38 0 00.521-.41zm5.64 14.216c.182-.037.32-.073.41-.11v-9.97a5.87 5.87 0 011.452-.822 4.627 4.627 0 011.808-.356c.986 0 1.78.265 2.383.794.603.53.904 1.343.904 2.438v7.122c0 .657.392.986 1.178.986.2 0 .392-.027.575-.082.2-.037.347-.073.438-.11v-7.97c0-.84-.128-1.57-.383-2.192-.256-.639-.612-1.16-1.069-1.561a4.289 4.289 0 00-1.643-.931c-.62-.201-1.315-.302-2.082-.302-.748 0-1.424.1-2.027.302a8.56 8.56 0 00-1.533.684V.986c0-.657-.384-.986-1.151-.986-.22 0-.43.027-.63.082-.183.037-.32.073-.41.11v16.9c0 .657.392.986 1.177.986.22 0 .42-.027.603-.082zm19.523-1.507c-2.648 0-4.218-1.196-4.71-3.588l8.436-1.178c.328-.036.584-.137.766-.301.183-.183.274-.475.274-.877 0-.821-.146-1.57-.438-2.246a4.977 4.977 0 00-1.178-1.78 4.977 4.977 0 00-1.78-1.178 6.138 6.138 0 00-2.274-.41c-.876 0-1.689.155-2.437.465a5.407 5.407 0 00-1.945 1.287c-.53.566-.95 1.26-1.26 2.082-.292.804-.438 1.726-.438 2.767 0 2.21.611 3.89 1.835 5.04 1.242 1.15 2.922 1.725 5.04 1.725.602 0 1.16-.055 1.67-.164.53-.11.987-.256 1.37-.438.402-.183.712-.393.931-.63.238-.238.356-.484.356-.74 0-.438-.219-.785-.657-1.04-.365.291-.858.565-1.479.82-.62.256-1.315.384-2.082.384zm-3.697-8.6c.73-.786 1.652-1.178 2.766-1.178 1.096 0 1.945.328 2.547.986.621.639.977 1.46 1.069 2.465l-7.533 1.04c.037-1.442.42-2.546 1.15-3.313zm15.764-.795a4.47 4.47 0 011.726-.328c.767 0 1.388.1 1.863.3.475.202.913.44 1.315.713.2-.091.365-.22.493-.383a.91.91 0 00.191-.576c0-.237-.1-.465-.301-.684-.183-.238-.447-.448-.794-.63a4.44 4.44 0 00-1.26-.411 6.944 6.944 0 00-1.562-.165c-.894 0-1.744.146-2.547.439a5.534 5.534 0 00-2.054 1.26c-.585.566-1.05 1.269-1.397 2.109-.347.821-.52 1.79-.52 2.903 0 1.132.164 2.118.492 2.958.33.822.786 1.507 1.37 2.055a5.683 5.683 0 002.082 1.232c.803.274 1.68.411 2.63.411.565 0 1.086-.055 1.56-.164.493-.091.913-.22 1.26-.384.366-.164.649-.356.85-.575.2-.219.3-.456.3-.712a.952.952 0 00-.19-.603 1.561 1.561 0 00-.494-.41c-.402.273-.858.52-1.37.739-.51.2-1.15.301-1.917.301-1.315 0-2.365-.41-3.15-1.232-.785-.84-1.178-2.046-1.178-3.616 0-.785.11-1.479.33-2.082.218-.62.52-1.132.903-1.533.383-.42.84-.73 1.37-.932zm10.78 10.902c.183-.037.32-.073.41-.11v-6.135l5.534 5.56c.237.256.465.457.684.603.238.127.493.191.767.191.347 0 .621-.118.822-.356.22-.237.347-.557.384-.958l-6.108-5.479 4.41-3.862c.273-.255.492-.474.657-.657.164-.2.246-.43.246-.685a.863.863 0 00-.383-.74c-.238-.2-.575-.31-1.014-.328l-5.998 5.807V.987c0-.658-.384-.987-1.15-.987-.22 0-.43.027-.63.082-.183.037-.32.073-.412.11v16.9c0 .657.393.986 1.178.986.22 0 .42-.027.603-.082zm20.853-4.136c.219-.073.392-.155.52-.247a849.681 849.681 0 001.479-3.369c.439-1.022.831-1.935 1.178-2.739.365-.803.676-1.525.931-2.164.274-.639.512-1.214.713-1.725h.109l.137 2.547c.055.986.11 2.073.164 3.26.073 1.186.146 2.437.22 3.752.073 1.315.155 2.639.246 3.972.037.365.155.62.356.767.219.127.466.191.74.191.438 0 .821-.11 1.15-.328-.036-.512-.082-1.206-.137-2.082a338.718 338.718 0 00-.438-6.19 111.737 111.737 0 00-.247-3.178 87.87 87.87 0 00-.274-2.602c-.091-.767-.173-1.315-.246-1.643-.128-.585-.621-.877-1.479-.877a3.46 3.46 0 00-.712.082c-.256.037-.466.1-.63.192-.274.64-.585 1.342-.932 2.11a240.434 240.434 0 00-2.273 5.204c-.402.93-.804 1.88-1.205 2.848h-.11c-.31-.73-.639-1.497-.986-2.3a90.315 90.315 0 00-1.041-2.438 74.139 74.139 0 00-1.068-2.41 54.805 54.805 0 00-1.04-2.274c-.33-.676-.914-1.014-1.754-1.014a2.48 2.48 0 00-.931.165c-.274.11-.484.228-.63.356a871.85 871.85 0 01-.247 2.848c-.073 1.041-.155 2.1-.246 3.178a970.087 970.087 0 01-.22 3.177 237.58 237.58 0 01-.164 2.849l-.137 2.19c-.018.604-.027.996-.027 1.179 0 .31.082.548.246.712.165.164.448.246.85.246.2 0 .383-.018.547-.054.183-.037.33-.073.439-.11.073-1.315.146-2.547.219-3.698.073-1.15.146-2.282.219-3.396.073-1.132.137-2.283.192-3.451.073-1.187.137-2.466.191-3.835h.11c.438 1.114 1.013 2.52 1.726 4.218.712 1.698 1.561 3.57 2.547 5.615a.84.84 0 00.466.438c.237.092.502.137.794.137.256 0 .484-.036.685-.11zm18.441 2.438c-.493.146-1.123.219-1.89.219-1.077 0-1.881-.183-2.41-.548-.53-.384-.794-.922-.794-1.616 0-.658.228-1.15.684-1.48.457-.346 1.16-.565 2.109-.657l3.397-.356v3.972c-.219.146-.584.301-1.096.466zm1.863-10.3c-.931-.712-2.191-1.068-3.78-1.068-.749 0-1.443.073-2.082.22a6.401 6.401 0 00-1.698.575c-.274.146-.475.301-.603.465-.127.165-.191.375-.191.63 0 .201.054.384.164.548.128.164.265.31.411.438.529-.274 1.132-.52 1.808-.74a6.968 6.968 0 012.163-.328c.932 0 1.671.21 2.219.63.548.42.822 1.087.822 2v.767l-3.89.383c-1.424.146-2.529.53-3.314 1.15-.785.603-1.178 1.507-1.178 2.712 0 1.278.466 2.255 1.397 2.931.95.676 2.283 1.014 3.999 1.014.932 0 1.753-.1 2.465-.302.731-.182 1.315-.401 1.753-.657.311-.183.539-.375.685-.575.165-.22.247-.53.247-.932V9.368c0-1.534-.466-2.657-1.397-3.37zm6.602 11.45c.804.566 1.844.85 3.123.85.84 0 1.497-.129 1.972-.384.475-.256.712-.585.712-.986 0-.22-.046-.411-.137-.576a1.848 1.848 0 00-.301-.41 4.378 4.378 0 01-.959.383c-.383.11-.73.164-1.041.164-.749 0-1.333-.146-1.753-.438-.402-.31-.602-.83-.602-1.561V7.368h3.916c.548 0 .822-.31.822-.931a1.39 1.39 0 00-.082-.493 2.06 2.06 0 00-.164-.384h-4.492V2.41c0-.657-.384-.986-1.151-.986-.219 0-.429.028-.63.083-.183.036-.32.073-.411.11v13.01c0 1.314.392 2.255 1.178 2.821zm14.858-.959c-2.648 0-4.219-1.196-4.712-3.588l8.437-1.178c.329-.036.584-.137.767-.301.182-.183.274-.475.274-.877 0-.821-.146-1.57-.439-2.246a4.966 4.966 0 00-1.177-1.78 4.977 4.977 0 00-1.781-1.178 6.14 6.14 0 00-2.273-.41 6.31 6.31 0 00-2.438.465 5.407 5.407 0 00-1.945 1.287c-.529.566-.949 1.26-1.26 2.082-.292.804-.438 1.726-.438 2.767 0 2.21.612 3.89 1.835 5.04 1.242 1.15 2.922 1.725 5.04 1.725.603 0 1.16-.055 1.671-.164a6.09 6.09 0 001.369-.438c.402-.183.713-.393.932-.63.237-.238.356-.484.356-.74 0-.438-.219-.785-.658-1.04-.365.291-.858.565-1.479.82-.62.256-1.314.384-2.081.384zm-3.698-8.6c.73-.786 1.652-1.178 2.766-1.178 1.096 0 1.945.328 2.548.986.621.639.977 1.46 1.068 2.465L141 11.202c.037-1.442.42-2.546 1.151-3.313zM3.397 9.737a1.855 1.855 0 11-3.085 2.06 1.855 1.855 0 013.085-2.06zm11.44 6.859V4.938a.53.53 0 01.53-.53h1.06a.53.53 0 01.53.53v11.658a.53.53 0 01-.53.53h-1.06a.53.53 0 01-.53-.53zM5.572 3.469l.527-.944a.53.53 0 01.678-.18l7 3.396v10.052L6.778 19.19a.53.53 0 01-.678-.18l-.53-.946c-.162-.244-.084-.557.15-.732a1.573 1.573 0 00.635-1.375c-.058-.85-.821-1.48-1.672-1.48a.444.444 0 01-.444-.443V12.75c0-.2.132-.385.328-.426a1.59 1.59 0 000-3.111.43.43 0 01-.328-.426V7.502a.444.444 0 01.444-.444c.78 0 1.505-.52 1.647-1.286a1.576 1.576 0 00-.603-1.564c-.237-.179-.32-.492-.155-.739z"/></symbol><symbol id="icon-dublin" viewBox="0 0 145 35"><path fill-rule="evenodd" clip-rule="evenodd" d="M15.586.378c.243.242.38.57.38.913v2.157h3.452c.8 0 1.569.317 2.135.882.567.565.885 1.33.885 2.13v8.176h-.431a4.753 4.753 0 00-3.357 1.386 4.727 4.727 0 00-1.39 3.347v12.91h-.003v2.151h-5.178v-1.157c.003-.044.003-.09.003-.134V14.89c0-2.938-2.554-4.958-5.178-4.72V6.46c0-.8.318-1.565.885-2.13a3.025 3.025 0 012.136-.882h3.451V1.29A1.289 1.289 0 0114.671 0c.343 0 .673.136.915.378zm34.247 5.376l-6.386-.034c-1.473 0-2.37.31-2.693.929-.184.344-.299.643-.345.895a14.84 14.84 0 00-.035 1.205v19.14c0 .987.138 1.721.415 2.203.345.574 1.22.86 2.623.86h6.317c3.521 0 6.513-1.25 8.976-3.751 2.485-2.502 3.728-5.497 3.728-8.985 0-3.512-1.266-6.46-3.797-8.847-2.532-2.41-5.466-3.615-8.803-3.615zm4.488 17.281c-1.335 1.217-2.831 1.825-4.488 1.825h-3.349V11.847h3.314c1.75 0 3.268.631 4.557 1.894 1.312 1.239 1.968 2.788 1.968 4.647 0 1.859-.668 3.408-2.002 4.647zm12.637 5.267c1.542 1.744 3.475 2.617 5.8 2.617a4.62 4.62 0 002.554-.758c.3-.206.61-.459.932-.757.323-.299.53-.528.622-.689 0 .551.115 1.021.345 1.412.322.55 1.185.826 2.589.826 1.427 0 2.313-.298 2.658-.895.184-.322.288-.608.31-.86.047-.276.07-.666.07-1.171V15.84c0-.527-.023-.918-.07-1.17-.022-.275-.114-.585-.276-.93-.322-.62-1.208-.929-2.658-.929-1.472 0-2.359.298-2.658.895-.184.344-.299.654-.345.93a14.17 14.17 0 00-.035 1.17v6.093c0 .895-.287 1.618-.863 2.169-.552.55-1.288.826-2.209.826-.897 0-1.622-.264-2.175-.792-.529-.527-.794-1.262-.794-2.203v-6.024c0-.803-.069-1.389-.207-1.756-.276-.872-1.22-1.308-2.83-1.308-1.473 0-2.37.31-2.693.93a3.788 3.788 0 00-.31.895 14.84 14.84 0 00-.035 1.205v6.024c0 2.524.76 4.67 2.278 6.437zm34.26-12.702c-1.703-1.814-3.579-2.72-5.627-2.72-1.703 0-3.015.562-3.935 1.687v-7.16c0-.528-.023-.919-.07-1.171-.022-.275-.126-.585-.31-.93-.3-.62-1.174-.929-2.624-.929-1.472 0-2.37.31-2.692.93-.161.32-.265.62-.311.894-.023.253-.034.643-.034 1.171v20.552c0 .527.011.929.034 1.204.046.253.15.551.31.895.323.62 1.209.93 2.659.93 1.795 0 2.785-.562 2.969-1.687.828 1.102 2.22 1.653 4.176 1.653 1.957 0 3.786-.896 5.489-2.686 1.703-1.813 2.555-3.913 2.555-6.3 0-2.41-.863-4.52-2.589-6.333zm-6.525 9.329c-.851 0-1.564-.31-2.14-.93-.552-.62-.828-1.296-.828-2.03 0-.758.264-1.458.794-2.1.552-.643 1.288-.965 2.209-.965.92 0 1.657.322 2.21.964.551.62.828 1.308.828 2.066 0 .757-.3 1.445-.898 2.065-.598.62-1.323.93-2.175.93zM106.39 5.238a3.666 3.666 0 00-.311.93c-.023.252-.034.642-.034 1.17v16.386c0 2.455.322 4.245.966 5.37.529.941 1.68 1.526 3.452 1.756 2.255.275 3.682.206 4.281-.207.46-.321.69-1.205.69-2.65 0-1.332-.23-2.146-.69-2.445-.231-.16-.426-.252-.587-.275-.161-.046-.484-.069-.967-.069-.46 0-.759-.103-.897-.31-.138-.23-.207-.757-.207-1.583V7.37c0-.527-.024-.929-.07-1.204-.023-.275-.126-.585-.31-.93-.345-.619-1.22-.929-2.624-.929-1.473 0-2.37.31-2.692.93zm10.982 9.466a14.3 14.3 0 00-.034 1.17v12.084c0 .55.011.952.034 1.205.046.252.15.55.311.895.322.62 1.208.93 2.658.93 1.473 0 2.359-.299 2.658-.896.184-.344.288-.642.311-.895.046-.275.069-.677.069-1.205V15.944c0-.436-.012-.77-.035-.999-.023-.665-.23-1.159-.621-1.48-.46-.39-1.243-.585-2.348-.585-1.472 0-2.37.298-2.692.895a3.665 3.665 0 00-.311.93zm4.729-4.51c.438-.137.737-.366.898-.688.184-.344.288-.642.311-.895.046-.275.069-.677.069-1.205 0-.527-.023-.918-.069-1.17-.023-.275-.127-.585-.311-.93-.299-.62-1.174-.929-2.624-.929-1.472 0-2.37.31-2.692.93-.161.32-.265.62-.311.894a14.3 14.3 0 00-.034 1.171c0 .528.011.93.034 1.205.046.252.15.55.311.895.184.344.495.585.932.723.437.137 1.012.206 1.726.206.736 0 1.323-.069 1.76-.206zm19.88 5.302c-1.519-1.767-3.429-2.65-5.73-2.65-.944 0-1.807.263-2.589.791a6.1 6.1 0 00-.932.723c-.323.299-.53.528-.622.689 0-.551-.115-1.022-.345-1.412-.322-.528-1.185-.792-2.589-.792-1.45 0-2.336.287-2.658.861a2.74 2.74 0 00-.345.895c-.023.253-.035.631-.035 1.136v12.187c0 .527.012.929.035 1.204.046.253.149.551.31.895.323.62 1.209.93 2.659.93 1.472 0 2.358-.31 2.658-.93.184-.32.287-.608.31-.86.046-.276.069-.677.069-1.205v-6.093c0-.895.276-1.618.829-2.169.575-.55 1.312-.826 2.209-.826.921 0 1.645.264 2.175.792.552.527.828 1.262.828 2.203v6.059c0 .78.069 1.365.207 1.755.254.85 1.197 1.274 2.831 1.274 1.473 0 2.37-.31 2.693-.93.161-.32.253-.608.276-.86.046-.276.069-.677.069-1.205v-6.059c0-2.524-.771-4.659-2.313-6.403zM18.983 34.43h7.339c.8 0 1.569-.318 2.135-.882a3.008 3.008 0 00.885-2.13V19.369c0-.799-.318-1.565-.885-2.13a3.025 3.025 0 00-2.135-.882h-4.315c-.802 0-1.57.317-2.136.882a3.008 3.008 0 00-.885 2.13v12.91h-.003v2.15zm-8.63-2.151h.003V14.89c0-2.396-2.67-3.833-4.677-2.516l-4.315 2.825A3.008 3.008 0 000 17.717v13.7c0 .8.318 1.566.885 2.13a3.025 3.025 0 002.136.883h7.332v-2.151z"/></symbol><symbol id="icon-fisher" viewBox="0 0 144 26"><path fill-rule="evenodd" clip-rule="evenodd" d="M51.569 3.968c.057-1.051.12-2.114.188-3.188H35.952l-.548 24.719 8.673-.172-.034-10.148 6-.171.343-5.314h-6.309v-2.16l7.269-.377c.091-1.075.166-2.138.223-3.189zm8.81 20.742l1.2-23.348-9.119.48.686 23.245 7.234-.377zm19.355-3.925c.548-1.143.822-2.497.822-4.063 0-.914-.137-1.749-.411-2.503a5.408 5.408 0 00-1.166-1.971 5.623 5.623 0 00-1.851-1.32c-.731-.332-1.554-.526-2.469-.583a5.141 5.141 0 00-.703.017 34.01 34.01 0 00-.925.052c-.332.011-.669.017-1.012.017-.33 0-.64-.029-.925-.086a1.896 1.896 0 01-.686-.309c-.171-.137-.263-.331-.274-.582a.816.816 0 01.171-.566c.126-.16.292-.286.497-.377.206-.103.44-.183.703-.24.263-.057.52-.097.772-.12.263-.035.508-.052.737-.052.24-.011.434-.017.583-.017.81 0 1.64.092 2.485.274.857.172 1.675.389 2.452.652l.65-6.96a10.19 10.19 0 00-1.593-.6 16.602 16.602 0 00-3.497-.6A22.58 22.58 0 0072.362.78c-1.257 0-2.474.2-3.651.6a9.87 9.87 0 00-3.137 1.73 8.476 8.476 0 00-2.177 2.727c-.537 1.062-.806 2.268-.806 3.617 0 .982.16 1.88.48 2.69.32.8.766 1.487 1.337 2.058.583.56 1.275.994 2.075 1.303.811.308 1.708.463 2.69.463h.55c.228 0 .474.011.737.034.262.023.531.063.805.12.275.046.52.12.737.223a1.4 1.4 0 01.532.377.778.778 0 01.206.548c0 .32-.098.566-.292.738a1.988 1.988 0 01-.72.394c-.274.08-.566.131-.874.154a14.376 14.376 0 01-4.285-.429 12.283 12.283 0 01-3.224-1.336l-.754 6.72a47.71 47.71 0 001.68.736c.64.252 1.303.492 1.989.72.685.218 1.36.4 2.022.549a8.67 8.67 0 001.852.223c1.451 0 2.805-.172 4.063-.515 1.268-.354 2.37-.897 3.308-1.628a7.714 7.714 0 002.229-2.811zm13.713 4.44l8.572-.412-.549-23.416-7.817-.206-.034 12.891h-3.806l.514-12.308-8.16-.377-.65 24.102h7.679l.24-7.508h3.943l.068 7.233zm29.125-10.595c.137-.994.206-1.988.206-2.982 0-.937-.08-1.857-.24-2.76a12.525 12.525 0 00-.703-2.589 9.759 9.759 0 00-1.2-2.262 7.62 7.62 0 00-1.714-1.766 7.356 7.356 0 00-2.246-1.166c-.834-.285-1.76-.428-2.777-.428-1.223 0-2.343.177-3.36.531a9.413 9.413 0 00-2.708 1.474c-.8.629-1.503 1.366-2.109 2.212a13.367 13.367 0 00-1.491 2.725c-.389.983-.68 2.006-.874 3.069a17.635 17.635 0 00-.292 3.188c0 1.017.097 2.023.292 3.017.194.995.48 1.937.857 2.829a11.48 11.48 0 001.422 2.468 9.876 9.876 0 001.989 1.972 9.41 9.41 0 002.554 1.285c.937.309 1.972.463 3.103.463.549 0 1.109-.034 1.68-.103a12.343 12.343 0 001.697-.325 9.63 9.63 0 001.611-.583 7.437 7.437 0 001.457-.874l.823-7.783c-.354.24-.777.508-1.268.806a19.93 19.93 0 01-1.543.84c-.537.251-1.08.462-1.629.634a4.928 4.928 0 01-1.491.257c-.88 0-1.64-.246-2.28-.737-.628-.492-1.091-1.149-1.388-1.971 1.931-.275 3.862-.55 5.794-.823a70.907 70.907 0 015.828-.617zm-6.754-4.85c.069.33.103.656.103.976v.377l-5.074.48c.08-.365.2-.765.36-1.2.16-.434.365-.834.617-1.2.251-.377.548-.685.891-.925.355-.252.76-.377 1.217-.377.377 0 .692.091.943.274.252.171.452.394.6.669.16.274.274.582.343.925zm27.942 1.628c.16-.732.24-1.543.24-2.434 0-1.429-.286-2.68-.857-3.755a8.027 8.027 0 00-2.246-2.69c-.937-.72-2.017-1.258-3.24-1.612a12.973 12.973 0 00-3.771-.549c-.846 0-1.674.023-2.486.069-.8.034-1.594.108-2.382.223-.778.102-1.555.251-2.332.445-.777.195-1.565.44-2.365.737a110.427 110.427 0 00-.137 3.909l-.069 3.908c-.069 2.606-.132 5.2-.189 7.783-.045 2.583-.097 5.177-.154 7.782h7.371l.309-7.13 2.125-.07 2.64 7.303 7.714-1.508-4.08-7.268c.743-.469 1.378-.96 1.903-1.475a7.129 7.129 0 001.286-1.68 7.135 7.135 0 00.72-1.988zm-7.645-3.206c.137.4.205.84.205 1.32 0 .572-.131 1.063-.394 1.474a3.113 3.113 0 01-.994 1.012 4.36 4.36 0 01-1.372.583 6.16 6.16 0 01-1.491.188h-.411l.274-6.377a3.89 3.89 0 01.634-.12 4.28 4.28 0 01.669-.051c.514 0 .959.086 1.337.257.388.16.708.389.96.686.263.285.457.628.583 1.028zM7.392 13.723c.754-3.262 2.879-7.793 6.95-10.143 6.219-3.59 14.604-.71 15.44.737.836 1.448-.863 10.15-7.082 13.741-4.07 2.35-9.056 1.925-12.259.948l-2.226 5.27c-.309.73-1.383.762-1.61.045l-1.773-5.599L.87 14.389c-.508-.555.056-1.47.845-1.372l5.676.707zm13.999-4.56a1.254 1.254 0 102.171-1.255 1.254 1.254 0 00-2.171 1.254z"/></symbol><symbol id="icon-logo" viewBox="0 0 272 42"><path fill-rule="evenodd" clip-rule="evenodd" d="M30.22 4.441c0-2.022-1.065-3.033-3.195-3.033-1.841 0-4.242.867-7.203 2.6-2.924 1.733-5.94 4.387-9.044 7.961-3.105 3.538-5.272 7.257-6.5 11.157-.505 1.552-.758 2.996-.758 4.332 0 1.3.38 2.438 1.138 3.412 1.336 1.733 3.52 2.618 6.553 2.654h.596c3.357 0 6.986-.848 10.885-2.545 3.839-1.706 6.925-4.182 9.26-7.427.29-.609.636-1.22 1.04-1.834.83-1.3 1.804-2.438 2.924-3.412 1.769-1.553 3.448-2.33 5.036-2.33.398 0 .777.055 1.138.163 1.083.361 1.624 1.047 1.624 2.058 0 .83-.216 1.246-.65 1.246-.18-.072-.27-.343-.27-.813 0-.65-.361-.974-1.083-.974-1.264 0-2.889 1.155-4.875 3.466-1.986 2.31-3.177 4.64-3.574 6.986a7.62 7.62 0 00-.108 1.354c0 .47.162 1.03.487 1.68.325.613.92.92 1.787.92.903 0 1.878-.397 2.925-1.192 1.047-.794 1.986-1.805 2.816-3.033l-.162-.325c-.145-.577-.073-1.047.216-1.408.289-.36.668-.469 1.138-.325.65-1.335.974-2.364.974-3.087 0-.722-.09-1.281-.27-1.678-.145-.434-.073-.795.216-1.084.325-.288.722-.397 1.192-.325.722.18 1.083.993 1.083 2.438 0 1.444-.849 3.34-2.546 5.686.037.975.542 1.462 1.517 1.462.974 0 2.455-1.047 4.44-3.14.94-1.084 1.517-1.788 1.734-2.113a1.84 1.84 0 01.14-.162 309.08 309.08 0 001.354-3.846c.18-.433.289-.794.325-1.083a8.37 8.37 0 01.217-.812c.072-.217.198-.451.379-.704.216-.29.487-.433.812-.433.325-.037.74 0 1.246.108.505.072.758.289.758.65 0 .252-.199.812-.596 1.679-.397.83-1.534 3.736-3.412 8.72 1.3-1.59 2.943-3.413 4.929-5.47 1.986-2.095 3.664-3.684 5.036-4.767 1.372-.975 2.492-1.462 3.358-1.462.83 0 1.246.451 1.246 1.354 0 .866-.415 2.076-1.246 3.628-.83 1.553-1.444 2.817-1.841 3.792-.686 1.66-1.03 2.996-1.03 4.007 0 .975.145 1.625.434 1.95.542.578 1.282.614 2.22.108.94-.541 2.24-1.552 3.9-3.033 1.697-1.516 3.05-2.996 4.062-4.44a.506.506 0 01.148-.132c1.063-1.43 2.605-2.884 4.627-4.364 2.961-2.166 5.308-3.25 7.04-3.25.434 0 .85.055 1.247.163 1.01.361 1.516.939 1.516 1.733 0 .542-.199 1.156-.596 1.842-.397.686-.704.939-.92.758-.18-.217-.235-.433-.163-.65l.27-1.083c0-.722-.27-1.083-.811-1.083-1.48 0-3.503 1.155-6.066 3.466-2.564 2.31-4.189 4.64-4.875 6.986-.18.614-.27 1.174-.27 1.68 0 .469.108.866.325 1.19.433.65 1.1.975 2.004.975.902 0 1.877-.126 2.924-.379 2.31-.65 4.224-1.57 5.74-2.762 1.553-1.227 3.178-2.924 4.875-5.09a.49.49 0 01.256-.184c1.06-1.413 2.59-2.85 4.588-4.312 2.96-2.166 5.307-3.25 7.04-3.25 1.95 0 2.925.94 2.925 2.817 0 .975-.271 1.77-.812 2.383-.903 1.336-2.365 2.51-4.387 3.52-2.022.975-3.737 1.517-5.145 1.625-.506.036-.777-.108-.813-.433-.036-.145 0-.235.109-.271.144-.036.252-.054.325-.054.83-.072 1.895-.47 3.195-1.192 2.419-1.3 4.188-2.635 5.307-4.007.47-.65.704-1.264.704-1.842 0-.614-.288-.92-.866-.92-.469 0-1.101.198-1.896.595-1.697.795-3.484 2.185-5.361 4.17-1.878 1.95-3.105 3.864-3.683 5.741a5.784 5.784 0 00-.27 1.733c0 .542.234 1.066.703 1.57.47.506 1.192.76 2.166.76 1.084 0 2.33-.29 3.737-.867 3.488-1.42 6.29-3.46 8.405-6.12.035-.051.073-.105.116-.163l.209-.256c.241-.321.472-.651.694-.99.09-.12.177-.2.261-.238a44.242 44.242 0 003.873-6.152c-.433-.072-.758-.217-.975-.433-.216-.253-.234-.65-.054-1.192.181-.578.722-1.336 1.625-2.274.939-.94 1.751-1.571 2.437-1.896a32.13 32.13 0 011.3-.596c.18-.072.379-.108.596-.108.433 0 .288.65-.434 1.95l-2.112 3.357a64.11 64.11 0 004.17.163l1.896-.054c.614 0 1.065.09 1.354.27.289.145.361.416.216.813-.252.686-.884 1.607-1.895 2.762-2.166 2.527-3.791 5.217-4.874 8.07-.253.686-.379 1.281-.379 1.787 0 1.047.379 1.57 1.137 1.57.253 0 .722-.198 1.408-.595.722-.398 1.914-1.336 3.574-2.817a32.577 32.577 0 002.419-2.438c1.584-1.99 2.844-3.687 3.779-5.09 0-.036.397-.794 1.191-2.274a5.78 5.78 0 01-1.137.108c-.361 0-.632-.108-.812-.325-.181-.253-.199-.541-.054-.866.252-.578 1.209-.903 2.87-.975.036-.072.108-.109.217-.109l2.708-5.036c.144-.29.306-.578.487-.867.181-.325.307-.56.379-.704l.325-.542c.108-.18.199-.306.271-.379l.216-.216c.145-.217.56-.325 1.246-.325.722 0 1.21.198 1.462.596.109.144.163.397.163.758 0 .325-.126.704-.379 1.137-.253.397-.524.686-.813.867-.288.18-.487.379-.595.595l-2.6 4.55.704-.054c2.78-.253 4.459-.38 5.037-.38.614 0 .921.09.921.271 0 .217-.434.452-1.3.704-.831.217-2.889.506-6.174.867-.181.325-.397.704-.65 1.137-.542.867-.831 1.39-.867 1.57-2.058 4.117-3.141 6.734-3.249 7.854a11.7 11.7 0 00-.054 1.245c0 .506.144.921.433 1.246.505.578 1.227.614 2.166.108.939-.505 2.239-1.516 3.9-3.033 1.69-1.51 3.058-2.985 4.103-4.423.308-.67.683-1.344 1.127-2.021a15.73 15.73 0 012.925-3.412c1.769-1.553 3.448-2.33 5.037-2.33.397 0 .776.055 1.137.163 1.083.361 1.625 1.047 1.625 2.058 0 .83-.217 1.246-.65 1.246-.181-.072-.271-.343-.271-.813 0-.65-.361-.974-1.083-.974-1.264 0-2.889 1.155-4.874 3.466-1.986 2.31-3.178 4.64-3.575 6.986a7.64 7.64 0 00-.108 1.354c0 .47.162 1.03.487 1.68.325.613.921.92 1.788.92.902 0 1.877-.397 2.924-1.192 1.047-.794 1.986-1.805 2.816-3.033l-.162-.325c-.145-.577-.072-1.047.216-1.408.289-.36.668-.469 1.138-.325.65-1.335.975-2.364.975-3.087 0-.722-.091-1.281-.271-1.678-.145-.434-.072-.795.217-1.084.324-.288.722-.397 1.191-.325.722.18 1.083.993 1.083 2.438 0 1.444-.848 3.34-2.545 5.686.036.975.541 1.462 1.516 1.462s2.455-1.047 4.441-3.14c.939-1.084 1.517-1.788 1.733-2.113.253-.325.47-.433.65-.325.181.072.271.145.271.217 0 .36-.65 1.3-1.95 2.816-2.058 2.527-3.881 3.791-5.47 3.791-1.047 0-1.787-.451-2.22-1.354a58.069 58.069 0 01-2.112 2.112c-1.409 1.192-2.979 1.788-4.712 1.788-.975 0-1.787-.235-2.437-.704-1.264-.759-1.896-2.113-1.896-4.062 0-.634.064-1.27.191-1.91-.395.469-.867.997-1.414 1.585-2.311 2.49-4.242 4.025-5.795 4.603-.903.325-1.661.488-2.275.488-1.444 0-2.401-.686-2.87-2.058a3.399 3.399 0 01-.108-.921c0-1.264.577-3.178 1.733-5.741-.181.397-.885 1.3-2.112 2.708a1.888 1.888 0 01-.065.068c-.241.274-.498.558-.771.853-1.408 1.516-2.78 2.744-4.116 3.682-1.3 1.011-2.708 1.517-4.225 1.517-1.841 0-2.762-1.101-2.762-3.304 0-2.238 1.589-4.982 4.766-8.232a6.22 6.22 0 00.542-.596l.379-.541c.505-.686.74-1.12.704-1.3l-.163-.487c-.144-.434-.74-.74-1.787-.921-1.047-.217-1.895-.325-2.545-.325-3.25 4.585-5.127 7.203-5.633 7.853a6.946 6.946 0 01-.319.384 19.58 19.58 0 01-3.219 3.461c-3.214 2.744-6.337 4.116-9.37 4.116-2.6 0-4.422-.776-5.47-2.329-.397-.613-.595-1.354-.595-2.22 0-.505.08-1.064.238-1.679a25.839 25.839 0 01-3.403 3.195c-1.877 1.444-4.062 2.383-6.553 2.817a13.61 13.61 0 01-2.004.162c-1.77 0-3.123-.433-4.062-1.3-.903-.866-1.354-1.823-1.354-2.87 0-.582.078-1.192.234-1.829-.213.24-.439.49-.677.746-1.408 1.516-2.762 2.744-4.061 3.682-1.3.903-2.582 1.354-3.846 1.354-1.227-.036-2.094-.325-2.6-.866-.505-.506-.758-1.155-.758-1.95 0-.794.073-1.552.217-2.274.145-.759.415-1.625.812-2.6.65-1.553 1.21-2.762 1.68-3.629.505-.866.758-1.426.758-1.679 0-.288-.145-.433-.434-.433-.577 0-1.679.704-3.303 2.112-1.12 1.047-2.78 3.033-4.983 5.958-2.166 2.888-3.394 4.423-3.683 4.603-1.3.65-2.112.975-2.437.975-.325 0-.487-.054-.487-.163 0-.108.036-.27.108-.487.072-.18.415-1.155 1.029-2.924.379-1.032.77-2.119 1.174-3.26l-.285.335c-2.058 2.527-3.882 3.791-5.47 3.791-1.047 0-1.787-.451-2.22-1.354a58.149 58.149 0 01-2.113 2.112c-1.408 1.192-2.978 1.788-4.712 1.788-.974 0-1.787-.235-2.437-.704-1.263-.759-1.895-2.113-1.895-4.062 0-.72.082-1.445.247-2.174-2.318 2.59-5.02 4.615-8.109 6.073-3.9 1.841-7.672 2.762-11.319 2.762-3.827 0-6.716-1.083-8.665-3.25-1.264-1.407-1.896-3.249-1.896-5.524 0-3.827 1.444-7.943 4.333-12.348C9.35 7.763 14.117 3.611 19.714 1.3 21.88.433 23.956 0 25.942 0c2.455 0 4.206.578 5.253 1.733a4.098 4.098 0 011.03 2.762c0 1.986-1.048 4.026-3.142 6.12-2.094 2.094-4.423 3.773-6.986 5.037-2.528 1.227-4.73 1.932-6.608 2.112-.758.072-1.119-.126-1.083-.596.036-.65.488-1.01 1.354-1.083 2.889-.253 5.542-1.12 7.961-2.6C26.142 11.97 28 9.966 29.3 7.474c.614-.975.92-1.986.92-3.033zM0 40.186h152.819v1.3H0v-1.3zm168.91-.777l13.179-31.93h-1.805a.84.84 0 00-.542.18.963.963 0 00-.316.429L168.572 34.58a9.606 9.606 0 00-.361 1.06c-.106.377-.203.76-.294 1.152a25.723 25.723 0 00-.338-1.151c-.121-.376-.241-.73-.361-1.06L156.341 8.087a1.034 1.034 0 00-.316-.43.752.752 0 00-.519-.18h-1.828l13.179 31.931h2.053zm29.559-16.721c.346.948.519 2.023.519 3.227h-14.871c.135-1.174.406-2.234.812-3.182a7.9 7.9 0 011.602-2.437 6.936 6.936 0 012.392-1.557c.918-.361 1.956-.542 3.114-.542 1.023 0 1.956.18 2.798.542.858.346 1.595.85 2.212 1.512.617.662 1.091 1.474 1.422 2.437zm-14.465 5.032v-.429h16.338c.21 0 .361-.06.451-.18.09-.12.135-.346.135-.677 0-1.58-.233-2.979-.699-4.197-.452-1.219-1.076-2.242-1.873-3.07a7.902 7.902 0 00-2.821-1.918c-1.083-.436-2.257-.654-3.52-.654-1.595 0-3.024.278-4.288.835a9.132 9.132 0 00-3.182 2.324c-.857.978-1.519 2.152-1.985 3.52-.452 1.355-.677 2.836-.677 4.446 0 1.91.241 3.61.722 5.1.496 1.474 1.196 2.723 2.098 3.746a9.017 9.017 0 003.25 2.347c1.264.527 2.663.79 4.197.79.843 0 1.678-.083 2.505-.248a14.811 14.811 0 002.347-.655 10.234 10.234 0 001.986-1.015c.602-.392 1.083-.813 1.444-1.264l-.587-.722a.516.516 0 00-.451-.226c-.15 0-.391.128-.722.384-.331.24-.782.519-1.354.835-.557.3-1.249.579-2.076.835-.828.24-1.806.36-2.934.36-1.264 0-2.407-.217-3.43-.654a6.936 6.936 0 01-2.618-1.94c-.722-.873-1.278-1.949-1.67-3.227-.39-1.28-.586-2.761-.586-4.446zm28.41-9.951c-1.354.782-2.55 1.82-3.588 3.114l-.203-3.363c-.06-.376-.279-.564-.655-.564h-1.196V39.41h2.167V22.53c.993-1.323 2.121-2.354 3.385-3.09a7.964 7.964 0 014.107-1.129c1.971 0 3.437.602 4.4 1.805.963 1.189 1.444 2.836 1.444 4.942V39.41h2.167V25.057c0-1.308-.158-2.482-.474-3.52-.316-1.038-.782-1.926-1.399-2.663-.617-.737-1.399-1.301-2.347-1.692-.933-.391-2.016-.587-3.25-.587-1.67 0-3.189.391-4.558 1.174zm36.593 21.64V16.956h-2.166v16.88c-.993 1.323-2.129 2.361-3.408 3.114a7.968 7.968 0 01-4.084 1.105c-1.971 0-3.437-.594-4.401-1.782-.962-1.204-1.444-2.859-1.444-4.965V16.956h-2.166v14.352c0 1.309.158 2.482.474 3.52.316 1.038.782 1.926 1.399 2.663a6.013 6.013 0 002.324 1.693c.933.391 2.024.586 3.272.586 1.67 0 3.182-.39 4.536-1.173 1.369-.782 2.573-1.82 3.611-3.114l.203 3.34c.06.39.278.586.654.586h1.196zm14.434-10.335c1.549-.27 3.392-.444 5.529-.519v5.867a24.91 24.91 0 01-1.603 1.512c-.541.467-1.128.873-1.76 1.219a9.346 9.346 0 01-2.031.79c-.722.18-1.519.27-2.392.27a5.753 5.753 0 01-1.692-.248 4.165 4.165 0 01-1.444-.767 4.139 4.139 0 01-.993-1.354c-.241-.557-.361-1.211-.361-1.963 0-.798.24-1.505.722-2.122.481-.631 1.218-1.173 2.211-1.624 1.008-.452 2.279-.805 3.814-1.06zm-3.972-11.599c-1.294.602-2.527 1.49-3.701 2.663l.384.654c.075.12.165.218.271.294a.68.68 0 00.406.113c.226 0 .504-.15.835-.452.331-.3.759-.632 1.286-.993.526-.36 1.166-.692 1.918-.993.768-.3 1.693-.45 2.776-.45 1.76 0 3.084.563 3.972 1.692.902 1.113 1.354 2.707 1.354 4.784v2.346c-2.543.06-4.724.271-6.545.632-1.805.361-3.287.843-4.445 1.444-1.159.602-2.009 1.31-2.55 2.122a4.664 4.664 0 00-.813 2.64c0 1.023.166 1.903.497 2.64.346.722.797 1.317 1.354 1.783a5.744 5.744 0 001.941 1.038 7.44 7.44 0 002.234.338c.917 0 1.76-.09 2.527-.27a9.797 9.797 0 002.144-.768c.661-.33 1.293-.737 1.895-1.218a22.35 22.35 0 001.851-1.625l.316 2.889c.105.42.383.631.835.631h.857V24.787c0-1.25-.151-2.377-.451-3.385-.301-1.023-.753-1.888-1.354-2.596a5.604 5.604 0 00-2.234-1.647c-.903-.391-1.956-.586-3.159-.586-1.641 0-3.107.3-4.401.902z"/></symbol><symbol id="icon-squared" viewBox="0 0 149 27"><path fill-rule="evenodd" clip-rule="evenodd" d="M12.277 22.666h1.89a.945.945 0 01.943.944v1.89a.945.945 0 01-.944.944h-1.889a.945.945 0 01-.944-.944v-1.89a.944.944 0 01.944-.944zm-5.666 0H8.5a.944.944 0 01.944.944v1.89a.945.945 0 01-.944.944H6.61a.945.945 0 01-.944-.944v-1.89a.944.944 0 01.945-.944zm11.333 0h1.889a.944.944 0 01.944.944v1.89a.944.944 0 01-.945.944h-1.888a.945.945 0 01-.945-.944v-1.89a.945.945 0 01.945-.944zm5.666-11.333h1.89a.944.944 0 01.944.944v1.89a.945.945 0 01-.944.943h-1.89a.944.944 0 01-.944-.944v-1.889a.944.944 0 01.944-.944zm0 5.666h1.89a.945.945 0 01.944.945v1.889a.944.944 0 01-.944.944h-1.89a.944.944 0 01-.944-.945v-1.888a.945.945 0 01.944-.945zm0 5.667h1.89a.945.945 0 01.944.944v1.89a.945.945 0 01-.944.944h-1.89a.945.945 0 01-.944-.944v-1.89a.944.944 0 01.944-.944zm0-17h1.89a.945.945 0 01.944.945V8.5a.945.945 0 01-.944.944h-1.89a.944.944 0 01-.944-.944V6.61a.944.944 0 01.944-.944zM1.89 0H25.5a.945.945 0 01.944.944v1.89a.945.945 0 01-.944.944H3.778v21.72a.945.945 0 01-.945.945H.944A.945.945 0 010 25.5V1.889A1.889 1.889 0 011.889 0zm43.004 18.65c-1.8 0-5.242-.14-10.327-.418v3.758c2.023.167 3.98.297 5.874.39l2.56.11a85.72 85.72 0 003.007.056c1.818 0 3.154-.427 4.008-1.28.854-.854 1.28-2.19 1.28-4.008v-1.392c0-1.819-.426-3.155-1.28-4.008-.854-.854-2.19-1.28-4.008-1.28h-5.01c-1.114 0-1.67-.557-1.67-1.67V8.35c0-1.114.556-1.67 1.67-1.67h8.656V2.783h-9.77c-1.949 0-3.368.445-4.259 1.336-.872.872-1.308 2.282-1.308 4.23v.836c0 1.948.436 3.368 1.308 4.258.89.872 2.31 1.309 4.259 1.309h6.402v2.505c0 .427-.13.77-.39 1.03-.24.24-.575.361-1.002.361zm18.23-.14a19.32 19.32 0 01-3.34.279h-.696a.944.944 0 01-.696-.279.944.944 0 01-.278-.696v-5.427c0-.743.37-1.114 1.113-1.114h3.897v7.237zm-4.732 4.036c1.355 0 2.932-.185 4.732-.556V27h4.871V7.515h-10.3c-1.392 0-2.486.4-3.284 1.197-.78.78-1.17 1.865-1.17 3.257v6.402c0 1.262.381 2.273 1.142 3.034.76.761 1.772 1.141 3.034 1.141h.974zm22.55-4.592c-1.243.37-2.357.556-3.34.556h-.975a.945.945 0 01-.696-.278.945.945 0 01-.278-.696V7.516h-4.871V18.37c0 1.262.38 2.273 1.141 3.034.761.761 1.772 1.141 3.034 1.141h1.253c.63 0 1.4-.13 2.31-.39a10.238 10.238 0 002.7-1.28l.278 1.392h4.315V7.515H80.94v10.439zm16.83.139c-1.243.371-2.356.556-3.34.556h-.696a.944.944 0 01-.696-.278.944.944 0 01-.278-.696v-.278c0-.278.093-.51.278-.696a.944.944 0 01.696-.278h4.036v1.67zm.696-10.856c-2.728 0-5.79.186-9.186.557v3.48c.891-.056 2.06-.14 3.508-.251a53.271 53.271 0 014.008-.167c.278 0 .51.092.696.278a.944.944 0 01.278.696v1.113h-5.706c-1.262 0-2.273.38-3.034 1.142-.76.76-1.141 1.772-1.141 3.034v1.252c0 1.262.38 2.273 1.141 3.034.76.761 1.772 1.141 3.034 1.141h.974c.631 0 1.401-.13 2.31-.39a10.24 10.24 0 002.7-1.28l.279 1.392h4.314V11.412c0-1.262-.38-2.273-1.141-3.034-.761-.76-1.772-1.14-3.034-1.14zm11.544 5.15c1.243-.557 2.449-.835 3.619-.835h2.365V7.237h-1.252c-1.744 0-3.414.696-5.01 2.088l-.279-1.81h-4.314v14.753h4.871v-9.881zm11.981-.557c0-.742.371-1.114 1.113-1.114h2.506c.742 0 1.113.372 1.113 1.114v1.53h-4.732v-1.53zm-.696 10.716c2.913 0 6.161-.185 9.742-.556v-3.48c-3.544.279-6.235.418-8.072.418a.946.946 0 01-.696-.279.946.946 0 01-.278-.695V16.84h9.603v-5.15c0-1.391-.399-2.477-1.197-3.256-.779-.798-1.865-1.197-3.257-1.197h-5.567c-1.391 0-2.486.4-3.284 1.197-.779.78-1.169 1.865-1.169 3.257v6.68c0 1.262.38 2.273 1.141 3.034.761.761 1.772 1.141 3.034 1.141zm22.954-1.67l.278 1.392h4.314V2.784h-4.871v4.731h-5.706c-1.392 0-2.487.4-3.285 1.197-.779.78-1.169 1.865-1.169 3.257v6.402c0 1.262.38 2.273 1.141 3.034.761.761 1.772 1.141 3.034 1.141h1.253c.631 0 1.4-.13 2.311-.39a10.265 10.265 0 002.7-1.28zm-.279-2.922c-1.244.37-2.357.556-3.34.556h-.974a.943.943 0 01-.696-.278.943.943 0 01-.279-.696v-5.15c0-.742.371-1.113 1.114-1.113h4.175v6.68z"/></symbol><symbol id="icon-starlord" viewBox="0 0 155 29"><path fill-rule="evenodd" clip-rule="evenodd" d="M25.773 19.533l4.266-1.463c3.087-1.057 3.424-4.696.571-6.156l-3.943-2.02c-1.134-.58-1.862-1.602-1.948-2.734l-.3-3.935C24.2.376 20.278-1.022 17.777.858l-3.455 2.597c-.993.746-2.35 1.025-3.63.746L6.24 3.229C3.018 2.526.253 5.3 1.567 7.923l1.808 3.626c.52 1.041.41 2.237-.295 3.195L.629 18.078c-1.777 2.414.445 5.528 3.752 5.27l4.573-.358c1.314-.103 2.604.356 3.448 1.228l2.931 3.035c2.126 2.195 6.26 1.345 6.997-1.439l1.018-3.845c.292-1.106 1.2-2.016 2.425-2.436zM9.045 14.59a2.035 2.035 0 112.261 3.384 2.035 2.035 0 01-2.261-3.384zm8.141-6.106a2.036 2.036 0 112.262 3.385 2.036 2.036 0 01-2.262-3.385zm1.583 7.97a1.019 1.019 0 111.132 1.695 1.019 1.019 0 01-1.132-1.695zm25.566 8.076c3.853 0 5.779-1.596 5.779-4.787 0-1.026-.125-1.87-.376-2.53-.25-.684-.707-1.391-1.368-2.12L42.25 9.21c-.548-.502-.901-.98-1.06-1.436-.16-.456-.24-1.083-.24-1.88 0-.799.262-1.426.786-1.881.548-.456 1.357-.684 2.428-.684 1.072 0 1.87.228 2.394.684.547.455.82 1.094.82 1.914v3.044h2.394V6.065c0-3.191-1.835-4.787-5.505-4.787-1.915 0-3.351.422-4.309 1.265-.934.82-1.401 1.995-1.401 3.522 0 1.026.125 1.88.376 2.565.273.66.763 1.345 1.47 2.051l6.018 5.882c.524.524.866 1.026 1.026 1.504.182.456.273 1.083.273 1.88 0 .776-.285 1.391-.855 1.847-.57.456-1.413.684-2.53.684-1.117 0-1.96-.228-2.53-.684-.57-.456-.855-1.094-.855-1.915v-3.043h-2.394v2.907c0 3.191 1.927 4.787 5.78 4.787zM63.28 1.79h-7.522v18.295c0 1.436.387 2.541 1.162 3.316.798.753 1.847 1.129 3.146 1.129 1.3 0 2.325-.376 3.077-1.129.776-.775 1.163-1.88 1.163-3.316v-3.933h-2.394v4.07c0 .66-.16 1.208-.478 1.64-.32.411-.787.616-1.402.616-.593 0-1.06-.216-1.402-.65-.32-.433-.479-.968-.479-1.607V3.843h5.13V1.79zm15.387 22.227h1.026V6.065c0-1.527-.467-2.701-1.402-3.522-.912-.843-2.28-1.265-4.103-1.265-1.824 0-3.191.422-4.103 1.265-.89.82-1.334 1.995-1.334 3.522v1.88h2.394V5.929c0-1.732 1.014-2.598 3.043-2.598 1.026 0 1.8.228 2.325.684.524.455.787 1.094.787 1.914v5.608h-3.967c-3.282 0-4.924 1.596-4.924 4.787v3.42c0 3.191 1.642 4.787 4.924 4.787.935 0 1.79-.24 2.565-.718a5.811 5.811 0 001.88-1.984l.89 2.189zm-5.334-10.43H77.3v5.574c-.046.73-.48 1.47-1.3 2.223-.82.73-1.71 1.094-2.667 1.094-.957 0-1.618-.24-1.983-.718-.365-.479-.547-1.151-.547-2.017v-3.42c0-.866.182-1.538.547-2.017.365-.479 1.026-.718 1.983-.718zm12.857 10.43h2.394V8.39c0-1.641.307-2.895.923-3.761.638-.866 1.333-1.3 2.086-1.3 1.253 0 1.88.753 1.88 2.257v2.36h2.291V5.723c0-2.963-1.356-4.445-4.069-4.445-1.595 0-2.758 1.014-3.487 3.043l-.992-2.53H86.19v22.226zM99.88 1.79v22.226h8.652v-2.052h-6.258V1.791h-2.393zm23.87 17.952V6.065c0-1.527-.49-2.701-1.471-3.522-.98-.843-2.439-1.265-4.376-1.265-1.915 0-3.363.422-4.343 1.265-.957.82-1.436 1.995-1.436 3.522v13.678c0 1.527.49 2.712 1.47 3.556.98.82 2.428 1.23 4.343 1.23 1.937 0 3.385-.41 4.342-1.23.981-.844 1.471-2.029 1.471-3.556zm-2.394-13.678v13.678c0 1.823-1.14 2.735-3.419 2.735-2.28 0-3.42-.912-3.42-2.735V6.065c0-1.823 1.14-2.735 3.42-2.735 2.279 0 3.419.912 3.419 2.735zm8.712 17.952h2.393V8.39c0-1.641.308-2.895.923-3.761.639-.866 1.334-1.3 2.086-1.3 1.254 0 1.881.753 1.881 2.257v2.36h2.291V5.723c0-2.963-1.356-4.445-4.069-4.445-1.596 0-2.758 1.014-3.488 3.043l-.992-2.53h-1.025v22.226zm13.691 0h5.505c1.801 0 3.157-.41 4.069-1.231.912-.844 1.368-2.029 1.368-3.556V6.578c0-1.504-.468-2.678-1.402-3.522-.912-.843-2.257-1.265-4.035-1.265h-5.505v22.226zm8.548-17.439V19.23c0 1.823-1.014 2.735-3.043 2.735h-3.112V3.843h3.112c.98 0 1.732.239 2.257.718.524.478.786 1.15.786 2.017z"/></symbol><symbol id="icon-menu" viewBox="0 0 20 14"><path d="M1 7h18M1 1h18M1 13h18" stroke-width="2" stroke-linecap="round" stroke-linejoin="round"/></symbol><symbol id="icon-play" viewBox="0 0 84 84"><path fill-rule="evenodd" clip-rule="evenodd" d="M42 84c23.196 0 42-18.804 42-42S65.196 0 42 0 0 18.804 0 42s18.804 42 42 42zm0-9c18.225 0 33-14.775 33-33S60.225 9 42 9 9 23.775 9 42s14.775 33 33 33z"/><path d="M33 26l25 15.5L33 57V26z" stroke-width="2" stroke-linecap="round" stroke-linejoin="round"/></symbol><symbol id="icon-plus" viewBox="0 0 152 152"><path fill-rule="evenodd" clip-rule="evenodd" d="M75.77 8C38.341 8 8 38.342 8 75.77s30.342 67.769 67.77 67.769 67.769-30.341 67.769-67.77C143.539 38.341 113.198 8 75.769 8zM0 75.77C0 33.922 33.923 0 75.77 0c41.846 0 75.769 33.923 75.769 75.77 0 41.846-33.923 75.769-75.77 75.769C33.923 151.539 0 117.616 0 75.769zm75.77-32.708a4 4 0 014 4v24.707h24.708a4 4 0 010 8H79.769v24.708a4 4 0 01-8 0V79.769H47.062a4 4 0 110-8H71.77V47.061a4 4 0 014-4z"/></symbol><symbol id="icon-send" viewBox="0 0 34 34"><path d="M17 33c8.837 0 16-7.163 16-16S25.837 1 17 1 1 8.163 1 17s7.163 16 16 16z" stroke-width="2" stroke-linecap="round" stroke-linejoin="round"/><path d="M17 23.4l6.4-6.4-6.4-6.4M10.6 17h12.8" stroke-width="2" stroke-linecap="round" stroke-linejoin="round"/></symbol><symbol id="icon-twitter" viewBox="0 0 55 55"><path fill-rule="evenodd" clip-rule="evenodd" d="M27.5 55C42.688 55 55 42.688 55 27.5S42.688 0 27.5 0 0 12.312 0 27.5 12.312 55 27.5 55zM14 20.25A6.25 6.25 0 0120.25 14h14.5A6.25 6.25 0 0141 20.25v14.5A6.25 6.25 0 0134.75 41h-14.5A6.25 6.25 0 0114 34.75v-14.5zM20.25 12A8.25 8.25 0 0012 20.25v14.5A8.25 8.25 0 0020.25 43h14.5A8.25 8.25 0 0043 34.75v-14.5A8.25 8.25 0 0034.75 12h-14.5zm8.017 10.689a4.8 4.8 0 10-1.408 9.496 4.8 4.8 0 001.408-9.496zM24.43 21.4a6.8 6.8 0 116.264 12.072A6.8 6.8 0 0124.43 21.4zm11.044-2.876a1 1 0 100 2h.015a1 1 0 100-2h-.015z"/></symbol></svg>