<svg width="146" height="32" viewBox="0 0 146 32" fill="none" xmlns="http://www.w3.org/2000/svg">
<path fill-rule="evenodd" clip-rule="evenodd" d="M63.6837 14.3373C64.0254 14.1175 64.4272 14.0001 64.8381 14C65.3889 14.0009 65.9169 14.2119 66.3064 14.5868C66.696 14.9616 66.9153 15.4698 66.9165 16C66.9165 16.3955 66.7946 16.7823 66.5662 17.1111C66.338 17.44 66.0135 17.6963 65.6339 17.8477C65.2542 17.9991 64.8363 18.0387 64.4333 17.9616C64.0302 17.8845 63.66 17.694 63.3694 17.4144C63.0788 17.1347 62.8808 16.7783 62.8005 16.3904C62.7204 16.0025 62.7614 15.6004 62.9186 15.2349C63.0759 14.8695 63.3421 14.5571 63.6837 14.3373ZM71.195 5.38281C76.1147 4.82813 78.0389 6.78125 78.7453 8C79.7334 9.70568 79.7264 12.1868 77.6306 15.2805C77.6666 15.6692 77.6846 16.0662 77.6846 16.4716C77.6846 16.5796 77.6834 16.6871 77.6808 16.794C79.7264 19.8531 79.7254 22.3081 78.7453 24C76.9217 27.1556 72.4803 26.761 71.3119 26.6305C71.2608 26.6546 71.2094 26.6784 71.1578 26.702C69.7609 29.8588 67.6463 32 64.8381 32C62.0046 32 59.8775 29.8204 58.4811 26.6172L58.4774 26.6176C57.5189 26.728 52.8199 27.2692 50.9309 24C49.9061 22.2311 49.9516 19.628 52.2873 16.3726C52.289 16.1325 52.2971 15.8954 52.3116 15.6611C49.952 12.39 49.9026 9.77507 50.9309 8C51.6372 6.78125 53.5613 4.83594 58.4811 5.38281C59.8776 2.17969 62.0046 0 64.8381 0C67.6714 0 69.7986 2.17969 71.195 5.38281ZM63.2994 5.21297C63.851 4.42886 64.3982 4 64.8381 4C65.2731 4 65.813 4.41941 66.3583 5.18705C65.9107 5.15326 65.4532 5.13636 64.9859 5.13636C64.4083 5.13636 63.8462 5.1619 63.2994 5.21297ZM64.5471 27.9437C64.6482 27.981 64.7455 28 64.8381 28C64.9267 28 65.0197 27.9826 65.1162 27.9484C65.0728 27.9486 65.0294 27.9488 64.9859 27.9488C64.8386 27.9488 64.6924 27.9471 64.5471 27.9437ZM61.952 20.1574C62.8062 20.7068 63.8106 21 64.8381 21C66.2158 21 67.5371 20.4732 68.5112 19.5356C69.4855 18.5978 70.0328 17.3261 70.0328 16C70.0328 15.0111 69.7281 14.0444 69.1573 13.2222C68.5866 12.3999 67.7752 11.759 66.826 11.3806C65.8768 11.0022 64.8322 10.9031 63.8245 11.0961C62.8168 11.289 61.8912 11.7652 61.1648 12.4645C60.4382 13.1637 59.9435 14.0546 59.7431 15.0246C59.5425 15.9945 59.6455 16.9999 60.0387 17.9135C60.4318 18.8271 61.0977 19.608 61.952 20.1574ZM15.1988 5.43466H10.4261L0 27.6364H4.74432L6.46307 23.9005H19.4318L21.2074 27.6364H25.9376L15.1988 5.43466ZM12.8551 10.108L17.6562 20.1932H8.18182L12.8551 10.108ZM27.8836 9.38352H36.0795V27.6364H40.5824V9.38352H48.7784V5.43466H27.8836V9.38352ZM87.2017 5.43466H82.6989V27.6364H87.2017V11.6705L95.2699 19.4403L103.338 11.6705V27.6364H107.841V5.43466H103.338L95.2699 13.5312L87.2017 5.43466ZM118.125 5.43466H113.594V27.6364H118.125V5.43466ZM123.423 11.983C122.827 13.3466 122.528 14.8192 122.528 16.4006C122.528 18.0199 122.817 19.535 123.395 20.946C123.982 22.3475 124.853 23.5692 126.009 24.6108C127.164 25.6431 128.603 26.4575 130.327 27.054C132.05 27.6412 134.053 27.9347 136.335 27.9347C138.125 27.9347 139.815 27.7168 141.406 27.2813C142.997 26.8362 144.399 26.2253 145.61 25.4489L143.537 22.0397C143.054 22.3143 142.533 22.57 141.974 22.8068C141.416 23.034 140.833 23.233 140.227 23.4033C139.631 23.5644 139.01 23.6922 138.367 23.7869C137.723 23.8816 137.074 23.929 136.42 23.929C134.981 23.929 133.688 23.7443 132.543 23.375C131.406 22.9962 130.44 22.4753 129.645 21.8125C128.859 21.1402 128.258 20.3447 127.841 19.4262C127.424 18.5076 127.216 17.4991 127.216 16.4006C127.216 15.3399 127.415 14.3693 127.812 13.4886C128.22 12.5985 128.807 11.8362 129.574 11.2017C130.35 10.5578 131.302 10.0606 132.429 9.71023C133.556 9.35038 134.839 9.17046 136.278 9.17046C136.875 9.17046 137.476 9.20833 138.082 9.28409C138.698 9.35985 139.29 9.46876 139.858 9.61079C140.436 9.74337 140.975 9.90909 141.477 10.108C141.989 10.3068 142.439 10.5341 142.827 10.7898L144.901 7.38068C143.603 6.63258 142.197 6.0786 140.682 5.71875C139.176 5.34943 137.519 5.16477 135.71 5.16477C133.646 5.16477 131.795 5.4536 130.156 6.03124C128.528 6.6089 127.145 7.40435 126.009 8.41761C124.882 9.4214 124.02 10.6098 123.423 11.983Z" fill="white"/>
</svg>
