<svg width="151" height="20" viewBox="0 0 151 20" fill="none" xmlns="http://www.w3.org/2000/svg">
<path fill-rule="evenodd" clip-rule="evenodd" d="M35.2221 3.77994C35.3864 3.59734 35.4686 3.37821 35.4686 3.12256C35.4686 2.86691 35.3408 2.61127 35.0851 2.35562C34.8477 2.08171 34.5008 1.84432 34.0443 1.64345C33.606 1.42433 33.0673 1.25085 32.4282 1.12303C31.8073 0.995202 31.1226 0.931291 30.3739 0.931291C29.2965 0.931291 28.2648 1.1139 27.2787 1.47911C26.3109 1.84432 25.4618 2.39214 24.7314 3.12256C24.0009 3.85299 23.4166 4.76601 22.9783 5.86165C22.5583 6.93903 22.3484 8.19901 22.3484 9.64159C22.3484 11.0842 22.5583 12.3442 22.9783 13.4215C23.3983 14.4989 23.9644 15.4028 24.6766 16.1332C25.407 16.8454 26.2652 17.3841 27.2513 17.7493C28.2374 18.1145 29.3056 18.2971 30.4561 18.2971C31.5882 18.2971 32.5195 18.1784 33.2499 17.941C33.9804 17.7219 34.5556 17.4663 34.9756 17.1741C35.4138 16.8637 35.6329 16.5167 35.6329 16.1332C35.6329 15.8776 35.5508 15.6585 35.3864 15.4759C35.2221 15.275 35.0486 15.138 34.866 15.065C34.3912 15.4302 33.7977 15.7498 33.0856 16.0237C32.3917 16.2793 31.57 16.4071 30.6204 16.4071C29.7256 16.4071 28.913 16.2702 28.1826 15.9963C27.4522 15.7041 26.8222 15.275 26.2926 14.7089C25.7813 14.1428 25.3796 13.4398 25.0874 12.5998C24.7953 11.7598 24.6492 10.7738 24.6492 9.64159C24.6492 8.5277 24.7953 7.54163 25.0874 6.68338C25.3979 5.82513 25.8179 5.11297 26.3474 4.54689C26.877 3.98081 27.4978 3.55169 28.21 3.25952C28.9222 2.96735 29.6982 2.82126 30.5382 2.82126C31.5608 2.82126 32.3917 2.96735 33.0308 3.25952C33.6699 3.55169 34.2269 3.86212 34.7016 4.19081C34.9025 4.0995 35.076 3.96255 35.2221 3.77994ZM40.8616 17.9958C41.0442 17.9593 41.1812 17.9228 41.2725 17.8863V7.91597C41.6925 7.58728 42.1764 7.31337 42.7242 7.09424C43.2903 6.85685 43.8929 6.73816 44.532 6.73816C45.518 6.73816 46.3124 7.00294 46.915 7.5325C47.5176 8.06205 47.8189 8.87465 47.8189 9.97028V17.0919C47.8189 17.7493 48.2115 18.078 48.9967 18.078C49.1976 18.078 49.3893 18.0506 49.5719 17.9958C49.7728 17.9593 49.9188 17.9228 50.0102 17.8863V9.9155C50.0102 9.07551 49.8823 8.34509 49.6267 7.72423C49.371 7.08511 49.0149 6.56468 48.5584 6.16295C48.1019 5.74296 47.5541 5.43253 46.915 5.23166C46.2941 5.03079 45.6002 4.93036 44.8333 4.93036C44.0846 4.93036 43.4089 5.03079 42.8063 5.23166C42.222 5.43253 41.7107 5.66078 41.2725 5.91643V0.986072C41.2725 0.328691 40.889 0 40.122 0C39.9029 0 39.6929 0.0273912 39.4921 0.0821729C39.3094 0.118694 39.1725 0.155215 39.0812 0.191736V17.0919C39.0812 17.7493 39.4738 18.078 40.259 18.078C40.4781 18.078 40.679 18.0506 40.8616 17.9958ZM60.3853 16.4893C57.7375 16.4893 56.1671 15.2932 55.6741 12.9011L64.1105 11.7233C64.4391 11.6868 64.6948 11.5863 64.8774 11.422C65.06 11.2394 65.1513 10.9472 65.1513 10.5455C65.1513 9.72377 65.0052 8.97508 64.7131 8.29944C64.4392 7.60554 64.0465 7.01207 63.5353 6.51903C63.0422 6.00774 62.4487 5.61513 61.7548 5.34122C61.0609 5.06732 60.3031 4.93036 59.4814 4.93036C58.6049 4.93036 57.7923 5.08558 57.0436 5.39601C56.2949 5.68817 55.6467 6.1173 55.0989 6.68338C54.5693 7.24946 54.1493 7.94336 53.8389 8.76509C53.5467 9.56855 53.4006 10.4907 53.4006 11.5316C53.4006 13.7411 54.0123 15.4211 55.2358 16.5715C56.4775 17.7219 58.1575 18.2971 60.2757 18.2971C60.8783 18.2971 61.4353 18.2423 61.9466 18.1328C62.4761 18.0232 62.9327 17.8771 63.3161 17.6945C63.7179 17.5119 64.0283 17.3019 64.2474 17.0645C64.4848 16.8271 64.6035 16.5806 64.6035 16.325C64.6035 15.8867 64.3844 15.5398 63.9461 15.2841C63.5809 15.5763 63.0879 15.8502 62.467 16.1058C61.8461 16.3615 61.1522 16.4893 60.3853 16.4893ZM56.6875 7.88858C57.418 7.10337 58.3401 6.71077 59.454 6.71077C60.5496 6.71077 61.3988 7.03946 62.0014 7.69684C62.6222 8.33596 62.9783 9.15769 63.0696 10.162L55.5371 11.2029C55.5736 9.76029 55.9571 8.65552 56.6875 7.88858ZM72.4525 7.09424C72.9821 6.87511 73.5573 6.76555 74.1782 6.76555C74.9451 6.76555 75.566 6.86598 76.0408 7.06685C76.5155 7.26772 76.9538 7.5051 77.3555 7.77901C77.5564 7.68771 77.7207 7.55989 77.8486 7.39554C77.9764 7.23119 78.0403 7.03946 78.0403 6.82033C78.0403 6.58294 77.9399 6.35469 77.739 6.13556C77.5564 5.89817 77.2916 5.68818 76.9447 5.50557C76.5977 5.32296 76.1777 5.18601 75.6847 5.09471C75.2099 4.98514 74.6895 4.93036 74.1234 4.93036C73.2286 4.93036 72.3795 5.07645 71.576 5.36861C70.7908 5.64252 70.1061 6.06252 69.5217 6.62859C68.9374 7.19467 68.4717 7.89771 68.1248 8.73769C67.7778 9.55942 67.6044 10.5272 67.6044 11.6411C67.6044 12.7733 67.7687 13.7594 68.0974 14.5993C68.4261 15.4211 68.8826 16.1058 69.4669 16.6537C70.0513 17.2015 70.7452 17.6123 71.5487 17.8863C72.3521 18.1602 73.2286 18.2971 74.1782 18.2971C74.7443 18.2971 75.2647 18.2423 75.7395 18.1328C76.2325 18.0415 76.6525 17.9136 76.9994 17.7493C77.3646 17.585 77.6477 17.3932 77.8486 17.1741C78.0494 16.955 78.1499 16.7176 78.1499 16.4619C78.1499 16.2245 78.0859 16.0237 77.9581 15.8593C77.8303 15.695 77.6659 15.558 77.4651 15.4485C77.0634 15.7224 76.6068 15.9689 76.0955 16.188C75.5843 16.3889 74.9451 16.4893 74.1782 16.4893C72.8634 16.4893 71.8134 16.0785 71.0282 15.2567C70.243 14.4167 69.8504 13.2115 69.8504 11.6411C69.8504 10.8559 69.96 10.162 70.1791 9.55942C70.3982 8.93856 70.6995 8.42726 71.083 8.02553C71.4665 7.60554 71.923 7.29511 72.4525 7.09424ZM83.2319 17.9958C83.4145 17.9593 83.5515 17.9228 83.6428 17.8863V11.7507L89.1757 17.311C89.4131 17.5667 89.6414 17.7676 89.8605 17.9136C90.0979 18.0415 90.3535 18.1054 90.6274 18.1054C90.9744 18.1054 91.2483 17.9867 91.4492 17.7493C91.6683 17.5119 91.7961 17.1923 91.8326 16.7906L85.7245 11.3124L90.1344 7.45032C90.4083 7.19467 90.6274 6.97555 90.7918 6.79294C90.9561 6.59207 91.0383 6.36382 91.0383 6.10817C91.0383 5.79774 90.9105 5.55122 90.6548 5.36861C90.4174 5.16775 90.0796 5.05818 89.6414 5.03992L83.6428 10.8468V0.986072C83.6428 0.328691 83.2593 0 82.4924 0C82.2732 0 82.0632 0.0273912 81.8624 0.0821729C81.6798 0.118694 81.5428 0.155215 81.4515 0.191736V17.0919C81.4515 17.7493 81.8441 18.078 82.6293 18.078C82.8484 18.078 83.0493 18.0506 83.2319 17.9958ZM104.085 13.8598C104.304 13.7867 104.477 13.7046 104.605 13.6133C105.153 12.3716 105.646 11.2485 106.084 10.2442C106.523 9.2216 106.915 8.30857 107.262 7.5051C107.627 6.70164 107.938 5.98034 108.193 5.34122C108.467 4.7021 108.705 4.12689 108.906 3.6156H109.015C109.052 4.3095 109.097 5.15862 109.152 6.16295C109.207 7.14902 109.262 8.23553 109.316 9.42247C109.389 10.6094 109.462 11.8603 109.536 13.175C109.609 14.4898 109.691 15.8137 109.782 17.1467C109.819 17.5119 109.937 17.7676 110.138 17.9136C110.357 18.0415 110.604 18.1054 110.878 18.1054C111.316 18.1054 111.699 17.9958 112.028 17.7767C111.992 17.2654 111.946 16.5715 111.891 15.695C111.836 14.8002 111.772 13.8324 111.699 12.7915C111.626 11.7324 111.544 10.6368 111.453 9.50464C111.38 8.37248 111.298 7.31337 111.206 6.3273C111.115 5.34122 111.024 4.47385 110.932 3.72516C110.841 2.95822 110.759 2.4104 110.686 2.08171C110.558 1.49737 110.065 1.2052 109.207 1.2052C108.988 1.2052 108.75 1.23259 108.495 1.28737C108.239 1.32389 108.029 1.38781 107.865 1.47911C107.591 2.11823 107.28 2.82126 106.933 3.58821C106.586 4.35515 106.221 5.17688 105.838 6.05339C105.454 6.9299 105.062 7.84293 104.66 8.79248C104.258 9.72377 103.856 10.6733 103.455 11.6411H103.345C103.035 10.9107 102.706 10.1438 102.359 9.34029C102.03 8.53683 101.683 7.72423 101.318 6.9025C100.971 6.08078 100.615 5.27731 100.25 4.49211C99.903 3.68864 99.5561 2.93083 99.2091 2.21866C98.8805 1.54302 98.2961 1.2052 97.4561 1.2052C97.1092 1.2052 96.7988 1.25998 96.5248 1.36954C96.2509 1.47911 96.0409 1.5978 95.8949 1.72563C95.8218 2.58387 95.7396 3.53342 95.6483 4.57428C95.5753 5.61513 95.4931 6.67425 95.4018 7.75162C95.3288 8.829 95.2557 9.88811 95.1827 10.929C95.1279 11.9698 95.0731 12.9194 95.0183 13.7776C94.9636 14.6359 94.9179 15.3663 94.8814 15.9689C94.8631 16.5715 94.854 16.9641 94.854 17.1467C94.854 17.4571 94.9362 17.6945 95.1005 17.8589C95.2649 18.0232 95.5479 18.1054 95.9496 18.1054C96.1505 18.1054 96.3331 18.0871 96.4974 18.0506C96.6801 18.0141 96.8261 17.9776 96.9357 17.941C97.0087 16.6263 97.0818 15.3937 97.1548 14.2433C97.2279 13.0928 97.3009 11.9607 97.374 10.8468C97.447 9.71464 97.5109 8.56422 97.5657 7.39554C97.6387 6.2086 97.7027 4.93036 97.7574 3.56082H97.867C98.3053 4.67471 98.8805 6.08078 99.5926 7.77901C100.305 9.47725 101.154 11.349 102.14 13.3941C102.231 13.595 102.386 13.7411 102.606 13.8324C102.843 13.9237 103.108 13.9694 103.4 13.9694C103.656 13.9694 103.884 13.9328 104.085 13.8598ZM122.526 16.2976C122.033 16.4437 121.403 16.5167 120.636 16.5167C119.559 16.5167 118.755 16.3341 118.226 15.9689C117.696 15.5854 117.432 15.0467 117.432 14.3528C117.432 13.6954 117.66 13.2024 118.116 12.8737C118.573 12.5268 119.276 12.3076 120.225 12.2163L123.622 11.8603V15.8319C123.403 15.978 123.038 16.1332 122.526 16.2976ZM124.389 5.9986C123.458 5.28644 122.198 4.93036 120.609 4.93036C119.86 4.93036 119.166 5.0034 118.527 5.14949C117.888 5.27731 117.322 5.46905 116.829 5.7247C116.555 5.87078 116.354 6.026 116.226 6.19034C116.099 6.35469 116.035 6.56468 116.035 6.82033C116.035 7.0212 116.089 7.2038 116.199 7.36815C116.327 7.5325 116.464 7.67858 116.61 7.8064C117.139 7.53249 117.742 7.28598 118.418 7.06685C119.093 6.84772 119.815 6.73816 120.581 6.73816C121.513 6.73816 122.252 6.94816 122.8 7.36815C123.348 7.78814 123.622 8.45465 123.622 9.36768V10.1346L119.732 10.5181C118.308 10.6642 117.203 11.0477 116.418 11.6685C115.633 12.2711 115.24 13.175 115.24 14.3802C115.24 15.6585 115.706 16.6354 116.637 17.311C117.587 17.9867 118.92 18.3245 120.636 18.3245C121.568 18.3245 122.389 18.2241 123.101 18.0232C123.832 17.8406 124.416 17.6215 124.854 17.3658C125.165 17.1832 125.393 16.9915 125.539 16.7906C125.704 16.5715 125.786 16.2611 125.786 15.8593V9.36768C125.786 7.83379 125.32 6.71077 124.389 5.9986ZM130.991 17.448C131.795 18.0141 132.835 18.2971 134.114 18.2971C134.954 18.2971 135.611 18.1693 136.086 17.9136C136.561 17.658 136.798 17.3293 136.798 16.9276C136.798 16.7084 136.752 16.5167 136.661 16.3524C136.57 16.188 136.469 16.0511 136.36 15.9415C136.104 16.0876 135.784 16.2154 135.401 16.325C135.018 16.4345 134.671 16.4893 134.36 16.4893C133.611 16.4893 133.027 16.3432 132.607 16.0511C132.205 15.7406 132.005 15.2202 132.005 14.4898V7.36815H135.921C136.469 7.36815 136.743 7.05772 136.743 6.43686C136.743 6.25425 136.716 6.08991 136.661 5.94382C136.606 5.77948 136.551 5.65165 136.497 5.56035H132.005V2.4104C132.005 1.75302 131.621 1.42433 130.854 1.42433C130.635 1.42433 130.425 1.45172 130.224 1.5065C130.041 1.54302 129.904 1.57954 129.813 1.61606V14.6267C129.813 15.9415 130.205 16.8819 130.991 17.448ZM145.849 16.4893C143.201 16.4893 141.63 15.2932 141.137 12.9011L149.574 11.7233C149.903 11.6868 150.158 11.5863 150.341 11.422C150.523 11.2394 150.615 10.9472 150.615 10.5455C150.615 9.72377 150.469 8.97508 150.176 8.29944C149.903 7.60554 149.51 7.01207 148.999 6.51903C148.506 6.00774 147.912 5.61513 147.218 5.34122C146.524 5.06732 145.766 4.93036 144.945 4.93036C144.068 4.93036 143.256 5.08558 142.507 5.39601C141.758 5.68817 141.11 6.1173 140.562 6.68338C140.033 7.24946 139.613 7.94336 139.302 8.76509C139.01 9.56855 138.864 10.4907 138.864 11.5316C138.864 13.7411 139.476 15.4211 140.699 16.5715C141.941 17.7219 143.621 18.2971 145.739 18.2971C146.342 18.2971 146.899 18.2423 147.41 18.1328C147.939 18.0232 148.396 17.8771 148.779 17.6945C149.181 17.5119 149.492 17.3019 149.711 17.0645C149.948 16.8271 150.067 16.5806 150.067 16.325C150.067 15.8867 149.848 15.5398 149.409 15.2841C149.044 15.5763 148.551 15.8502 147.93 16.1058C147.31 16.3615 146.616 16.4893 145.849 16.4893ZM142.151 7.88858C142.881 7.10337 143.803 6.71077 144.917 6.71077C146.013 6.71077 146.862 7.03946 147.465 7.69684C148.086 8.33596 148.442 9.15769 148.533 10.162L141 11.2029C141.037 9.76029 141.42 8.65552 142.151 7.88858ZM3.39663 9.73678C3.60042 10.0419 3.70918 10.4004 3.70918 10.7672C3.70918 11.2591 3.5138 11.7308 3.16598 12.0786C2.81818 12.4264 2.34646 12.6218 1.8546 12.6218C1.4878 12.6218 1.12922 12.513 0.824237 12.3093C0.519251 12.1054 0.281544 11.8157 0.141173 11.4769C0.00080361 11.138 -0.0359236 10.7651 0.0356363 10.4054C0.107196 10.0456 0.283829 9.71512 0.543198 9.45582C0.802568 9.19639 1.13302 9.01979 1.49278 8.94818C1.85254 8.8767 2.22543 8.91335 2.56431 9.05383C2.9032 9.19417 3.19284 9.43182 3.39663 9.73678ZM14.8367 16.596V4.93845C14.8367 4.79791 14.8926 4.66313 14.9919 4.56377C15.0913 4.46439 15.2261 4.40857 15.3667 4.40857H16.4264C16.5669 4.40857 16.7017 4.46439 16.8011 4.56377C16.9004 4.66313 16.9563 4.79791 16.9563 4.93845V16.596C16.9563 16.7365 16.9004 16.8712 16.8011 16.9706C16.7017 17.07 16.5669 17.1258 16.4264 17.1258H15.3667C15.2261 17.1258 15.0913 17.07 14.9919 16.9706C14.8926 16.8712 14.8367 16.7365 14.8367 16.596ZM5.57173 3.46935L6.09896 2.52516C6.17058 2.41765 6.279 2.34002 6.40383 2.30684C6.52869 2.27366 6.66134 2.28723 6.77687 2.34499L13.777 5.74123V15.7932L6.7782 19.1894C6.66267 19.2472 6.53 19.2607 6.40516 19.2276C6.28033 19.1943 6.1719 19.1167 6.10028 19.0092L5.57039 18.0631C5.4078 17.8193 5.48595 17.5064 5.72076 17.3315C5.93372 17.1741 6.10349 16.9655 6.21435 16.725C6.32522 16.4845 6.37359 16.2199 6.35496 15.9558C6.29734 15.1056 5.53364 14.4764 4.68285 14.4764C4.56515 14.4764 4.45227 14.4296 4.36904 14.3464C4.28583 14.2632 4.23907 14.1504 4.23907 14.0326V12.7486C4.23907 12.5486 4.37121 12.3641 4.56726 12.3227C4.92417 12.2476 5.24437 12.052 5.47416 11.7688C5.70396 11.4855 5.82937 11.1319 5.82937 10.7672C5.82937 10.4025 5.70396 10.0489 5.47416 9.7656C5.24437 9.48243 4.92417 9.28678 4.56726 9.21165C4.37153 9.17031 4.23907 8.98444 4.23907 8.78575V7.50177C4.23907 7.38408 4.28583 7.2712 4.36904 7.18797C4.45227 7.10474 4.56515 7.058 4.68284 7.058C5.46211 7.058 6.18837 6.53804 6.33045 5.7717C6.38719 5.48058 6.36062 5.17937 6.25382 4.90267C6.14703 4.62599 5.96433 4.38504 5.72672 4.20754C5.49026 4.02936 5.40614 3.71573 5.57173 3.46935Z" fill="white"/>
</svg>
