<svg width="145" height="35" viewBox="0 0 145 35" fill="none" xmlns="http://www.w3.org/2000/svg">
<path fill-rule="evenodd" clip-rule="evenodd" d="M15.5864 0.378105C15.8292 0.620197 15.9656 0.948558 15.9656 1.29093V3.44764H19.4176C20.2186 3.44764 20.9868 3.76499 21.5533 4.32988C22.1198 4.89478 22.4381 5.66094 22.4381 6.45982V14.6357H22.0066C20.7478 14.6357 19.5405 15.1344 18.6504 16.022C17.7601 16.9099 17.2601 18.1137 17.2601 19.3692V32.2785H17.2566V34.43H12.0786V33.2734C12.082 33.2286 12.082 33.1838 12.082 33.1391V14.8905C12.082 11.9523 9.52755 9.93156 6.90403 10.1691V6.45982C6.90403 5.66094 7.22225 4.89478 7.78871 4.32988C8.35517 3.76499 9.12345 3.44764 9.92454 3.44764H13.3765V1.29093C13.3765 0.948558 13.5129 0.620197 13.7557 0.378105C13.9985 0.136012 14.3277 0 14.6711 0C15.0144 0 15.3436 0.136012 15.5864 0.378105ZM49.8329 5.75398L43.4467 5.71956C41.9739 5.71956 41.0763 6.02938 40.7541 6.64903C40.5699 6.99328 40.455 7.29162 40.4089 7.54407C40.3859 7.79653 40.3744 8.19814 40.3744 8.74894V27.8891C40.3744 28.8759 40.5124 29.6104 40.7886 30.0923C41.1338 30.666 42.0084 30.9529 43.4121 30.9529H49.7293C53.2504 30.9529 56.2421 29.7021 58.7045 27.2006C61.19 24.6992 62.4327 21.7042 62.4327 18.2158C62.4327 14.7044 61.167 11.7554 58.6355 9.36859C56.104 6.95885 53.1698 5.75398 49.8329 5.75398ZM54.3205 23.0352C52.9858 24.2516 51.4898 24.8598 49.8329 24.8598H46.4844V11.8472H49.7984C51.5473 11.8472 53.0662 12.4783 54.355 13.7405C55.6668 14.9798 56.3227 16.5289 56.3227 18.3879C56.3227 20.2468 55.6552 21.7959 54.3205 23.0352ZM66.9583 28.3022C68.5003 30.0464 70.4334 30.9185 72.7577 30.9185C73.6783 30.9185 74.5298 30.666 75.3122 30.1612C75.6115 29.9546 75.9221 29.7021 76.2442 29.4038C76.5665 29.1055 76.7736 28.8759 76.8656 28.7153C76.8656 29.2661 76.9807 29.7365 77.2108 30.1267C77.533 30.6775 78.396 30.9529 79.7998 30.9529C81.2267 30.9529 82.1126 30.6547 82.4578 30.0579C82.642 29.7365 82.7456 29.4498 82.7685 29.1973C82.8146 28.9219 82.8376 28.5317 82.8376 28.0268V15.8405C82.8376 15.3126 82.8146 14.9225 82.7685 14.67C82.7456 14.3946 82.6536 14.0848 82.4923 13.7405C82.1703 13.1209 81.2841 12.8111 79.8343 12.8111C78.3615 12.8111 77.4755 13.1094 77.1762 13.7061C76.9923 14.0504 76.8771 14.3602 76.8311 14.6356C76.8081 14.888 76.7965 15.2782 76.7965 15.806V21.8992C76.7965 22.7943 76.509 23.5172 75.9335 24.068C75.3812 24.6188 74.6449 24.8942 73.7242 24.8942C72.8267 24.8942 72.1018 24.6303 71.5495 24.1024C71.0203 23.5745 70.7555 22.8402 70.7555 21.8992V15.8749C70.7555 15.0716 70.6865 14.4864 70.5484 14.1192C70.2722 13.2471 69.3288 12.8111 67.7177 12.8111C66.2449 12.8111 65.3474 13.1209 65.0252 13.7405C64.8641 14.0848 64.7606 14.3831 64.7145 14.6356C64.6915 14.888 64.68 15.2897 64.68 15.8405V21.8648C64.68 24.3893 65.4394 26.535 66.9583 28.3022ZM101.218 15.5995C99.5147 13.7864 97.6391 12.8799 95.5908 12.8799C93.888 12.8799 92.5762 13.4422 91.6555 14.5667V7.40637C91.6555 6.87852 91.6326 6.48838 91.5865 6.23593C91.5635 5.96053 91.46 5.65071 91.2758 5.30646C90.9767 4.68681 90.1021 4.37699 88.6523 4.37699C87.1795 4.37699 86.282 4.68681 85.9597 5.30646C85.7987 5.62776 85.6951 5.92611 85.649 6.2015C85.6261 6.45396 85.6145 6.8441 85.6145 7.37195V27.9236C85.6145 28.4515 85.6261 28.853 85.649 29.1284C85.6951 29.3809 85.7987 29.6792 85.9597 30.0235C86.282 30.6431 87.1679 30.9529 88.6178 30.9529C90.4128 30.9529 91.4025 30.3906 91.5865 29.2661C92.415 30.3677 93.8074 30.9185 95.7634 30.9185C97.7197 30.9185 99.5493 30.0235 101.252 28.2334C102.955 26.4204 103.807 24.3205 103.807 21.9336C103.807 19.5239 102.944 17.4125 101.218 15.5995ZM94.6933 24.9286C93.8419 24.9286 93.1285 24.6188 92.5531 23.9991C92.0007 23.3795 91.7246 22.7025 91.7246 21.9681C91.7246 21.2107 91.9893 20.5107 92.5185 19.8682C93.0709 19.2256 93.8074 18.9043 94.7278 18.9043C95.6485 18.9043 96.3848 19.2256 96.9371 19.8682C97.4894 20.4878 97.7656 21.1763 97.7656 21.9336C97.7656 22.691 97.4665 23.3795 96.8681 23.9991C96.2698 24.6188 95.5449 24.9286 94.6933 24.9286ZM106.389 5.23761C106.228 5.58186 106.124 5.89168 106.078 6.16708C106.055 6.41953 106.044 6.80967 106.044 7.33752V23.7237C106.044 26.1794 106.366 27.9695 107.01 29.094C107.539 30.035 108.69 30.6202 110.462 30.8497C112.717 31.1251 114.144 31.0562 114.743 30.6431C115.203 30.3218 115.433 29.4383 115.433 27.9924C115.433 26.6614 115.203 25.8465 114.743 25.5482C114.512 25.3877 114.317 25.2957 114.156 25.2729C113.995 25.2269 113.672 25.204 113.189 25.204C112.729 25.204 112.43 25.1007 112.292 24.8942C112.154 24.6647 112.085 24.1368 112.085 23.3106V7.37195C112.085 6.8441 112.061 6.44248 112.015 6.16708C111.992 5.89168 111.889 5.58186 111.705 5.23761C111.36 4.61796 110.485 4.30814 109.081 4.30814C107.608 4.30814 106.711 4.61796 106.389 5.23761ZM117.371 14.7044C117.348 14.9569 117.337 15.347 117.337 15.8749V27.958C117.337 28.5088 117.348 28.9103 117.371 29.1629C117.417 29.4154 117.521 29.7136 117.682 30.0579C118.004 30.6775 118.89 30.9874 120.34 30.9874C121.813 30.9874 122.699 30.6891 122.998 30.0923C123.182 29.7481 123.286 29.4498 123.309 29.1973C123.355 28.9219 123.378 28.5203 123.378 27.9924V15.9437C123.378 15.5077 123.366 15.1749 123.343 14.9454C123.32 14.2799 123.113 13.7864 122.722 13.4651C122.262 13.075 121.479 12.8799 120.374 12.8799C118.902 12.8799 118.004 13.1783 117.682 13.775C117.521 14.1192 117.417 14.429 117.371 14.7044ZM122.1 10.1948C122.538 10.0571 122.837 9.82759 122.998 9.50629C123.182 9.16204 123.286 8.8637 123.309 8.61124C123.355 8.33584 123.378 7.93423 123.378 7.40637C123.378 6.87852 123.355 6.48838 123.309 6.23593C123.286 5.96053 123.182 5.65071 122.998 5.30646C122.699 4.68681 121.824 4.37699 120.374 4.37699C118.902 4.37699 118.004 4.68681 117.682 5.30646C117.521 5.62776 117.417 5.92611 117.371 6.2015C117.348 6.45396 117.337 6.8441 117.337 7.37195C117.337 7.8998 117.348 8.30142 117.371 8.57682C117.417 8.82927 117.521 9.12761 117.682 9.47186C117.866 9.81611 118.177 10.0571 118.614 10.1948C119.051 10.3325 119.626 10.4013 120.34 10.4013C121.076 10.4013 121.663 10.3325 122.1 10.1948ZM141.98 15.4962C140.461 13.7291 138.551 12.8455 136.25 12.8455C135.306 12.8455 134.443 13.1094 133.661 13.6373C133.362 13.8209 133.051 14.0618 132.729 14.3602C132.406 14.6585 132.199 14.888 132.107 15.0487C132.107 14.4979 131.992 14.0274 131.762 13.6373C131.44 13.1094 130.577 12.8455 129.173 12.8455C127.723 12.8455 126.837 13.1324 126.515 13.7061C126.331 14.0274 126.216 14.3258 126.17 14.6012C126.147 14.8536 126.135 15.2323 126.135 15.7372V27.9236C126.135 28.4515 126.147 28.853 126.17 29.1284C126.216 29.3809 126.319 29.6792 126.48 30.0235C126.803 30.6431 127.689 30.9529 129.139 30.9529C130.611 30.9529 131.497 30.6431 131.797 30.0235C131.981 29.7021 132.084 29.4154 132.107 29.1629C132.153 28.8875 132.176 28.4859 132.176 27.958V21.8648C132.176 20.9697 132.452 20.2468 133.005 19.696C133.58 19.1452 134.317 18.8698 135.214 18.8698C136.135 18.8698 136.859 19.1337 137.389 19.6616C137.941 20.1895 138.217 20.9238 138.217 21.8648V27.9236C138.217 28.7038 138.286 29.289 138.424 29.6792C138.678 30.5283 139.621 30.9529 141.255 30.9529C142.728 30.9529 143.625 30.6431 143.948 30.0235C144.109 29.7021 144.201 29.4154 144.224 29.1629C144.27 28.8875 144.293 28.4859 144.293 27.958V21.8992C144.293 19.3747 143.522 17.2403 141.98 15.4962ZM18.9826 34.4299H26.3216C27.1226 34.4299 27.8909 34.1125 28.4573 33.5476C29.0238 32.9826 29.3421 32.2165 29.3421 31.4177V19.369C29.3421 18.5702 29.0238 17.8041 28.4573 17.2391C27.8909 16.6742 27.1226 16.3568 26.3216 16.3568H22.0066C21.2055 16.3568 20.4373 16.6742 19.8708 17.2391C19.3043 17.8041 18.986 18.5702 18.986 19.369V32.2783H18.9826V34.4299ZM10.3526 32.2785H10.356V14.8905C10.356 12.4945 7.6859 11.0573 5.67856 12.374L1.36354 15.1986C0.512623 15.7546 0 16.7013 0 17.7168V31.4179C0 32.2167 0.318232 32.9828 0.884681 33.5477C1.45114 34.1126 2.21942 34.43 3.02051 34.43H10.3526V32.2785Z" fill="white"/>
</svg>
