<svg width="144" height="26" viewBox="0 0 144 26" fill="none" xmlns="http://www.w3.org/2000/svg">
<path fill-rule="evenodd" clip-rule="evenodd" d="M51.5687 3.96804C51.6259 2.91666 51.6887 1.85384 51.7573 0.77959H35.9521L35.4036 25.4988L44.0775 25.3274L44.0432 15.179L50.043 15.0077L50.3859 9.69358H44.0775V7.53365L51.3459 7.15651C51.4373 6.08226 51.5115 5.01944 51.5687 3.96804ZM60.3798 24.7102L61.5798 1.36242L52.4601 1.84241L53.1459 25.0873L60.3798 24.7102ZM79.7335 20.7847C80.2821 19.6418 80.5564 18.2875 80.5564 16.7219C80.5564 15.8076 80.4191 14.9734 80.145 14.2191C79.882 13.4534 79.4935 12.7963 78.9792 12.2478C78.4764 11.6992 77.8593 11.2592 77.1279 10.9278C76.3965 10.5964 75.5736 10.4021 74.6593 10.345C74.4764 10.3336 74.2422 10.3393 73.9565 10.3621C73.6708 10.3736 73.3622 10.3907 73.0309 10.4135C72.6995 10.425 72.3623 10.4307 72.0194 10.4307C71.6881 10.4307 71.3795 10.4021 71.0938 10.345C70.8194 10.2764 70.5909 10.1736 70.408 10.0364C70.2366 9.89929 70.1452 9.70499 70.1338 9.45358C70.1225 9.23644 70.1795 9.04788 70.3052 8.88788C70.4309 8.72789 70.5966 8.60219 70.8024 8.51076C71.008 8.40791 71.2424 8.3279 71.5052 8.27076C71.768 8.21361 72.0251 8.17363 72.2766 8.15077C72.5395 8.11649 72.7851 8.09935 73.0136 8.09935C73.2537 8.08791 73.448 8.0822 73.5966 8.0822C74.4079 8.0822 75.2364 8.17363 76.0822 8.35647C76.9393 8.52789 77.7565 8.74504 78.5335 9.00788L79.1849 2.04812C78.6822 1.80812 78.1507 1.60812 77.5907 1.44813C77.0308 1.28815 76.4537 1.15671 75.8594 1.05386C75.2766 0.951014 74.6879 0.882437 74.0936 0.848149C73.4995 0.802443 72.9224 0.77959 72.3623 0.77959C71.1051 0.77959 69.8881 0.979585 68.711 1.37956C67.5339 1.77955 66.4882 2.35668 65.5739 3.11094C64.6711 3.85376 63.9454 4.76231 63.3969 5.83656C62.8597 6.89938 62.5913 8.10505 62.5913 9.45358C62.5913 10.4364 62.7513 11.3335 63.0712 12.1449C63.3912 12.9449 63.8369 13.6306 64.4083 14.202C64.9911 14.7619 65.6825 15.1962 66.4825 15.5049C67.294 15.8133 68.1911 15.9676 69.1739 15.9676H69.7224C69.9509 15.9676 70.1967 15.9791 70.4595 16.0019C70.7223 16.0248 70.991 16.0647 71.2651 16.1219C71.5395 16.1677 71.7852 16.2419 72.0024 16.3448C72.2194 16.4362 72.3966 16.5619 72.5337 16.7219C72.6709 16.8705 72.7395 17.0533 72.7395 17.2704C72.7395 17.5904 72.6423 17.8362 72.4481 18.0075C72.2538 18.179 72.0138 18.3104 71.728 18.4019C71.4537 18.4818 71.1623 18.5333 70.8537 18.5562C70.5453 18.5676 70.2825 18.5732 70.0653 18.5732C68.9225 18.5732 67.7567 18.4248 66.5683 18.1275C65.3912 17.8189 64.3169 17.3732 63.3454 16.7905L62.5913 23.5102C63.0826 23.7389 63.6426 23.9845 64.2712 24.2474C64.9112 24.4989 65.5739 24.7388 66.2597 24.9673C66.9454 25.1845 67.6196 25.3674 68.2825 25.516C68.9567 25.6644 69.5738 25.7388 70.1338 25.7388C71.5853 25.7388 72.9394 25.5673 74.1966 25.2244C75.4651 24.8702 76.5679 24.3273 77.5051 23.5959C78.4535 22.8532 79.1964 21.916 79.7335 20.7847ZM93.4473 25.2244L102.019 24.813L101.47 1.39671L93.653 1.191L93.6187 14.082H89.8132L90.3274 1.77383L82.1677 1.39671L81.5163 25.4988H89.196L89.4361 17.9905H93.3788L93.4473 25.2244ZM122.572 14.6305C122.709 13.6363 122.778 12.642 122.778 11.6478C122.778 10.7107 122.698 9.79071 122.538 8.88788C122.389 7.97363 122.155 7.11081 121.835 6.29939C121.526 5.47658 121.126 4.72232 120.635 4.03662C120.155 3.35092 119.584 2.76237 118.921 2.27097C118.269 1.76813 117.521 1.37956 116.675 1.10529C115.841 0.819578 114.915 0.676725 113.898 0.676725C112.675 0.676725 111.555 0.853867 110.538 1.20813C109.533 1.56242 108.63 2.05382 107.83 2.68238C107.03 3.31093 106.327 4.04805 105.721 4.89373C105.127 5.72799 104.63 6.63654 104.23 7.61936C103.841 8.60219 103.55 9.625 103.356 10.6878C103.161 11.7507 103.064 12.8135 103.064 13.8764C103.064 14.8933 103.161 15.8991 103.356 16.8933C103.55 17.8876 103.836 18.8304 104.213 19.7218C104.59 20.6131 105.064 21.436 105.635 22.1903C106.207 22.9446 106.87 23.6016 107.624 24.1617C108.39 24.7102 109.241 25.1388 110.178 25.4473C111.115 25.7559 112.15 25.9102 113.281 25.9102C113.83 25.9102 114.39 25.8759 114.961 25.8074C115.532 25.7388 116.098 25.6302 116.658 25.4815C117.218 25.3331 117.755 25.1388 118.269 24.8988C118.795 24.6589 119.281 24.3673 119.726 24.0246L120.549 16.2419C120.195 16.4818 119.772 16.7505 119.281 17.0476C118.789 17.3448 118.275 17.6247 117.738 17.8876C117.201 18.1391 116.658 18.3504 116.109 18.5219C115.572 18.6933 115.075 18.779 114.618 18.779C113.738 18.779 112.978 18.5333 112.338 18.042C111.71 17.5504 111.247 16.8933 110.95 16.0706C112.881 15.7962 114.812 15.5219 116.744 15.2477C118.675 14.962 120.618 14.7562 122.572 14.6305ZM115.818 9.77929C115.887 10.1107 115.921 10.4364 115.921 10.7564V11.1335L110.847 11.6135C110.927 11.2478 111.047 10.8478 111.207 10.4135C111.367 9.97928 111.572 9.57929 111.824 9.21359C112.075 8.83645 112.372 8.52789 112.715 8.28791C113.07 8.03649 113.475 7.91077 113.932 7.91077C114.309 7.91077 114.624 8.0022 114.875 8.18504C115.127 8.35647 115.327 8.57932 115.475 8.85361C115.635 9.12788 115.749 9.43644 115.818 9.77929ZM143.76 11.4078C143.92 10.6764 144 9.865 144 8.97359C144 7.54507 143.714 6.29369 143.143 5.21944C142.583 4.14519 141.834 3.24807 140.897 2.52811C139.96 1.80812 138.88 1.27099 137.657 0.916726C136.446 0.551024 135.189 0.368164 133.886 0.368164C133.04 0.368164 132.212 0.391034 131.4 0.436741C130.6 0.471029 129.806 0.545306 129.018 0.659589C128.24 0.762437 127.463 0.911008 126.686 1.10529C125.909 1.29956 125.121 1.54528 124.321 1.84241C124.252 3.15664 124.206 4.45946 124.184 5.75085C124.161 7.04223 124.138 8.34505 124.115 9.65929C124.046 12.2649 123.983 14.859 123.926 17.4419C123.881 20.0247 123.829 22.6188 123.772 25.2244H131.143L131.452 18.0933L133.577 18.0247L136.217 25.3274L143.931 23.8188L139.851 16.5506C140.594 16.082 141.229 15.5905 141.754 15.0762C142.28 14.562 142.709 14.0019 143.04 13.3963C143.371 12.7906 143.611 12.1278 143.76 11.4078ZM136.115 8.2022C136.252 8.60219 136.32 9.04217 136.32 9.52215C136.32 10.0936 136.189 10.585 135.926 10.9964C135.675 11.4078 135.343 11.7449 134.932 12.0078C134.532 12.2706 134.075 12.4649 133.56 12.5906C133.058 12.7163 132.56 12.7792 132.069 12.7792H131.658L131.932 6.40226C132.138 6.34512 132.349 6.30511 132.566 6.28226C132.783 6.24797 133.006 6.23083 133.235 6.23083C133.749 6.23083 134.194 6.31654 134.572 6.48797C134.96 6.64796 135.28 6.87652 135.532 7.17365C135.795 7.45936 135.989 7.80221 136.115 8.2022ZM7.39204 13.7231C8.1465 10.4607 10.2706 5.93026 14.3412 3.58011C20.5605 -0.0105617 28.946 2.86967 29.7819 4.31746C30.6178 5.76528 28.9194 14.4675 22.7001 18.0582C18.6296 20.4084 13.6436 19.9829 10.4413 19.0056L8.21546 24.2752C7.90619 25.0069 6.83161 25.0379 6.60459 24.3208L4.83169 18.7225L0.870582 14.3881C0.363056 13.8329 0.926954 12.9174 1.71555 13.0159L7.39204 13.7231ZM21.3906 9.16223C21.7366 9.76172 22.5038 9.96728 23.1033 9.62117C23.7028 9.27506 23.9083 8.50788 23.5622 7.9084C23.2158 7.30846 22.4493 7.10308 21.8495 7.44946C21.25 7.79557 21.0442 8.5623 21.3906 9.16223Z" fill="white"/>
</svg>
