<svg width="272" height="42" viewBox="0 0 272 42" fill="none" xmlns="http://www.w3.org/2000/svg">
<path fill-rule="evenodd" clip-rule="evenodd" d="M30.2205 4.441C30.2205 2.41908 29.1554 1.40812 27.0252 1.40812C25.1838 1.40812 22.7828 2.27466 19.8221 4.00773C16.8975 5.7408 13.8827 8.39457 10.7776 11.969C7.67252 15.5074 5.50618 19.2263 4.27857 23.1257C3.77309 24.6782 3.52035 26.1225 3.52035 27.4584C3.52035 28.7582 3.89946 29.8955 4.6577 30.8704C5.99361 32.6034 8.178 33.488 11.2109 33.5241H11.8066C15.1645 33.5241 18.7931 32.6756 22.6925 30.9787C26.531 29.2727 29.6172 26.797 31.9513 23.5516C32.2417 22.9431 32.5883 22.3317 32.9911 21.7176C33.8215 20.4178 34.7963 19.2804 35.9156 18.3056C37.6848 16.753 39.3637 15.9768 40.9524 15.9768C41.3495 15.9768 41.7286 16.0309 42.0897 16.1392C43.1729 16.5003 43.7144 17.1863 43.7144 18.1973C43.7144 19.0277 43.4978 19.4429 43.0645 19.4429C42.884 19.3707 42.7937 19.0999 42.7937 18.6305C42.7937 17.9806 42.4327 17.6557 41.7106 17.6557C40.4469 17.6557 38.8221 18.8111 36.8363 21.1218C34.8505 23.4326 33.659 25.7614 33.2618 28.1083C33.1896 28.5054 33.1535 28.9568 33.1535 29.4622C33.1535 29.9316 33.316 30.4913 33.6409 31.1412C33.9659 31.755 34.5616 32.0619 35.4282 32.0619C36.3308 32.0619 37.3057 31.6647 38.3527 30.8704C39.3998 30.076 40.3386 29.0651 41.169 27.8375L41.0065 27.5125C40.8621 26.9348 40.9343 26.4655 41.2231 26.1044C41.512 25.7434 41.8911 25.635 42.3605 25.7795C43.0104 24.4436 43.3353 23.4145 43.3353 22.6924C43.3353 21.9703 43.2451 21.4107 43.0645 21.0135C42.9201 20.5802 42.9923 20.2192 43.2812 19.9303C43.6061 19.6415 44.0033 19.5332 44.4727 19.6054C45.1946 19.7859 45.5556 20.5983 45.5556 22.0425C45.5556 23.4867 44.7073 25.3823 43.0104 27.7292C43.0465 28.704 43.552 29.1914 44.5268 29.1914C45.5015 29.1914 46.9818 28.1444 48.9676 26.0503C49.9064 24.9671 50.4841 24.263 50.7007 23.9381C50.7487 23.8764 50.7954 23.8225 50.8408 23.7764L50.8411 23.7756C51.5993 21.6454 52.0506 20.3636 52.195 19.9303C52.3756 19.4971 52.4839 19.136 52.52 18.8472C52.5922 18.5222 52.6644 18.2514 52.7366 18.0348C52.8088 17.8182 52.9352 17.5835 53.1157 17.3307C53.3324 17.0419 53.6031 16.8975 53.9281 16.8975C54.2531 16.8614 54.6683 16.8975 55.1737 17.0058C55.6792 17.078 55.932 17.2946 55.932 17.6557C55.932 17.9084 55.7334 18.4681 55.3362 19.3346C54.9391 20.165 53.8017 23.0715 51.9242 28.0541C53.224 26.4655 54.8669 24.6421 56.8527 22.5841C58.8385 20.49 60.5174 18.9013 61.8894 17.8182C63.2614 16.8433 64.3807 16.3559 65.2472 16.3559C66.0777 16.3559 66.4929 16.8072 66.4929 17.7098C66.4929 18.5764 66.0777 19.7859 65.2472 21.3385C64.4168 22.891 63.803 24.1547 63.4058 25.1296C62.7198 26.7904 62.3768 28.1263 62.3768 29.1373C62.3768 30.1121 62.5213 30.762 62.8101 31.087C63.3517 31.6647 64.0919 31.7008 65.0306 31.1953C65.9693 30.6537 67.2691 29.6428 68.93 28.1624C70.627 26.646 71.9809 25.1657 72.9919 23.7214C73.0394 23.662 73.089 23.6182 73.1404 23.5901C74.2025 22.1608 75.7448 20.7062 77.7673 19.2263C80.728 17.0599 83.0749 15.9768 84.8079 15.9768C85.2412 15.9768 85.6564 16.0309 86.0536 16.1392C87.0645 16.5003 87.57 17.078 87.57 17.8723C87.57 18.4139 87.3714 19.0277 86.9743 19.7137C86.5771 20.3997 86.2702 20.6525 86.0536 20.4719C85.8731 20.2553 85.8189 20.0387 85.8911 19.822L86.1619 18.7389C86.1619 18.0167 85.8911 17.6557 85.3495 17.6557C83.8692 17.6557 81.8473 18.8111 79.2838 21.1218C76.7203 23.4326 75.0955 25.7614 74.4095 28.1083C74.229 28.7221 74.1387 29.2817 74.1387 29.7872C74.1387 30.2566 74.247 30.6537 74.4637 30.9787C74.8969 31.6286 75.5649 31.9535 76.4675 31.9535C77.3702 31.9535 78.345 31.8272 79.3921 31.5744C81.7028 30.9245 83.6164 30.0038 85.1329 28.8123C86.6854 27.5847 88.3102 25.8878 90.0072 23.7214C90.0868 23.6218 90.172 23.5607 90.2627 23.538C91.3234 22.1254 92.8528 20.6882 94.8507 19.2263C97.8114 17.0599 100.158 15.9768 101.891 15.9768C103.841 15.9768 104.816 16.9155 104.816 18.793C104.816 19.7679 104.545 20.5622 104.004 21.176C103.101 22.5119 101.639 23.6853 99.6167 24.6963C97.5948 25.6711 95.8797 26.2127 94.4716 26.321C93.9661 26.3572 93.6953 26.2127 93.6592 25.8878C93.6231 25.7434 93.6592 25.6531 93.7676 25.617C93.912 25.5809 94.0203 25.5628 94.0925 25.5628C94.9229 25.4906 95.9881 25.0935 97.2879 24.3713C99.7069 23.0715 101.476 21.7356 102.595 20.3636C103.065 19.7137 103.299 19.0999 103.299 18.5222C103.299 17.9084 103.011 17.6015 102.433 17.6015C101.964 17.6015 101.332 17.8001 100.537 18.1973C98.8404 18.9916 97.0532 20.3817 95.1757 22.3675C93.2982 24.3172 92.0706 26.2308 91.4929 28.1083C91.3124 28.686 91.2221 29.2637 91.2221 29.8414C91.2221 30.3829 91.4568 30.9065 91.9262 31.4119C92.3955 31.9174 93.1177 32.1702 94.0925 32.1702C95.1757 32.1702 96.4213 31.8813 97.8295 31.3036C101.317 29.8839 104.119 27.8443 106.234 25.1847C106.269 25.133 106.307 25.0786 106.35 25.0212C106.42 24.936 106.49 24.8506 106.559 24.765C106.8 24.4438 107.031 24.114 107.253 23.7756C107.343 23.6554 107.43 23.5759 107.514 23.537C108.976 21.589 110.267 19.5383 111.387 17.3849C110.954 17.3127 110.629 17.1683 110.412 16.9516C110.196 16.6989 110.178 16.3017 110.358 15.7601C110.539 15.1824 111.08 14.4242 111.983 13.4855C112.922 12.5467 113.734 11.9149 114.42 11.5899C115.106 11.265 115.539 11.0664 115.72 10.9942C115.9 10.922 116.099 10.8859 116.316 10.8859C116.749 10.8859 116.604 11.5358 115.882 12.8356L113.77 16.1934C115.395 16.3017 116.785 16.3559 117.94 16.3559L119.836 16.3017C120.45 16.3017 120.901 16.392 121.19 16.5725C121.479 16.7169 121.551 16.9877 121.406 17.3849C121.154 18.0709 120.522 18.9916 119.511 20.147C117.345 22.6744 115.72 25.3642 114.637 28.2166C114.384 28.9026 114.258 29.4983 114.258 30.0038C114.258 31.0509 114.637 31.5744 115.395 31.5744C115.648 31.5744 116.117 31.3758 116.803 30.9787C117.525 30.5815 118.717 29.6428 120.377 28.1624C121.279 27.339 122.085 26.5263 122.796 25.7241C124.38 23.734 125.64 22.0374 126.575 20.6344C126.575 20.5983 126.972 19.8401 127.766 18.3597C127.405 18.432 127.026 18.4681 126.629 18.4681C126.268 18.4681 125.997 18.3597 125.817 18.1431C125.636 17.8904 125.618 17.6015 125.763 17.2766C126.015 16.6989 126.972 16.3739 128.633 16.3017C128.669 16.2295 128.741 16.1934 128.85 16.1934L131.558 11.1567C131.702 10.8678 131.864 10.579 132.045 10.2901C132.226 9.96517 132.352 9.73048 132.424 9.58606L132.749 9.04448C132.857 8.86395 132.948 8.73758 133.02 8.66537L133.236 8.44873C133.381 8.2321 133.796 8.12378 134.482 8.12378C135.204 8.12378 135.692 8.32236 135.944 8.71952C136.053 8.86395 136.107 9.11669 136.107 9.47774C136.107 9.80269 135.981 10.1818 135.728 10.6151C135.475 11.0122 135.204 11.3011 134.915 11.4816C134.627 11.6621 134.428 11.8607 134.32 12.0774L131.72 16.6267L132.424 16.5725C135.204 16.3198 136.883 16.1934 137.461 16.1934C138.075 16.1934 138.382 16.2837 138.382 16.4642C138.382 16.6808 137.948 16.9155 137.082 17.1683C136.251 17.3849 134.193 17.6737 130.908 18.0348C130.727 18.3597 130.511 18.7389 130.258 19.1721C129.716 20.0387 129.427 20.5622 129.391 20.7427C127.333 24.8588 126.25 27.4764 126.142 28.5957C126.106 28.9207 126.088 29.3359 126.088 29.8414C126.088 30.3468 126.232 30.762 126.521 31.087C127.026 31.6647 127.748 31.7008 128.687 31.1953C129.626 30.6898 130.926 29.6789 132.587 28.1624C134.277 26.652 135.645 25.1774 136.69 23.7386C136.998 23.0684 137.373 22.3947 137.817 21.7176C138.648 20.4178 139.623 19.2804 140.742 18.3056C142.511 16.753 144.19 15.9768 145.779 15.9768C146.176 15.9768 146.555 16.0309 146.916 16.1392C147.999 16.5003 148.541 17.1863 148.541 18.1973C148.541 19.0277 148.324 19.4429 147.891 19.4429C147.71 19.3707 147.62 19.0999 147.62 18.6305C147.62 17.9806 147.259 17.6557 146.537 17.6557C145.273 17.6557 143.648 18.8111 141.663 21.1218C139.677 23.4326 138.485 25.7614 138.088 28.1083C138.016 28.5054 137.98 28.9568 137.98 29.4622C137.98 29.9316 138.142 30.4913 138.467 31.1412C138.792 31.755 139.388 32.0619 140.255 32.0619C141.157 32.0619 142.132 31.6647 143.179 30.8704C144.226 30.076 145.165 29.0651 145.995 27.8375L145.833 27.5125C145.688 26.9348 145.761 26.4655 146.049 26.1044C146.338 25.7434 146.717 25.635 147.187 25.7795C147.837 24.4436 148.162 23.4145 148.162 22.6924C148.162 21.9703 148.071 21.4107 147.891 21.0135C147.746 20.5802 147.819 20.2192 148.108 19.9303C148.432 19.6415 148.83 19.5332 149.299 19.6054C150.021 19.7859 150.382 20.5983 150.382 22.0425C150.382 23.4867 149.534 25.3823 147.837 27.7292C147.873 28.704 148.378 29.1914 149.353 29.1914C150.328 29.1914 151.808 28.1444 153.794 26.0503C154.733 24.9671 155.311 24.263 155.527 23.9381C155.78 23.6131 155.997 23.5048 156.177 23.6131C156.358 23.6853 156.448 23.7575 156.448 23.8298C156.448 24.1908 155.798 25.1296 154.498 26.646C152.44 29.1734 150.617 30.4371 149.028 30.4371C147.981 30.4371 147.241 29.9858 146.808 29.0831C146.086 29.8414 145.382 30.5454 144.696 31.1953C143.287 32.3868 141.717 32.9825 139.984 32.9825C139.009 32.9825 138.197 32.7479 137.547 32.2785C136.283 31.5203 135.651 30.1663 135.651 28.2166C135.651 27.5834 135.715 26.9471 135.842 26.3075C135.447 26.7755 134.975 27.3036 134.428 27.8916C132.117 30.3829 130.186 31.9174 128.633 32.4951C127.73 32.8201 126.972 32.9825 126.358 32.9825C124.914 32.9825 123.957 32.2965 123.488 30.9245C123.416 30.6718 123.38 30.3649 123.38 30.0038C123.38 28.7401 123.957 26.8265 125.113 24.263C124.932 24.6602 124.228 25.5628 123.001 26.9709C122.979 26.9952 122.957 27.0178 122.936 27.0388C122.695 27.3129 122.438 27.5971 122.165 27.8916C120.757 29.4081 119.385 30.6357 118.049 31.5744C116.749 32.5854 115.341 33.0909 113.824 33.0909C111.983 33.0909 111.062 31.9896 111.062 29.7872C111.062 27.5486 112.651 24.8046 115.828 21.5551C116.081 21.3024 116.261 21.1038 116.37 20.9594L116.749 20.4178C117.254 19.7318 117.489 19.2985 117.453 19.118L117.29 18.6305C117.146 18.1973 116.55 17.8904 115.503 17.7098C114.456 17.4932 113.608 17.3849 112.958 17.3849C109.708 21.9703 107.831 24.588 107.325 25.2379C107.21 25.3857 107.104 25.5139 107.006 25.6225C106.092 26.8853 105.019 28.0388 103.787 29.0831C100.573 31.8272 97.4503 33.1992 94.4175 33.1992C91.8179 33.1992 89.9945 32.4229 88.9474 30.8704C88.5503 30.2566 88.3517 29.5164 88.3517 28.6499C88.3517 28.1454 88.4313 27.5858 88.5903 26.9712C87.4895 28.1977 86.3551 29.2627 85.187 30.1663C83.3096 31.6105 81.1252 32.5493 78.6339 32.9825C77.9118 33.0909 77.2438 33.145 76.63 33.145C74.8608 33.145 73.5069 32.7118 72.5681 31.8452C71.6655 30.9787 71.2141 30.0219 71.2141 28.9748C71.2141 28.3931 71.2922 27.7835 71.4482 27.146C71.235 27.3868 71.0094 27.6354 70.7714 27.8916C69.3633 29.4081 68.0093 30.6357 66.7095 31.5744C65.4097 32.4771 64.128 32.9284 62.8643 32.9284C61.6367 32.8923 60.7701 32.6034 60.2646 32.0619C59.7592 31.5564 59.5064 30.9065 59.5064 30.1121C59.5064 29.3178 59.5786 28.5596 59.7231 27.8375C59.8675 27.0793 60.1383 26.2127 60.5354 25.2379C61.1853 23.6853 61.745 22.4758 62.2144 21.6093C62.7198 20.7427 62.9726 20.1831 62.9726 19.9303C62.9726 19.6415 62.8282 19.4971 62.5393 19.4971C61.9616 19.4971 60.8604 20.2011 59.2356 21.6093C58.1164 22.6563 56.4555 24.6421 54.2531 27.5667C52.0867 30.4551 50.8591 31.9896 50.5703 32.1702C49.2705 32.8201 48.4581 33.145 48.1331 33.145C47.8082 33.145 47.6457 33.0909 47.6457 32.9825C47.6457 32.8742 47.6818 32.7118 47.754 32.4951C47.8262 32.3146 48.1692 31.3397 48.783 29.5706C49.1619 28.5391 49.5531 27.4524 49.9566 26.3105C49.8653 26.419 49.7704 26.5308 49.6717 26.646C47.6137 29.1734 45.7903 30.4371 44.2019 30.4371C43.1548 30.4371 42.4146 29.9858 41.9814 29.0831C41.2593 29.8414 40.5552 30.5454 39.8692 31.1953C38.4611 32.3868 36.8905 32.9825 35.1574 32.9825C34.1825 32.9825 33.3702 32.7479 32.7203 32.2785C31.4566 31.5203 30.8247 30.1663 30.8247 28.2166C30.8247 27.4963 30.9073 26.7718 31.0724 26.0432C28.7543 28.6335 26.0512 30.6578 22.9633 32.116C19.0639 33.9574 15.2908 34.8781 11.6441 34.8781C7.81695 34.8781 4.92849 33.7949 2.97877 31.6286C1.71507 30.2205 1.08322 28.3791 1.08322 26.1044C1.08322 22.2772 2.52745 18.1612 5.41592 13.7563C9.35144 7.76272 14.1174 3.61057 19.7138 1.2998C21.8801 0.433268 23.9562 0 25.942 0C28.3972 0 30.1483 0.577691 31.1954 1.73307C31.8814 2.5274 32.2244 3.44809 32.2244 4.49516C32.2244 6.48097 31.1773 8.52094 29.0832 10.6151C26.9891 12.7092 24.6602 14.3881 22.0967 15.6518C19.5693 16.8794 17.3669 17.5835 15.4894 17.764C14.7312 17.8362 14.3701 17.6376 14.4062 17.1683C14.4423 16.5184 14.8937 16.1573 15.7602 16.0851C18.6487 15.8323 21.3024 14.9658 23.7215 13.4855C26.1406 11.969 28 9.96517 29.2998 7.47388C29.9136 6.49902 30.2205 5.48806 30.2205 4.441ZM0 40.1857H152.819V41.4855H0V40.1857ZM168.91 39.4093L182.089 7.47836H180.284C180.073 7.47836 179.892 7.53852 179.742 7.65889C179.591 7.77925 179.486 7.92214 179.426 8.08764L168.572 34.5802C168.436 34.9111 168.316 35.2647 168.211 35.6408C168.105 36.0169 168.008 36.4005 167.917 36.7917C167.812 36.4005 167.699 36.0169 167.579 35.6408C167.458 35.2647 167.338 34.9111 167.218 34.5802L156.341 8.08764C156.266 7.90711 156.16 7.76418 156.025 7.65889C155.89 7.53852 155.716 7.47836 155.506 7.47836H153.678L166.857 39.4093H168.91ZM198.469 22.6879C198.815 23.6357 198.988 24.7113 198.988 25.9148H184.117C184.252 24.7414 184.523 23.6808 184.929 22.733C185.335 21.7852 185.87 20.9729 186.531 20.2959C187.208 19.6189 188.006 19.0999 188.923 18.7388C189.841 18.3778 190.879 18.1972 192.037 18.1972C193.06 18.1972 193.993 18.3778 194.835 18.7388C195.693 19.0848 196.43 19.5888 197.047 20.2507C197.664 20.9127 198.138 21.7251 198.469 22.6879ZM184.004 27.7201V27.2914H200.342C200.552 27.2914 200.703 27.2312 200.793 27.1108C200.883 26.9905 200.928 26.7648 200.928 26.4338C200.928 24.8542 200.695 23.4551 200.229 22.2366C199.777 21.018 199.153 19.995 198.356 19.1676C197.559 18.3251 196.618 17.6858 195.535 17.2495C194.452 16.8132 193.278 16.595 192.015 16.595C190.42 16.595 188.991 16.8734 187.727 17.43C186.479 17.9866 185.418 18.7614 184.545 19.7543C183.688 20.7322 183.026 21.9056 182.56 23.2746C182.108 24.6286 181.883 26.1104 181.883 27.7201C181.883 29.6307 182.124 31.3307 182.605 32.82C183.101 34.2944 183.801 35.543 184.703 36.566C185.606 37.589 186.689 38.3713 187.953 38.9129C189.217 39.4396 190.616 39.7027 192.15 39.7027C192.993 39.7027 193.828 39.6201 194.655 39.4545C195.498 39.2888 196.28 39.0708 197.002 38.8C197.739 38.5144 198.401 38.1759 198.988 37.7846C199.59 37.3934 200.071 36.9722 200.432 36.5209L199.845 35.7988C199.74 35.6483 199.59 35.5731 199.394 35.5731C199.244 35.5731 199.003 35.701 198.672 35.9567C198.341 36.1974 197.89 36.4757 197.318 36.7917C196.761 37.0926 196.069 37.3708 195.242 37.6266C194.414 37.8672 193.436 37.9877 192.308 37.9877C191.044 37.9877 189.901 37.7697 188.878 37.3333C187.855 36.897 186.982 36.2501 186.26 35.3926C185.538 34.52 184.982 33.4444 184.59 32.1656C184.2 30.8869 184.004 29.405 184.004 27.7201ZM212.414 17.7685C211.06 18.5508 209.864 19.5888 208.826 20.8826L208.623 17.5203C208.563 17.1442 208.344 16.9561 207.968 16.9561H206.772V39.4093H208.939V22.5299C209.932 21.2061 211.06 20.1755 212.324 19.4384C213.602 18.6861 214.972 18.3101 216.431 18.3101C218.402 18.3101 219.868 18.9118 220.831 20.1153C221.794 21.3038 222.275 22.9511 222.275 25.0573V39.4093H224.442V25.0573C224.442 23.7485 224.284 22.5751 223.968 21.537C223.652 20.499 223.186 19.6114 222.569 18.8742C221.952 18.1371 221.17 17.5729 220.222 17.1818C219.289 16.7906 218.206 16.595 216.972 16.595C215.302 16.595 213.783 16.9862 212.414 17.7685ZM249.007 39.4093V16.9561H246.841V33.8355C245.848 35.1594 244.712 36.1974 243.433 36.9496C242.17 37.6866 240.808 38.0554 239.349 38.0554C237.378 38.0554 235.912 37.4611 234.948 36.2726C233.986 35.0691 233.504 33.4143 233.504 31.3081V16.9561H231.338V31.3081C231.338 32.6169 231.496 33.7904 231.812 34.8284C232.128 35.8665 232.594 36.7541 233.211 37.4912C233.828 38.2282 234.603 38.7924 235.535 39.1837C236.468 39.575 237.559 39.7704 238.807 39.7704C240.477 39.7704 241.989 39.3791 243.343 38.597C244.712 37.8148 245.916 36.7766 246.954 35.4828L247.157 38.8226C247.217 39.2139 247.435 39.4093 247.811 39.4093H249.007ZM263.441 29.0741C264.99 28.8033 266.833 28.6303 268.97 28.5551V34.4222C268.443 34.9638 267.909 35.4678 267.367 35.9342C266.826 36.4005 266.239 36.8067 265.607 37.1527C264.99 37.4837 264.313 37.7471 263.576 37.9425C262.854 38.1231 262.057 38.2133 261.184 38.2133C260.598 38.2133 260.033 38.1307 259.492 37.9651C258.95 37.7995 258.469 37.5439 258.048 37.1979C257.641 36.8368 257.31 36.3855 257.055 35.8439C256.814 35.2873 256.694 34.6329 256.694 33.8806C256.694 33.0833 256.934 32.3763 257.416 31.7594C257.897 31.1276 258.634 30.586 259.627 30.1347C260.635 29.6834 261.906 29.3298 263.441 29.0741ZM259.469 17.4751C258.175 18.0769 256.942 18.9645 255.768 20.1379L256.152 20.7923C256.227 20.9127 256.317 21.0105 256.423 21.0857C256.528 21.1609 256.663 21.1985 256.829 21.1985C257.055 21.1985 257.333 21.0481 257.664 20.7472C257.995 20.4463 258.423 20.1153 258.95 19.7543C259.476 19.3932 260.116 19.0623 260.868 18.7614C261.636 18.4605 262.561 18.3101 263.644 18.3101C265.404 18.3101 266.728 18.8742 267.616 20.0025C268.518 21.1158 268.97 22.7104 268.97 24.7865V27.1334C266.427 27.1936 264.246 27.4042 262.425 27.7652C260.62 28.1263 259.138 28.6077 257.98 29.2095C256.821 29.8112 255.971 30.5183 255.43 31.3307C254.888 32.1431 254.617 33.0231 254.617 33.9709C254.617 34.9939 254.783 35.874 255.114 36.6111C255.46 37.3333 255.911 37.9276 256.468 38.3939C257.039 38.8601 257.686 39.2062 258.409 39.4319C259.131 39.6576 259.875 39.7704 260.643 39.7704C261.56 39.7704 262.403 39.6801 263.17 39.4996C263.937 39.3191 264.652 39.0632 265.314 38.7323C265.975 38.4015 266.607 37.9953 267.209 37.5138C267.826 37.0324 268.443 36.4908 269.06 35.889L269.376 38.7775C269.481 39.1986 269.759 39.4093 270.211 39.4093H271.068V24.7865C271.068 23.5379 270.917 22.4095 270.617 21.4016C270.316 20.3786 269.864 19.5136 269.263 18.8065C268.676 18.0844 267.931 17.5353 267.029 17.1592C266.126 16.768 265.073 16.5725 263.87 16.5725C262.229 16.5725 260.763 16.8734 259.469 17.4751Z" fill="#DEB852"/>
</svg>
