<svg width="149" height="27" viewBox="0 0 149 27" fill="none" xmlns="http://www.w3.org/2000/svg">
<path fill-rule="evenodd" clip-rule="evenodd" d="M12.2772 22.6657H14.1661C14.4165 22.6657 14.6567 22.7652 14.8339 22.9423C15.011 23.1194 15.1104 23.3596 15.1104 23.6101V25.4989C15.1104 25.7494 15.011 25.9896 14.8339 26.1668C14.6567 26.3438 14.4165 26.4433 14.1661 26.4433H12.2772C12.0268 26.4433 11.7866 26.3438 11.6095 26.1668C11.4323 25.9896 11.3328 25.7494 11.3328 25.4989V23.6101C11.3328 23.3596 11.4323 23.1194 11.6095 22.9423C11.7866 22.7652 12.0268 22.6657 12.2772 22.6657ZM6.61083 22.6657H8.49963C8.7501 22.6657 8.99032 22.7652 9.16742 22.9423C9.34453 23.1194 9.44403 23.3596 9.44403 23.6101V25.4989C9.44403 25.7494 9.34453 25.9896 9.16742 26.1668C8.99032 26.3438 8.7501 26.4433 8.49963 26.4433H6.61083C6.36035 26.4433 6.12013 26.3438 5.94303 26.1668C5.76592 25.9896 5.66642 25.7494 5.66642 25.4989V23.6101C5.66642 23.3596 5.76592 23.1194 5.94303 22.9423C6.12013 22.7652 6.36035 22.6657 6.61083 22.6657ZM17.9437 22.6657H19.8325C20.083 22.6657 20.3232 22.7652 20.5002 22.9423C20.6774 23.1194 20.7769 23.3596 20.7769 23.6101V25.4989C20.7769 25.7494 20.6774 25.9896 20.5002 26.1668C20.3232 26.3438 20.083 26.4433 19.8325 26.4433H17.9437C17.6932 26.4433 17.453 26.3438 17.2758 26.1668C17.0988 25.9896 16.9993 25.7494 16.9993 25.4989V23.6101C16.9993 23.3596 17.0988 23.1194 17.2758 22.9423C17.453 22.7652 17.6932 22.6657 17.9437 22.6657ZM23.6101 11.3328H25.4989C25.7494 11.3328 25.9896 11.4323 26.1668 11.6095C26.3438 11.7866 26.4433 12.0268 26.4433 12.2772V14.1661C26.4433 14.4165 26.3438 14.6567 26.1668 14.8339C25.9896 15.011 25.7494 15.1104 25.4989 15.1104H23.6101C23.3596 15.1104 23.1194 15.011 22.9423 14.8339C22.7652 14.6567 22.6657 14.4165 22.6657 14.1661V12.2772C22.6657 12.0268 22.7652 11.7866 22.9423 11.6095C23.1194 11.4323 23.3596 11.3328 23.6101 11.3328ZM23.6101 16.9993H25.4989C25.7494 16.9993 25.9896 17.0988 26.1668 17.2758C26.3438 17.453 26.4433 17.6932 26.4433 17.9437V19.8325C26.4433 20.083 26.3438 20.3232 26.1668 20.5002C25.9896 20.6774 25.7494 20.7769 25.4989 20.7769H23.6101C23.3596 20.7769 23.1194 20.6774 22.9423 20.5002C22.7652 20.3232 22.6657 20.083 22.6657 19.8325V17.9437C22.6657 17.6932 22.7652 17.453 22.9423 17.2758C23.1194 17.0988 23.3596 16.9993 23.6101 16.9993ZM23.6101 22.6657H25.4989C25.7494 22.6657 25.9896 22.7652 26.1668 22.9423C26.3438 23.1194 26.4433 23.3596 26.4433 23.6101V25.4989C26.4433 25.7494 26.3438 25.9896 26.1668 26.1668C25.9896 26.3438 25.7494 26.4433 25.4989 26.4433H23.6101C23.3596 26.4433 23.1194 26.3438 22.9423 26.1668C22.7652 25.9896 22.6657 25.7494 22.6657 25.4989V23.6101C22.6657 23.3596 22.7652 23.1194 22.9423 22.9423C23.1194 22.7652 23.3596 22.6657 23.6101 22.6657ZM23.6101 5.66642H25.4989C25.7494 5.66642 25.9896 5.76592 26.1668 5.94303C26.3438 6.12014 26.4433 6.36035 26.4433 6.61083V8.49963C26.4433 8.7501 26.3438 8.99032 26.1668 9.16742C25.9896 9.34453 25.7494 9.44403 25.4989 9.44403H23.6101C23.3596 9.44403 23.1194 9.34453 22.9423 9.16742C22.7652 8.99032 22.6657 8.7501 22.6657 8.49963V6.61083C22.6657 6.36035 22.7652 6.12014 22.9423 5.94303C23.1194 5.76592 23.3596 5.66642 23.6101 5.66642ZM1.8888 0H25.4989C25.7494 0 25.9896 0.0994964 26.1668 0.276611C26.3438 0.453725 26.4433 0.693928 26.4433 0.944402V2.8332C26.4433 3.08368 26.3438 3.32389 26.1668 3.50101C25.9896 3.67811 25.7494 3.77762 25.4989 3.77762H3.77762V25.4989C3.77762 25.7494 3.67811 25.9896 3.50101 26.1668C3.32389 26.3438 3.08368 26.4433 2.8332 26.4433H0.944403C0.693932 26.4433 0.45372 26.3438 0.276609 26.1668C0.0994995 25.9896 0 25.7494 0 25.4989V1.8888C0 1.38787 0.198998 0.907437 0.553219 0.553222C0.907439 0.198993 1.38786 0 1.8888 0ZM44.8932 18.6495C43.0933 18.6495 39.651 18.5103 34.5664 18.232V21.9897C36.5892 22.1567 38.5468 22.2866 40.4396 22.3794L43.0004 22.4907C44.0582 22.5279 45.0602 22.5464 46.0066 22.5464C47.8252 22.5464 49.1613 22.1195 50.0149 21.266C50.8686 20.4124 51.2953 19.0763 51.2953 17.2577V15.866C51.2953 14.0474 50.8686 12.7113 50.0149 11.8577C49.1613 11.0041 47.8252 10.5773 46.0066 10.5773H40.9963C39.8829 10.5773 39.3262 10.0206 39.3262 8.90722V8.35052C39.3262 7.23712 39.8829 6.68042 40.9963 6.68042H49.653V2.78351H39.8829C37.9344 2.78351 36.5149 3.22887 35.6241 4.11959C34.7521 4.99176 34.3159 6.40206 34.3159 8.35052V9.18557C34.3159 11.134 34.7521 12.5536 35.6241 13.4443C36.5149 14.3165 37.9344 14.7526 39.8829 14.7526H46.285V17.2577C46.285 17.6846 46.1551 18.0278 45.8953 18.2876C45.6541 18.5288 45.3201 18.6495 44.8932 18.6495ZM63.1231 18.5103C62.0653 18.6958 60.952 18.7887 59.7829 18.7887H59.087C58.8087 18.7887 58.5766 18.6958 58.3911 18.5103C58.2055 18.3248 58.1128 18.0928 58.1128 17.8144V12.3866C58.1128 11.6443 58.4838 11.2732 59.2262 11.2732H63.1231V18.5103ZM58.3911 22.5464C59.7457 22.5464 61.323 22.3609 63.1231 21.9897V27H67.9942V7.51547H57.6952C56.3035 7.51547 55.2086 7.91444 54.4107 8.71237C53.6313 9.49176 53.2416 10.5773 53.2416 11.9691V18.3711C53.2416 19.633 53.622 20.6443 54.3829 21.4052C55.1436 22.166 56.155 22.5464 57.4169 22.5464H58.3911ZM80.9407 17.9536C79.6975 18.3248 78.5841 18.5103 77.6005 18.5103H76.6263C76.3479 18.5103 76.1161 18.4175 75.9304 18.232C75.7449 18.0464 75.6521 17.8144 75.6521 17.5361V7.51547H70.7809V18.3711C70.7809 19.633 71.1614 20.6443 71.9222 21.4052C72.683 22.166 73.6944 22.5464 74.9562 22.5464H76.2088C76.8398 22.5464 77.6098 22.4165 78.5191 22.1567C79.447 21.8784 80.347 21.4515 81.2191 20.8763L81.4974 22.268H85.8119V7.51547H80.9407V17.9536ZM97.7712 18.0928C96.5279 18.464 95.4145 18.6495 94.431 18.6495H93.7351C93.4568 18.6495 93.2247 18.5567 93.0392 18.3711C92.8537 18.1856 92.7609 17.9536 92.7609 17.6753V17.3969C92.7609 17.1186 92.8537 16.8866 93.0392 16.701C93.2247 16.5155 93.4568 16.4227 93.7351 16.4227H97.7712V18.0928ZM98.4671 7.23712C95.7392 7.23712 92.6774 7.42268 89.2815 7.79382V11.2732C90.1722 11.2175 91.3413 11.134 92.7887 11.0227C94.2546 10.9113 95.5907 10.8557 96.797 10.8557C97.0753 10.8557 97.3073 10.9485 97.4928 11.134C97.6784 11.3196 97.7712 11.5515 97.7712 11.8299V12.9433H92.065C90.8031 12.9433 89.7919 13.3237 89.031 14.0845C88.2701 14.8454 87.8897 15.8567 87.8897 17.1186V18.3711C87.8897 19.633 88.2701 20.6443 89.031 21.4052C89.7919 22.166 90.8031 22.5464 92.065 22.5464H93.0392C93.6701 22.5464 94.4403 22.4165 95.3495 22.1567C96.2774 21.8784 97.1773 21.4515 98.0495 20.8763L98.3279 22.268H102.642V11.4124C102.642 10.1505 102.262 9.13918 101.501 8.37835C100.74 7.61752 99.729 7.23712 98.4671 7.23712ZM110.011 12.3866C111.254 11.8299 112.46 11.5515 113.63 11.5515H115.995V7.23712H114.743C112.999 7.23712 111.329 7.93299 109.733 9.32474L109.454 7.51547H105.14V22.268H110.011V12.3866ZM121.992 11.8299C121.992 11.0876 122.363 10.7165 123.105 10.7165H125.611C126.353 10.7165 126.724 11.0876 126.724 11.8299V13.3608H121.992V11.8299ZM121.296 22.5464C124.209 22.5464 127.457 22.3609 131.038 21.9897V18.5103C127.494 18.7887 124.803 18.9278 122.966 18.9278C122.688 18.9278 122.456 18.835 122.27 18.6495C122.085 18.464 121.992 18.232 121.992 17.9536V16.8402H131.595V11.6907C131.595 10.299 131.196 9.2134 130.398 8.43402C129.619 7.63609 128.533 7.23712 127.141 7.23712H121.574C120.183 7.23712 119.088 7.63609 118.29 8.43402C117.511 9.2134 117.121 10.299 117.121 11.6907V18.3711C117.121 19.633 117.501 20.6443 118.262 21.4052C119.023 22.166 120.034 22.5464 121.296 22.5464ZM144.25 20.8763L144.528 22.268H148.842V2.78351H143.971V7.51547H138.265C136.873 7.51547 135.778 7.91444 134.98 8.71237C134.201 9.49176 133.811 10.5773 133.811 11.9691V18.3711C133.811 19.633 134.191 20.6443 134.952 21.4052C135.713 22.166 136.724 22.5464 137.986 22.5464H139.239C139.87 22.5464 140.639 22.4165 141.55 22.1567C142.477 21.8784 143.377 21.4515 144.25 20.8763ZM143.971 17.9536C142.727 18.3248 141.614 18.5103 140.631 18.5103H139.657C139.378 18.5103 139.146 18.4175 138.961 18.232C138.775 18.0464 138.682 17.8144 138.682 17.5361V12.3866C138.682 11.6443 139.053 11.2732 139.796 11.2732H143.971V17.9536Z" fill="white"/>
</svg>
