<svg width="155" height="29" viewBox="0 0 155 29" fill="none" xmlns="http://www.w3.org/2000/svg">
<path fill-rule="evenodd" clip-rule="evenodd" d="M25.7734 19.5328L30.0386 18.07C33.126 17.0127 33.4626 13.374 30.6105 11.9136L26.667 9.89481C25.533 9.3141 24.8047 8.29197 24.7189 7.15982L24.4199 3.22523C24.2004 0.376388 20.2773 -1.02227 17.7764 0.857885L14.3214 3.45485C13.3279 4.20093 11.9705 4.48016 10.6915 4.20093L6.23914 3.22906C3.01757 2.5256 0.253314 5.30002 1.56675 7.92307L3.37502 11.5486C3.89531 12.5903 3.78465 13.7855 3.0799 14.744L0.628581 18.0781C-1.14789 20.492 1.07381 23.6061 4.38125 23.3472L8.95442 22.9896C10.2685 22.8867 11.5584 23.3459 12.4018 24.2178L15.3333 27.2531C17.4595 29.4482 21.5932 28.5984 22.3299 25.8144L23.3475 21.9695C23.6402 20.8634 24.5471 19.9526 25.7734 19.5328ZM9.04486 14.5903C9.37957 14.3666 9.77307 14.2473 10.1756 14.2473C10.7154 14.2473 11.2331 14.4617 11.6148 14.8434C11.9965 15.225 12.211 15.7428 12.211 16.2826C12.211 16.6851 12.0916 17.0787 11.868 17.4134C11.6443 17.7481 11.3264 18.0089 10.9545 18.1631C10.5826 18.3171 10.1734 18.3574 9.77856 18.2789C9.38373 18.2004 9.02107 18.0065 8.73641 17.7218C8.45177 17.4372 8.25793 17.0744 8.1794 16.6797C8.10085 16.2849 8.14116 15.8757 8.29522 15.5038C8.44927 15.1317 8.71013 14.8139 9.04486 14.5903ZM17.1862 8.48425C17.5209 8.26061 17.9145 8.14124 18.317 8.14124C18.8568 8.14124 19.3746 8.35567 19.7562 8.73737C20.1379 9.11907 20.3523 9.63676 20.3523 10.1766C20.3523 10.5791 20.233 10.9726 20.0094 11.3074C19.7857 11.642 19.4679 11.9029 19.096 12.0571C18.7241 12.2111 18.3147 12.2513 17.9199 12.1728C17.5252 12.0944 17.1624 11.9004 16.8778 11.6158C16.5931 11.3312 16.3994 10.9685 16.3207 10.5737C16.2422 10.1788 16.2826 9.7696 16.4367 9.39769C16.5907 9.02577 16.8515 8.7079 17.1862 8.48425ZM18.7693 16.4541C18.9367 16.3424 19.1334 16.2826 19.3347 16.2826C19.6046 16.2826 19.8634 16.3899 20.0544 16.5807C20.2452 16.7716 20.3523 17.0303 20.3523 17.3003C20.3523 17.5015 20.2927 17.6984 20.1809 17.8656C20.069 18.033 19.9101 18.1634 19.7241 18.2404C19.5382 18.3175 19.3335 18.3377 19.1362 18.2984C18.9387 18.2592 18.7574 18.1623 18.6151 18.0198C18.4728 17.8775 18.3758 17.6963 18.3365 17.4988C18.2973 17.3014 18.3175 17.0967 18.3945 16.9108C18.4715 16.7248 18.6019 16.5659 18.7693 16.4541ZM44.3352 24.5298C48.1877 24.5298 50.114 22.9341 50.114 19.7427C50.114 18.7169 49.9886 17.8734 49.7378 17.2124C49.4871 16.5285 49.0312 15.8218 48.3701 15.0923L42.2494 9.21101C41.7023 8.7095 41.3489 8.23078 41.1894 7.77487C41.0298 7.31895 40.95 6.69206 40.95 5.89421C40.95 5.09635 41.2122 4.46947 41.7365 4.01355C42.2836 3.55763 43.0928 3.32968 44.1642 3.32968C45.2356 3.32968 46.0335 3.55763 46.5578 4.01355C47.1049 4.46947 47.3785 5.10775 47.3785 5.9284V8.97165H49.772V6.06518C49.772 2.87376 47.937 1.27805 44.2668 1.27805C42.352 1.27805 40.9158 1.69977 39.9584 2.54322C39.0238 3.36387 38.5565 4.53786 38.5565 6.06518C38.5565 7.09099 38.6818 7.94584 38.9326 8.62971C39.2061 9.29079 39.6962 9.97467 40.4029 10.6813L46.421 16.5627C46.9453 17.087 47.2873 17.5885 47.4468 18.0672C47.6292 18.5231 47.7204 19.15 47.7204 19.9479C47.7204 20.7229 47.4354 21.3384 46.8655 21.7943C46.2957 22.2502 45.4522 22.4782 44.3352 22.4782C43.2182 22.4782 42.3748 22.2502 41.8049 21.7943C41.235 21.3384 40.95 20.7001 40.95 19.8795V16.8362H38.5565V19.7427C38.5565 22.9341 40.4827 24.5298 44.3352 24.5298ZM63.2802 1.79095H55.7576V20.0846C55.7576 21.5208 56.1451 22.6264 56.9201 23.4014C57.718 24.1537 58.7666 24.5298 60.066 24.5298C61.3653 24.5298 62.3912 24.1537 63.1434 23.4014C63.9185 22.6264 64.306 21.5208 64.306 20.0846V16.1523H61.9124V20.2214C61.9124 20.8825 61.7529 21.4296 61.4337 21.8627C61.1146 22.273 60.6473 22.4782 60.0318 22.4782C59.4391 22.4782 58.9718 22.2616 58.6298 21.8285C58.3107 21.3954 58.1511 20.8597 58.1511 20.2214V3.84258H63.2802V1.79095ZM78.6674 24.0169H79.6932V6.06518C79.6932 4.53786 79.2259 3.36387 78.2913 2.54322C77.3794 1.69977 76.0117 1.27805 74.188 1.27805C72.3643 1.27805 70.9966 1.69977 70.0848 2.54322C69.1957 3.36387 68.7512 4.53786 68.7512 6.06518V7.94584H71.1448V5.9284C71.1448 4.19592 72.1592 3.32968 74.188 3.32968C75.2138 3.32968 75.9889 3.55763 76.5132 4.01355C77.0375 4.46947 77.2996 5.10775 77.2996 5.9284V11.5362H73.3332C70.0506 11.5362 68.4093 13.1319 68.4093 16.3233V19.7427C68.4093 22.9341 70.0506 24.5298 73.3332 24.5298C74.2678 24.5298 75.1226 24.2905 75.8977 23.8118C76.6728 23.3102 77.2996 22.6492 77.7784 21.8285L78.6674 24.0169ZM73.3332 13.5878H77.2996V19.1614C77.2541 19.8909 76.8209 20.6317 76.0003 21.384C75.1796 22.1135 74.2906 22.4782 73.3332 22.4782C72.3757 22.4782 71.7147 22.2388 71.3499 21.7601C70.9852 21.2814 70.8028 20.6089 70.8028 19.7427V16.3233C70.8028 15.4571 70.9852 14.7846 71.3499 14.3059C71.7147 13.8272 72.3757 13.5878 73.3332 13.5878ZM86.19 24.0169H88.5836V8.39036C88.5836 6.74905 88.8913 5.49528 89.5068 4.62904C90.1451 3.7628 90.8404 3.32968 91.5926 3.32968C92.8464 3.32968 93.4733 4.08194 93.4733 5.58647V7.94584H95.7643V5.72324C95.7643 2.75978 94.4079 1.27805 91.6952 1.27805C90.0995 1.27805 88.9369 2.29246 88.2075 4.32129L87.2158 1.79095H86.19V24.0169ZM99.8809 1.79095V24.0169H108.532V21.9653H102.274V1.79095H99.8809ZM123.75 19.7427V6.06518C123.75 4.53786 123.26 3.36387 122.279 2.54322C121.299 1.69977 119.84 1.27805 117.903 1.27805C115.988 1.27805 114.54 1.69977 113.56 2.54322C112.603 3.36387 112.124 4.53786 112.124 6.06518V19.7427C112.124 21.27 112.614 22.4554 113.594 23.2988C114.574 24.1195 116.022 24.5298 117.937 24.5298C119.874 24.5298 121.322 24.1195 122.279 23.2988C123.26 22.4554 123.75 21.27 123.75 19.7427ZM121.356 6.06518V19.7427C121.356 21.5664 120.216 22.4782 117.937 22.4782C115.657 22.4782 114.517 21.5664 114.517 19.7427V6.06518C114.517 4.24151 115.657 3.32968 117.937 3.32968C120.216 3.32968 121.356 4.24151 121.356 6.06518ZM130.068 24.0169H132.461V8.39036C132.461 6.74905 132.769 5.49528 133.384 4.62904C134.023 3.7628 134.718 3.32968 135.47 3.32968C136.724 3.32968 137.351 4.08194 137.351 5.58647V7.94584H139.642V5.72324C139.642 2.75978 138.286 1.27805 135.573 1.27805C133.977 1.27805 132.815 2.29246 132.085 4.32129L131.093 1.79095H130.068V24.0169ZM143.759 24.0169H149.264C151.065 24.0169 152.421 23.6066 153.333 22.7859C154.245 21.9425 154.701 20.7571 154.701 19.2298V6.57808C154.701 5.07356 154.233 3.89957 153.299 3.05612C152.387 2.21268 151.042 1.79095 149.264 1.79095H143.759V24.0169ZM152.307 6.57808V19.2298C152.307 21.0535 151.293 21.9653 149.264 21.9653H146.152V3.84258H149.264C150.244 3.84258 150.996 4.08194 151.521 4.56065C152.045 5.03936 152.307 5.71184 152.307 6.57808Z" fill="white"/>
</svg>
