<svg width="55" height="55" viewBox="0 0 55 55" fill="none" xmlns="http://www.w3.org/2000/svg">
<path fill-rule="evenodd" clip-rule="evenodd" d="M27.5 55C42.6878 55 55 42.6878 55 27.5C55 12.3122 42.6878 0 27.5 0C12.3122 0 0 12.3122 0 27.5C0 42.6878 12.3122 55 27.5 55ZM30.9091 15H35V20.2H30.9091C30.5474 20.2 30.2006 20.337 29.9449 20.5808C29.6891 20.8246 29.5455 21.1552 29.5455 21.5V25.4H35L33.6364 30.6H29.5455V41H24.0909V30.6H20V25.4H24.0909V21.5C24.0909 19.7761 24.8093 18.1228 26.0879 16.9038C27.3666 15.6848 29.1008 15 30.9091 15Z" fill="#475A77"/>
</svg>
