<svg width="55" height="55" viewBox="0 0 55 55" fill="none" xmlns="http://www.w3.org/2000/svg">
<path fill-rule="evenodd" clip-rule="evenodd" d="M27.5 55C42.6878 55 55 42.6878 55 27.5C55 12.3122 42.6878 0 27.5 0C12.3122 0 0 12.3122 0 27.5C0 42.6878 12.3122 55 27.5 55ZM37.7182 20.0599C39.2483 19.6079 40.6942 18.9169 42 18.0135C41.5375 19.8762 40.5554 21.5759 39.1636 22.9221C39.235 23.2881 39.2715 23.6597 39.2727 24.0323C39.2727 39.4137 24.2727 46.1013 12 39.4137C15.3916 39.5461 18.7371 38.6085 21.5455 36.7387C9.27273 31.3886 14.7273 19.351 14.7273 19.351C16.105 21.2752 17.9465 22.8353 20.0877 23.8924C22.229 24.9496 24.6036 25.4709 27 25.4099V24.0724C26.9832 22.845 27.3512 21.6422 28.0541 20.6266C28.757 19.611 29.7609 18.8316 30.9301 18.3939C32.0993 17.9562 33.3774 17.8813 34.5914 18.1792C35.8055 18.4772 36.8969 19.1336 37.7182 20.0599Z" fill="#475A77"/>
</svg>
