<svg width="84" height="84" viewBox="0 0 84 84" fill="none" xmlns="http://www.w3.org/2000/svg">
<path fill-rule="evenodd" clip-rule="evenodd" d="M42 84C65.196 84 84 65.196 84 42C84 18.804 65.196 0 42 0C18.804 0 0 18.804 0 42C0 65.196 18.804 84 42 84ZM42 75C60.2254 75 75 60.2254 75 42C75 23.7746 60.2254 9 42 9C23.7746 9 9 23.7746 9 42C9 60.2254 23.7746 75 42 75Z" fill="white"/>
<path d="M33 26L58 41.5L33 57V26Z" fill="white" stroke="white" stroke-width="2" stroke-linecap="round" stroke-linejoin="round"/>
</svg>
