<svg width="152" height="152" viewBox="0 0 152 152" fill="none" xmlns="http://www.w3.org/2000/svg">
<path fill-rule="evenodd" clip-rule="evenodd" d="M75.7695 8C38.3415 8 8 38.3415 8 75.7695C8 113.198 38.3415 143.539 75.7695 143.539C113.198 143.539 143.539 113.198 143.539 75.7695C143.539 38.3415 113.198 8 75.7695 8ZM0 75.7695C0 33.9232 33.9232 0 75.7695 0C117.616 0 151.539 33.9232 151.539 75.7695C151.539 117.616 117.616 151.539 75.7695 151.539C33.9232 151.539 0 117.616 0 75.7695ZM75.7695 43.0615C77.9787 43.0615 79.7695 44.8524 79.7695 47.0615V71.7695H104.478C106.687 71.7695 108.478 73.5604 108.478 75.7695C108.478 77.9787 106.687 79.7695 104.478 79.7695H79.7695V104.477C79.7695 106.686 77.9787 108.477 75.7695 108.477C73.5604 108.477 71.7695 106.686 71.7695 104.477V79.7695H47.0625C44.8534 79.7695 43.0625 77.9787 43.0625 75.7695C43.0625 73.5604 44.8534 71.7695 47.0625 71.7695H71.7695V47.0615C71.7695 44.8524 73.5604 43.0615 75.7695 43.0615Z" fill="white"/>
</svg>
