<svg width="55" height="55" viewBox="0 0 55 55" fill="none" xmlns="http://www.w3.org/2000/svg">
<path fill-rule="evenodd" clip-rule="evenodd" d="M27.5 55C42.6878 55 55 42.6878 55 27.5C55 12.3122 42.6878 0 27.5 0C12.3122 0 0 12.3122 0 27.5C0 42.6878 12.3122 55 27.5 55ZM14 20.25C14 16.7982 16.7982 14 20.25 14H34.75C38.2018 14 41 16.7982 41 20.25V34.75C41 38.2018 38.2018 41 34.75 41H20.25C16.7982 41 14 38.2018 14 34.75V20.25ZM20.25 12C15.6937 12 12 15.6937 12 20.25V34.75C12 39.3064 15.6937 43 20.25 43H34.75C39.3064 43 43 39.3064 43 34.75V20.25C43 15.6937 39.3064 12 34.75 12H20.25ZM28.2669 22.6887C27.2682 22.5406 26.2482 22.7112 25.352 23.1762C24.4559 23.6412 23.7292 24.3769 23.2753 25.2787C22.8213 26.1805 22.6633 27.2025 22.8237 28.1993C22.9841 29.1961 23.4548 30.117 24.1687 30.8309C24.8826 31.5448 25.8034 32.0154 26.8002 32.1758C27.797 32.3362 28.819 32.1782 29.7208 31.7243C30.6226 31.2704 31.3584 30.5437 31.8234 29.6475C32.2884 28.7513 32.459 27.7314 32.3109 26.7327C32.1598 25.714 31.6851 24.7709 30.9569 24.0426C30.2287 23.3144 29.2856 22.8397 28.2669 22.6887ZM24.4309 21.4009C25.7005 20.7422 27.1454 20.5005 28.5602 20.7103C30.0034 20.9243 31.3395 21.5968 32.3711 22.6284C33.4027 23.6601 34.0752 24.9961 34.2892 26.4393C34.499 27.8541 34.2574 29.2991 33.5986 30.5686C32.9399 31.8382 31.8976 32.8677 30.62 33.5108C29.3424 34.1538 27.8946 34.3776 26.4825 34.1504C25.0703 33.9232 23.7658 33.2565 22.7545 32.2451C21.7431 31.2337 21.0764 29.9292 20.8491 28.5171C20.6219 27.1049 20.8457 25.6571 21.4888 24.3795C22.1318 23.102 23.1613 22.0597 24.4309 21.4009ZM35.475 18.525C34.9227 18.525 34.475 18.9727 34.475 19.525C34.475 20.0773 34.9227 20.525 35.475 20.525H35.49C36.0423 20.525 36.49 20.0773 36.49 19.525C36.49 18.9727 36.0423 18.525 35.49 18.525H35.475Z" fill="#475A77"/>
</svg>
